%TF.GenerationSoftware,KiCad,Pcbnew,9.0.7-9.0.7~ubuntu24.04.1*%
%TF.CreationDate,2026-03-17T11:18:53+01:00*%
%TF.ProjectId,dev_pcb,6465765f-7063-4622-9e6b-696361645f70,rev?*%
%TF.SameCoordinates,Original*%
%TF.FileFunction,Legend,Top*%
%TF.FilePolarity,Positive*%
%FSLAX46Y46*%
G04 Gerber Fmt 4.6, Leading zero omitted, Abs format (unit mm)*
G04 Created by KiCad (PCBNEW 9.0.7-9.0.7~ubuntu24.04.1) date 2026-03-17 11:18:53*
%MOMM*%
%LPD*%
G01*
G04 APERTURE LIST*
%ADD10C,0.150000*%
%ADD11C,0.100000*%
%ADD12C,0.127000*%
%ADD13C,0.504000*%
%ADD14C,0.120000*%
G04 APERTURE END LIST*
D10*
X96454819Y-96333332D02*
X97454819Y-96095237D01*
X97454819Y-96095237D02*
X96740533Y-95904761D01*
X96740533Y-95904761D02*
X97454819Y-95714285D01*
X97454819Y-95714285D02*
X96454819Y-95476190D01*
X97169104Y-95142856D02*
X97169104Y-94666666D01*
X97454819Y-95238094D02*
X96454819Y-94904761D01*
X96454819Y-94904761D02*
X97454819Y-94571428D01*
X97454819Y-94238094D02*
X96454819Y-94238094D01*
X97454819Y-93666666D02*
X96883390Y-94095237D01*
X96454819Y-93666666D02*
X97026247Y-94238094D01*
X96931009Y-93238094D02*
X96931009Y-92904761D01*
X97454819Y-92761904D02*
X97454819Y-93238094D01*
X97454819Y-93238094D02*
X96454819Y-93238094D01*
X96454819Y-93238094D02*
X96454819Y-92761904D01*
X96454819Y-92333332D02*
X97264342Y-92333332D01*
X97264342Y-92333332D02*
X97359580Y-92285713D01*
X97359580Y-92285713D02*
X97407200Y-92238094D01*
X97407200Y-92238094D02*
X97454819Y-92142856D01*
X97454819Y-92142856D02*
X97454819Y-91952380D01*
X97454819Y-91952380D02*
X97407200Y-91857142D01*
X97407200Y-91857142D02*
X97359580Y-91809523D01*
X97359580Y-91809523D02*
X97264342Y-91761904D01*
X97264342Y-91761904D02*
X96454819Y-91761904D01*
X97454819Y-91285713D02*
X96454819Y-91285713D01*
X96454819Y-91285713D02*
X96454819Y-90904761D01*
X96454819Y-90904761D02*
X96502438Y-90809523D01*
X96502438Y-90809523D02*
X96550057Y-90761904D01*
X96550057Y-90761904D02*
X96645295Y-90714285D01*
X96645295Y-90714285D02*
X96788152Y-90714285D01*
X96788152Y-90714285D02*
X96883390Y-90761904D01*
X96883390Y-90761904D02*
X96931009Y-90809523D01*
X96931009Y-90809523D02*
X96978628Y-90904761D01*
X96978628Y-90904761D02*
X96978628Y-91285713D01*
X97454819Y-78071427D02*
X96454819Y-78071427D01*
X96454819Y-78071427D02*
X97169104Y-77738094D01*
X97169104Y-77738094D02*
X96454819Y-77404761D01*
X96454819Y-77404761D02*
X97454819Y-77404761D01*
X96454819Y-76738094D02*
X96454819Y-76547618D01*
X96454819Y-76547618D02*
X96502438Y-76452380D01*
X96502438Y-76452380D02*
X96597676Y-76357142D01*
X96597676Y-76357142D02*
X96788152Y-76309523D01*
X96788152Y-76309523D02*
X97121485Y-76309523D01*
X97121485Y-76309523D02*
X97311961Y-76357142D01*
X97311961Y-76357142D02*
X97407200Y-76452380D01*
X97407200Y-76452380D02*
X97454819Y-76547618D01*
X97454819Y-76547618D02*
X97454819Y-76738094D01*
X97454819Y-76738094D02*
X97407200Y-76833332D01*
X97407200Y-76833332D02*
X97311961Y-76928570D01*
X97311961Y-76928570D02*
X97121485Y-76976189D01*
X97121485Y-76976189D02*
X96788152Y-76976189D01*
X96788152Y-76976189D02*
X96597676Y-76928570D01*
X96597676Y-76928570D02*
X96502438Y-76833332D01*
X96502438Y-76833332D02*
X96454819Y-76738094D01*
X97407200Y-75928570D02*
X97454819Y-75785713D01*
X97454819Y-75785713D02*
X97454819Y-75547618D01*
X97454819Y-75547618D02*
X97407200Y-75452380D01*
X97407200Y-75452380D02*
X97359580Y-75404761D01*
X97359580Y-75404761D02*
X97264342Y-75357142D01*
X97264342Y-75357142D02*
X97169104Y-75357142D01*
X97169104Y-75357142D02*
X97073866Y-75404761D01*
X97073866Y-75404761D02*
X97026247Y-75452380D01*
X97026247Y-75452380D02*
X96978628Y-75547618D01*
X96978628Y-75547618D02*
X96931009Y-75738094D01*
X96931009Y-75738094D02*
X96883390Y-75833332D01*
X96883390Y-75833332D02*
X96835771Y-75880951D01*
X96835771Y-75880951D02*
X96740533Y-75928570D01*
X96740533Y-75928570D02*
X96645295Y-75928570D01*
X96645295Y-75928570D02*
X96550057Y-75880951D01*
X96550057Y-75880951D02*
X96502438Y-75833332D01*
X96502438Y-75833332D02*
X96454819Y-75738094D01*
X96454819Y-75738094D02*
X96454819Y-75499999D01*
X96454819Y-75499999D02*
X96502438Y-75357142D01*
X97454819Y-74928570D02*
X96454819Y-74928570D01*
X97359580Y-81095238D02*
X97407200Y-81142857D01*
X97407200Y-81142857D02*
X97454819Y-81285714D01*
X97454819Y-81285714D02*
X97454819Y-81380952D01*
X97454819Y-81380952D02*
X97407200Y-81523809D01*
X97407200Y-81523809D02*
X97311961Y-81619047D01*
X97311961Y-81619047D02*
X97216723Y-81666666D01*
X97216723Y-81666666D02*
X97026247Y-81714285D01*
X97026247Y-81714285D02*
X96883390Y-81714285D01*
X96883390Y-81714285D02*
X96692914Y-81666666D01*
X96692914Y-81666666D02*
X96597676Y-81619047D01*
X96597676Y-81619047D02*
X96502438Y-81523809D01*
X96502438Y-81523809D02*
X96454819Y-81380952D01*
X96454819Y-81380952D02*
X96454819Y-81285714D01*
X96454819Y-81285714D02*
X96502438Y-81142857D01*
X96502438Y-81142857D02*
X96550057Y-81095238D01*
X97454819Y-80190476D02*
X97454819Y-80666666D01*
X97454819Y-80666666D02*
X96454819Y-80666666D01*
X97454819Y-79857142D02*
X96454819Y-79857142D01*
X97454819Y-79285714D02*
X96883390Y-79714285D01*
X96454819Y-79285714D02*
X97026247Y-79857142D01*
X97454819Y-86071427D02*
X96454819Y-86071427D01*
X96454819Y-86071427D02*
X97169104Y-85738094D01*
X97169104Y-85738094D02*
X96454819Y-85404761D01*
X96454819Y-85404761D02*
X97454819Y-85404761D01*
X97454819Y-84928570D02*
X96454819Y-84928570D01*
X97407200Y-84499999D02*
X97454819Y-84357142D01*
X97454819Y-84357142D02*
X97454819Y-84119047D01*
X97454819Y-84119047D02*
X97407200Y-84023809D01*
X97407200Y-84023809D02*
X97359580Y-83976190D01*
X97359580Y-83976190D02*
X97264342Y-83928571D01*
X97264342Y-83928571D02*
X97169104Y-83928571D01*
X97169104Y-83928571D02*
X97073866Y-83976190D01*
X97073866Y-83976190D02*
X97026247Y-84023809D01*
X97026247Y-84023809D02*
X96978628Y-84119047D01*
X96978628Y-84119047D02*
X96931009Y-84309523D01*
X96931009Y-84309523D02*
X96883390Y-84404761D01*
X96883390Y-84404761D02*
X96835771Y-84452380D01*
X96835771Y-84452380D02*
X96740533Y-84499999D01*
X96740533Y-84499999D02*
X96645295Y-84499999D01*
X96645295Y-84499999D02*
X96550057Y-84452380D01*
X96550057Y-84452380D02*
X96502438Y-84404761D01*
X96502438Y-84404761D02*
X96454819Y-84309523D01*
X96454819Y-84309523D02*
X96454819Y-84071428D01*
X96454819Y-84071428D02*
X96502438Y-83928571D01*
X96454819Y-83309523D02*
X96454819Y-83119047D01*
X96454819Y-83119047D02*
X96502438Y-83023809D01*
X96502438Y-83023809D02*
X96597676Y-82928571D01*
X96597676Y-82928571D02*
X96788152Y-82880952D01*
X96788152Y-82880952D02*
X97121485Y-82880952D01*
X97121485Y-82880952D02*
X97311961Y-82928571D01*
X97311961Y-82928571D02*
X97407200Y-83023809D01*
X97407200Y-83023809D02*
X97454819Y-83119047D01*
X97454819Y-83119047D02*
X97454819Y-83309523D01*
X97454819Y-83309523D02*
X97407200Y-83404761D01*
X97407200Y-83404761D02*
X97311961Y-83499999D01*
X97311961Y-83499999D02*
X97121485Y-83547618D01*
X97121485Y-83547618D02*
X96788152Y-83547618D01*
X96788152Y-83547618D02*
X96597676Y-83499999D01*
X96597676Y-83499999D02*
X96502438Y-83404761D01*
X96502438Y-83404761D02*
X96454819Y-83309523D01*
X97454819Y-100023808D02*
X96454819Y-100023808D01*
X97454819Y-98976190D02*
X96978628Y-99309523D01*
X97454819Y-99547618D02*
X96454819Y-99547618D01*
X96454819Y-99547618D02*
X96454819Y-99166666D01*
X96454819Y-99166666D02*
X96502438Y-99071428D01*
X96502438Y-99071428D02*
X96550057Y-99023809D01*
X96550057Y-99023809D02*
X96645295Y-98976190D01*
X96645295Y-98976190D02*
X96788152Y-98976190D01*
X96788152Y-98976190D02*
X96883390Y-99023809D01*
X96883390Y-99023809D02*
X96931009Y-99071428D01*
X96931009Y-99071428D02*
X96978628Y-99166666D01*
X96978628Y-99166666D02*
X96978628Y-99547618D01*
X97550057Y-97880952D02*
X97502438Y-97976190D01*
X97502438Y-97976190D02*
X97407200Y-98071428D01*
X97407200Y-98071428D02*
X97264342Y-98214285D01*
X97264342Y-98214285D02*
X97216723Y-98309523D01*
X97216723Y-98309523D02*
X97216723Y-98404761D01*
X97454819Y-98357142D02*
X97407200Y-98452380D01*
X97407200Y-98452380D02*
X97311961Y-98547618D01*
X97311961Y-98547618D02*
X97121485Y-98595237D01*
X97121485Y-98595237D02*
X96788152Y-98595237D01*
X96788152Y-98595237D02*
X96597676Y-98547618D01*
X96597676Y-98547618D02*
X96502438Y-98452380D01*
X96502438Y-98452380D02*
X96454819Y-98357142D01*
X96454819Y-98357142D02*
X96454819Y-98166666D01*
X96454819Y-98166666D02*
X96502438Y-98071428D01*
X96502438Y-98071428D02*
X96597676Y-97976190D01*
X96597676Y-97976190D02*
X96788152Y-97928571D01*
X96788152Y-97928571D02*
X97121485Y-97928571D01*
X97121485Y-97928571D02*
X97311961Y-97976190D01*
X97311961Y-97976190D02*
X97407200Y-98071428D01*
X97407200Y-98071428D02*
X97454819Y-98166666D01*
X97454819Y-98166666D02*
X97454819Y-98357142D01*
X96931009Y-106619047D02*
X96931009Y-106285714D01*
X97454819Y-106142857D02*
X97454819Y-106619047D01*
X97454819Y-106619047D02*
X96454819Y-106619047D01*
X96454819Y-106619047D02*
X96454819Y-106142857D01*
X96454819Y-105809523D02*
X97454819Y-105142857D01*
X96454819Y-105142857D02*
X97454819Y-105809523D01*
X96454819Y-104904761D02*
X96454819Y-104333333D01*
X97454819Y-104619047D02*
X96454819Y-104619047D01*
X96454819Y-103809523D02*
X96454819Y-103619047D01*
X96454819Y-103619047D02*
X96502438Y-103523809D01*
X96502438Y-103523809D02*
X96597676Y-103428571D01*
X96597676Y-103428571D02*
X96788152Y-103380952D01*
X96788152Y-103380952D02*
X97121485Y-103380952D01*
X97121485Y-103380952D02*
X97311961Y-103428571D01*
X97311961Y-103428571D02*
X97407200Y-103523809D01*
X97407200Y-103523809D02*
X97454819Y-103619047D01*
X97454819Y-103619047D02*
X97454819Y-103809523D01*
X97454819Y-103809523D02*
X97407200Y-103904761D01*
X97407200Y-103904761D02*
X97311961Y-103999999D01*
X97311961Y-103999999D02*
X97121485Y-104047618D01*
X97121485Y-104047618D02*
X96788152Y-104047618D01*
X96788152Y-104047618D02*
X96597676Y-103999999D01*
X96597676Y-103999999D02*
X96502438Y-103904761D01*
X96502438Y-103904761D02*
X96454819Y-103809523D01*
X97454819Y-102952380D02*
X96454819Y-102952380D01*
X96454819Y-102952380D02*
X97454819Y-102380952D01*
X97454819Y-102380952D02*
X96454819Y-102380952D01*
D11*
X73485714Y-78364895D02*
X73219047Y-77983942D01*
X73028571Y-78364895D02*
X73028571Y-77564895D01*
X73028571Y-77564895D02*
X73333333Y-77564895D01*
X73333333Y-77564895D02*
X73409523Y-77602990D01*
X73409523Y-77602990D02*
X73447618Y-77641085D01*
X73447618Y-77641085D02*
X73485714Y-77717276D01*
X73485714Y-77717276D02*
X73485714Y-77831561D01*
X73485714Y-77831561D02*
X73447618Y-77907752D01*
X73447618Y-77907752D02*
X73409523Y-77945847D01*
X73409523Y-77945847D02*
X73333333Y-77983942D01*
X73333333Y-77983942D02*
X73028571Y-77983942D01*
X73752380Y-77564895D02*
X74285714Y-78364895D01*
X74285714Y-77564895D02*
X73752380Y-78364895D01*
X75009523Y-78364895D02*
X74552380Y-78364895D01*
X74780952Y-78364895D02*
X74780952Y-77564895D01*
X74780952Y-77564895D02*
X74704761Y-77679180D01*
X74704761Y-77679180D02*
X74628571Y-77755371D01*
X74628571Y-77755371D02*
X74552380Y-77793466D01*
X70366667Y-73864895D02*
X70100000Y-73483942D01*
X69909524Y-73864895D02*
X69909524Y-73064895D01*
X69909524Y-73064895D02*
X70214286Y-73064895D01*
X70214286Y-73064895D02*
X70290476Y-73102990D01*
X70290476Y-73102990D02*
X70328571Y-73141085D01*
X70328571Y-73141085D02*
X70366667Y-73217276D01*
X70366667Y-73217276D02*
X70366667Y-73331561D01*
X70366667Y-73331561D02*
X70328571Y-73407752D01*
X70328571Y-73407752D02*
X70290476Y-73445847D01*
X70290476Y-73445847D02*
X70214286Y-73483942D01*
X70214286Y-73483942D02*
X69909524Y-73483942D01*
X71090476Y-73064895D02*
X70709524Y-73064895D01*
X70709524Y-73064895D02*
X70671428Y-73445847D01*
X70671428Y-73445847D02*
X70709524Y-73407752D01*
X70709524Y-73407752D02*
X70785714Y-73369657D01*
X70785714Y-73369657D02*
X70976190Y-73369657D01*
X70976190Y-73369657D02*
X71052381Y-73407752D01*
X71052381Y-73407752D02*
X71090476Y-73445847D01*
X71090476Y-73445847D02*
X71128571Y-73522038D01*
X71128571Y-73522038D02*
X71128571Y-73712514D01*
X71128571Y-73712514D02*
X71090476Y-73788704D01*
X71090476Y-73788704D02*
X71052381Y-73826800D01*
X71052381Y-73826800D02*
X70976190Y-73864895D01*
X70976190Y-73864895D02*
X70785714Y-73864895D01*
X70785714Y-73864895D02*
X70709524Y-73826800D01*
X70709524Y-73826800D02*
X70671428Y-73788704D01*
X70366667Y-77864895D02*
X70100000Y-77483942D01*
X69909524Y-77864895D02*
X69909524Y-77064895D01*
X69909524Y-77064895D02*
X70214286Y-77064895D01*
X70214286Y-77064895D02*
X70290476Y-77102990D01*
X70290476Y-77102990D02*
X70328571Y-77141085D01*
X70328571Y-77141085D02*
X70366667Y-77217276D01*
X70366667Y-77217276D02*
X70366667Y-77331561D01*
X70366667Y-77331561D02*
X70328571Y-77407752D01*
X70328571Y-77407752D02*
X70290476Y-77445847D01*
X70290476Y-77445847D02*
X70214286Y-77483942D01*
X70214286Y-77483942D02*
X69909524Y-77483942D01*
X71052381Y-77331561D02*
X71052381Y-77864895D01*
X70861905Y-77026800D02*
X70671428Y-77598228D01*
X70671428Y-77598228D02*
X71166667Y-77598228D01*
D10*
X95954819Y-76166666D02*
X95478628Y-76499999D01*
X95954819Y-76738094D02*
X94954819Y-76738094D01*
X94954819Y-76738094D02*
X94954819Y-76357142D01*
X94954819Y-76357142D02*
X95002438Y-76261904D01*
X95002438Y-76261904D02*
X95050057Y-76214285D01*
X95050057Y-76214285D02*
X95145295Y-76166666D01*
X95145295Y-76166666D02*
X95288152Y-76166666D01*
X95288152Y-76166666D02*
X95383390Y-76214285D01*
X95383390Y-76214285D02*
X95431009Y-76261904D01*
X95431009Y-76261904D02*
X95478628Y-76357142D01*
X95478628Y-76357142D02*
X95478628Y-76738094D01*
X95954819Y-75214285D02*
X95954819Y-75785713D01*
X95954819Y-75499999D02*
X94954819Y-75499999D01*
X94954819Y-75499999D02*
X95097676Y-75595237D01*
X95097676Y-75595237D02*
X95192914Y-75690475D01*
X95192914Y-75690475D02*
X95240533Y-75785713D01*
D11*
X70366667Y-85864895D02*
X70100000Y-85483942D01*
X69909524Y-85864895D02*
X69909524Y-85064895D01*
X69909524Y-85064895D02*
X70214286Y-85064895D01*
X70214286Y-85064895D02*
X70290476Y-85102990D01*
X70290476Y-85102990D02*
X70328571Y-85141085D01*
X70328571Y-85141085D02*
X70366667Y-85217276D01*
X70366667Y-85217276D02*
X70366667Y-85331561D01*
X70366667Y-85331561D02*
X70328571Y-85407752D01*
X70328571Y-85407752D02*
X70290476Y-85445847D01*
X70290476Y-85445847D02*
X70214286Y-85483942D01*
X70214286Y-85483942D02*
X69909524Y-85483942D01*
X70671428Y-85141085D02*
X70709524Y-85102990D01*
X70709524Y-85102990D02*
X70785714Y-85064895D01*
X70785714Y-85064895D02*
X70976190Y-85064895D01*
X70976190Y-85064895D02*
X71052381Y-85102990D01*
X71052381Y-85102990D02*
X71090476Y-85141085D01*
X71090476Y-85141085D02*
X71128571Y-85217276D01*
X71128571Y-85217276D02*
X71128571Y-85293466D01*
X71128571Y-85293466D02*
X71090476Y-85407752D01*
X71090476Y-85407752D02*
X70633333Y-85864895D01*
X70633333Y-85864895D02*
X71128571Y-85864895D01*
X73009523Y-73564895D02*
X73466666Y-73564895D01*
X73238094Y-74364895D02*
X73238094Y-73564895D01*
X73657142Y-73564895D02*
X74190476Y-74364895D01*
X74190476Y-73564895D02*
X73657142Y-74364895D01*
X74914285Y-74364895D02*
X74457142Y-74364895D01*
X74685714Y-74364895D02*
X74685714Y-73564895D01*
X74685714Y-73564895D02*
X74609523Y-73679180D01*
X74609523Y-73679180D02*
X74533333Y-73755371D01*
X74533333Y-73755371D02*
X74457142Y-73793466D01*
X73147618Y-82326800D02*
X73261904Y-82364895D01*
X73261904Y-82364895D02*
X73452380Y-82364895D01*
X73452380Y-82364895D02*
X73528571Y-82326800D01*
X73528571Y-82326800D02*
X73566666Y-82288704D01*
X73566666Y-82288704D02*
X73604761Y-82212514D01*
X73604761Y-82212514D02*
X73604761Y-82136323D01*
X73604761Y-82136323D02*
X73566666Y-82060133D01*
X73566666Y-82060133D02*
X73528571Y-82022038D01*
X73528571Y-82022038D02*
X73452380Y-81983942D01*
X73452380Y-81983942D02*
X73299999Y-81945847D01*
X73299999Y-81945847D02*
X73223809Y-81907752D01*
X73223809Y-81907752D02*
X73185714Y-81869657D01*
X73185714Y-81869657D02*
X73147618Y-81793466D01*
X73147618Y-81793466D02*
X73147618Y-81717276D01*
X73147618Y-81717276D02*
X73185714Y-81641085D01*
X73185714Y-81641085D02*
X73223809Y-81602990D01*
X73223809Y-81602990D02*
X73299999Y-81564895D01*
X73299999Y-81564895D02*
X73490476Y-81564895D01*
X73490476Y-81564895D02*
X73604761Y-81602990D01*
X74214285Y-81945847D02*
X73947619Y-81945847D01*
X73947619Y-82364895D02*
X73947619Y-81564895D01*
X73947619Y-81564895D02*
X74328571Y-81564895D01*
X74633333Y-82364895D02*
X74633333Y-81564895D01*
X74633333Y-81564895D02*
X74823809Y-81564895D01*
X74823809Y-81564895D02*
X74938095Y-81602990D01*
X74938095Y-81602990D02*
X75014285Y-81679180D01*
X75014285Y-81679180D02*
X75052380Y-81755371D01*
X75052380Y-81755371D02*
X75090476Y-81907752D01*
X75090476Y-81907752D02*
X75090476Y-82022038D01*
X75090476Y-82022038D02*
X75052380Y-82174419D01*
X75052380Y-82174419D02*
X75014285Y-82250609D01*
X75014285Y-82250609D02*
X74938095Y-82326800D01*
X74938095Y-82326800D02*
X74823809Y-82364895D01*
X74823809Y-82364895D02*
X74633333Y-82364895D01*
X75852380Y-82364895D02*
X75395237Y-82364895D01*
X75623809Y-82364895D02*
X75623809Y-81564895D01*
X75623809Y-81564895D02*
X75547618Y-81679180D01*
X75547618Y-81679180D02*
X75471428Y-81755371D01*
X75471428Y-81755371D02*
X75395237Y-81793466D01*
X73666667Y-86364895D02*
X73400000Y-85983942D01*
X73209524Y-86364895D02*
X73209524Y-85564895D01*
X73209524Y-85564895D02*
X73514286Y-85564895D01*
X73514286Y-85564895D02*
X73590476Y-85602990D01*
X73590476Y-85602990D02*
X73628571Y-85641085D01*
X73628571Y-85641085D02*
X73666667Y-85717276D01*
X73666667Y-85717276D02*
X73666667Y-85831561D01*
X73666667Y-85831561D02*
X73628571Y-85907752D01*
X73628571Y-85907752D02*
X73590476Y-85945847D01*
X73590476Y-85945847D02*
X73514286Y-85983942D01*
X73514286Y-85983942D02*
X73209524Y-85983942D01*
X73933333Y-85564895D02*
X74466667Y-86364895D01*
X74466667Y-85564895D02*
X73933333Y-86364895D01*
X74923810Y-85564895D02*
X75076191Y-85564895D01*
X75076191Y-85564895D02*
X75152381Y-85602990D01*
X75152381Y-85602990D02*
X75228572Y-85679180D01*
X75228572Y-85679180D02*
X75266667Y-85831561D01*
X75266667Y-85831561D02*
X75266667Y-86098228D01*
X75266667Y-86098228D02*
X75228572Y-86250609D01*
X75228572Y-86250609D02*
X75152381Y-86326800D01*
X75152381Y-86326800D02*
X75076191Y-86364895D01*
X75076191Y-86364895D02*
X74923810Y-86364895D01*
X74923810Y-86364895D02*
X74847619Y-86326800D01*
X74847619Y-86326800D02*
X74771429Y-86250609D01*
X74771429Y-86250609D02*
X74733333Y-86098228D01*
X74733333Y-86098228D02*
X74733333Y-85831561D01*
X74733333Y-85831561D02*
X74771429Y-85679180D01*
X74771429Y-85679180D02*
X74847619Y-85602990D01*
X74847619Y-85602990D02*
X74923810Y-85564895D01*
X75609524Y-86364895D02*
X75609524Y-85564895D01*
X76066667Y-86364895D02*
X75723809Y-85907752D01*
X76066667Y-85564895D02*
X75609524Y-86022038D01*
X76828571Y-86364895D02*
X76371428Y-86364895D01*
X76600000Y-86364895D02*
X76600000Y-85564895D01*
X76600000Y-85564895D02*
X76523809Y-85679180D01*
X76523809Y-85679180D02*
X76447619Y-85755371D01*
X76447619Y-85755371D02*
X76371428Y-85793466D01*
X70366667Y-81864895D02*
X70100000Y-81483942D01*
X69909524Y-81864895D02*
X69909524Y-81064895D01*
X69909524Y-81064895D02*
X70214286Y-81064895D01*
X70214286Y-81064895D02*
X70290476Y-81102990D01*
X70290476Y-81102990D02*
X70328571Y-81141085D01*
X70328571Y-81141085D02*
X70366667Y-81217276D01*
X70366667Y-81217276D02*
X70366667Y-81331561D01*
X70366667Y-81331561D02*
X70328571Y-81407752D01*
X70328571Y-81407752D02*
X70290476Y-81445847D01*
X70290476Y-81445847D02*
X70214286Y-81483942D01*
X70214286Y-81483942D02*
X69909524Y-81483942D01*
X70633333Y-81064895D02*
X71128571Y-81064895D01*
X71128571Y-81064895D02*
X70861905Y-81369657D01*
X70861905Y-81369657D02*
X70976190Y-81369657D01*
X70976190Y-81369657D02*
X71052381Y-81407752D01*
X71052381Y-81407752D02*
X71090476Y-81445847D01*
X71090476Y-81445847D02*
X71128571Y-81522038D01*
X71128571Y-81522038D02*
X71128571Y-81712514D01*
X71128571Y-81712514D02*
X71090476Y-81788704D01*
X71090476Y-81788704D02*
X71052381Y-81826800D01*
X71052381Y-81826800D02*
X70976190Y-81864895D01*
X70976190Y-81864895D02*
X70747619Y-81864895D01*
X70747619Y-81864895D02*
X70671428Y-81826800D01*
X70671428Y-81826800D02*
X70633333Y-81788704D01*
D12*
%TO.C,U2*%
X96000000Y-94002364D02*
X96000000Y-101997636D01*
X95500000Y-93500000D02*
G75*
G02*
X95999700Y-94000000I-272J-499972D01*
G01*
X96000000Y-102000000D02*
G75*
G02*
X95500000Y-102500000I-500000J0D01*
G01*
X74586000Y-91015000D02*
X74586000Y-104985000D01*
X76491000Y-89110000D02*
X93636000Y-89110000D01*
X76491000Y-106890000D02*
X93636000Y-106890000D01*
D11*
X95541000Y-104985000D02*
X95541000Y-91015000D01*
D12*
X95541000Y-104985000D02*
X95541000Y-91015000D01*
X74586000Y-91015000D02*
G75*
G02*
X76491000Y-89110000I1905001J-1D01*
G01*
X76491000Y-106890000D02*
G75*
G02*
X74586000Y-104985000I1J1905001D01*
G01*
X93636000Y-89110000D02*
G75*
G02*
X95541000Y-91015000I0J-1905000D01*
G01*
X95541000Y-104985000D02*
G75*
G02*
X93636000Y-106890000I-1905000J0D01*
G01*
D13*
X94772000Y-90239000D02*
G75*
G02*
X94268000Y-90239000I-252000J0D01*
G01*
X94268000Y-90239000D02*
G75*
G02*
X94772000Y-90239000I252000J0D01*
G01*
X95652000Y-89096000D02*
G75*
G02*
X95148000Y-89096000I-252000J0D01*
G01*
X95148000Y-89096000D02*
G75*
G02*
X95652000Y-89096000I252000J0D01*
G01*
D14*
%TO.C,WAKEUP*%
X99700000Y-93500000D02*
G75*
G02*
X98300000Y-93500000I-700000J0D01*
G01*
X98300000Y-93500000D02*
G75*
G02*
X99700000Y-93500000I700000J0D01*
G01*
%TO.C,MOSI*%
X99700000Y-76500000D02*
G75*
G02*
X98300000Y-76500000I-700000J0D01*
G01*
X98300000Y-76500000D02*
G75*
G02*
X99700000Y-76500000I700000J0D01*
G01*
%TO.C,CLK*%
X99700000Y-80500000D02*
G75*
G02*
X98300000Y-80500000I-700000J0D01*
G01*
X98300000Y-80500000D02*
G75*
G02*
X99700000Y-80500000I700000J0D01*
G01*
%TO.C,MISO*%
X99700000Y-84500000D02*
G75*
G02*
X98300000Y-84500000I-700000J0D01*
G01*
X98300000Y-84500000D02*
G75*
G02*
X99700000Y-84500000I700000J0D01*
G01*
%TO.C,IRQ*%
X99700000Y-99000000D02*
G75*
G02*
X98300000Y-99000000I-700000J0D01*
G01*
X98300000Y-99000000D02*
G75*
G02*
X99700000Y-99000000I700000J0D01*
G01*
%TO.C,EXTON*%
X99700000Y-104500000D02*
G75*
G02*
X98300000Y-104500000I-700000J0D01*
G01*
X98300000Y-104500000D02*
G75*
G02*
X99700000Y-104500000I700000J0D01*
G01*
D11*
%TO.C,RX1*%
X75815000Y-79000000D02*
G75*
G02*
X75715000Y-79000000I-50000J0D01*
G01*
X75715000Y-79000000D02*
G75*
G02*
X75815000Y-79000000I50000J0D01*
G01*
D14*
%TO.C,R5*%
X70727064Y-74265000D02*
X70272936Y-74265000D01*
X70727064Y-75735000D02*
X70272936Y-75735000D01*
%TO.C,R4*%
X70727064Y-78265000D02*
X70272936Y-78265000D01*
X70727064Y-79735000D02*
X70272936Y-79735000D01*
%TO.C,R1*%
X93477500Y-76342224D02*
X93477500Y-75832776D01*
X94522500Y-76342224D02*
X94522500Y-75832776D01*
%TO.C,R2*%
X70727064Y-86265000D02*
X70272936Y-86265000D01*
X70727064Y-87735000D02*
X70272936Y-87735000D01*
%TO.C,DWM1*%
X78450000Y-61750000D02*
X91950000Y-61750000D01*
X78450000Y-85250000D02*
X78450000Y-83500000D01*
X79200000Y-85250000D02*
X78450000Y-85250000D01*
X91200000Y-85250000D02*
X91950000Y-85250000D01*
X91950000Y-85250000D02*
X91950000Y-83500000D01*
D11*
%TO.C,TX1*%
X75742500Y-75000000D02*
G75*
G02*
X75642500Y-75000000I-50000J0D01*
G01*
X75642500Y-75000000D02*
G75*
G02*
X75742500Y-75000000I50000J0D01*
G01*
%TO.C,SFD1*%
X75815000Y-83000000D02*
G75*
G02*
X75715000Y-83000000I-50000J0D01*
G01*
X75715000Y-83000000D02*
G75*
G02*
X75815000Y-83000000I50000J0D01*
G01*
%TO.C,RXOK1*%
X75815000Y-87000000D02*
G75*
G02*
X75715000Y-87000000I-50000J0D01*
G01*
X75715000Y-87000000D02*
G75*
G02*
X75815000Y-87000000I50000J0D01*
G01*
D14*
%TO.C,R3*%
X70727064Y-82265000D02*
X70272936Y-82265000D01*
X70727064Y-83735000D02*
X70272936Y-83735000D01*
%TD*%
M02*
