%TF.GenerationSoftware,KiCad,Pcbnew,9.0.7-9.0.7~ubuntu24.04.1*%
%TF.CreationDate,2026-03-17T11:18:53+01:00*%
%TF.ProjectId,dev_pcb,6465765f-7063-4622-9e6b-696361645f70,rev?*%
%TF.SameCoordinates,Original*%
%TF.FileFunction,Copper,L1,Top*%
%TF.FilePolarity,Positive*%
%FSLAX46Y46*%
G04 Gerber Fmt 4.6, Leading zero omitted, Abs format (unit mm)*
G04 Created by KiCad (PCBNEW 9.0.7-9.0.7~ubuntu24.04.1) date 2026-03-17 11:18:53*
%MOMM*%
%LPD*%
G01*
G04 APERTURE LIST*
G04 Aperture macros list*
%AMRoundRect*
0 Rectangle with rounded corners*
0 $1 Rounding radius*
0 $2 $3 $4 $5 $6 $7 $8 $9 X,Y pos of 4 corners*
0 Add a 4 corners polygon primitive as box body*
4,1,4,$2,$3,$4,$5,$6,$7,$8,$9,$2,$3,0*
0 Add four circle primitives for the rounded corners*
1,1,$1+$1,$2,$3*
1,1,$1+$1,$4,$5*
1,1,$1+$1,$6,$7*
1,1,$1+$1,$8,$9*
0 Add four rect primitives between the rounded corners*
20,1,$1+$1,$2,$3,$4,$5,0*
20,1,$1+$1,$4,$5,$6,$7,0*
20,1,$1+$1,$6,$7,$8,$9,0*
20,1,$1+$1,$8,$9,$2,$3,0*%
G04 Aperture macros list end*
%TA.AperFunction,SMDPad,CuDef*%
%ADD10RoundRect,0.152400X0.609600X-1.063600X0.609600X1.063600X-0.609600X1.063600X-0.609600X-1.063600X0*%
%TD*%
%TA.AperFunction,ComponentPad*%
%ADD11C,1.524000*%
%TD*%
%TA.AperFunction,SMDPad,CuDef*%
%ADD12RoundRect,0.152400X-0.609600X1.063600X-0.609600X-1.063600X0.609600X-1.063600X0.609600X1.063600X0*%
%TD*%
%TA.AperFunction,SMDPad,CuDef*%
%ADD13C,1.000000*%
%TD*%
%TA.AperFunction,SMDPad,CuDef*%
%ADD14RoundRect,0.160000X0.222500X0.160000X-0.222500X0.160000X-0.222500X-0.160000X0.222500X-0.160000X0*%
%TD*%
%TA.AperFunction,SMDPad,CuDef*%
%ADD15RoundRect,0.250000X0.350000X0.450000X-0.350000X0.450000X-0.350000X-0.450000X0.350000X-0.450000X0*%
%TD*%
%TA.AperFunction,SMDPad,CuDef*%
%ADD16RoundRect,0.237500X0.237500X-0.250000X0.237500X0.250000X-0.237500X0.250000X-0.237500X-0.250000X0*%
%TD*%
%TA.AperFunction,SMDPad,CuDef*%
%ADD17R,2.450000X1.000000*%
%TD*%
%TA.AperFunction,SMDPad,CuDef*%
%ADD18R,1.000000X2.450000*%
%TD*%
%TA.AperFunction,ViaPad*%
%ADD19C,0.600000*%
%TD*%
%TA.AperFunction,Conductor*%
%ADD20C,0.250000*%
%TD*%
%TA.AperFunction,Conductor*%
%ADD21C,0.200000*%
%TD*%
%TA.AperFunction,Conductor*%
%ADD22C,0.600000*%
%TD*%
G04 APERTURE END LIST*
D10*
%TO.P,U2,1,GPIO1_A0_D0*%
%TO.N,Net-(DWM1-IRQ{slash}GPIO8)*%
X92620000Y-89545000D03*
D11*
X92620000Y-90380000D03*
D10*
%TO.P,U2,2,GPIO2_A1_D1*%
%TO.N,Net-(DWM1-EXTON)*%
X90080000Y-89545000D03*
D11*
X90080000Y-90380000D03*
D10*
%TO.P,U2,3,GPIO3_A2_D2*%
%TO.N,Net-(DWM1-WAKEUP)*%
X87540000Y-89545000D03*
D11*
X87540000Y-90380000D03*
D10*
%TO.P,U2,4,GPIO4_A3_D3*%
%TO.N,Net-(DWM1-~{RST})*%
X85000000Y-89545000D03*
D11*
X85000000Y-90380000D03*
D10*
%TO.P,U2,5,GPIO5_A4_D4_SDA*%
%TO.N,unconnected-(U2-GPIO5_A4_D4_SDA-Pad5)*%
X82460000Y-89545000D03*
D11*
X82460000Y-90380000D03*
D10*
%TO.P,U2,6,GPIO6_A5_D5_SCL*%
%TO.N,unconnected-(U2-GPIO6_A5_D5_SCL-Pad6)*%
X79920000Y-89545000D03*
D11*
X79920000Y-90380000D03*
D10*
%TO.P,U2,7,GPIO43_D6_TX*%
%TO.N,unconnected-(U2-GPIO43_D6_TX-Pad7)*%
X77380000Y-89545000D03*
D11*
X77380000Y-90380000D03*
%TO.P,U2,8,GPIO44_D7_RX*%
%TO.N,Net-(DWM1-~{SPICS})*%
X77380000Y-105620000D03*
D12*
X77380000Y-106455000D03*
D11*
%TO.P,U2,9,GPIO7_A8_D8_SCK*%
%TO.N,Net-(DWM1-SPICLK)*%
X79920000Y-105620000D03*
D12*
X79920000Y-106455000D03*
D11*
%TO.P,U2,10,GPIO8_A9_D9_MISO*%
%TO.N,Net-(DWM1-SPIMISO)*%
X82460000Y-105620000D03*
D12*
X82460000Y-106455000D03*
D11*
%TO.P,U2,11,GPIO9_A10_D10_MOSI*%
%TO.N,Net-(DWM1-SPIMOSI)*%
X85000000Y-105620000D03*
D12*
X85000000Y-106455000D03*
D11*
%TO.P,U2,12,3V3*%
%TO.N,+3.3V*%
X87540000Y-105620000D03*
D12*
X87540000Y-106455000D03*
D11*
%TO.P,U2,13,GND*%
%TO.N,GND*%
X90080000Y-105620000D03*
D12*
X90080000Y-106455000D03*
D11*
%TO.P,U2,14,VBUS*%
%TO.N,unconnected-(U2-VBUS-Pad14)*%
X92620000Y-105620000D03*
D12*
X92620000Y-106455000D03*
%TD*%
D13*
%TO.P,WAKEUP,1,1*%
%TO.N,Net-(DWM1-WAKEUP)*%
X99000000Y-93500000D03*
%TD*%
%TO.P,MOSI,1,1*%
%TO.N,Net-(DWM1-SPIMOSI)*%
X99000000Y-76500000D03*
%TD*%
%TO.P,CLK,1,1*%
%TO.N,Net-(DWM1-SPICLK)*%
X99000000Y-80500000D03*
%TD*%
%TO.P,MISO,1,1*%
%TO.N,Net-(DWM1-SPIMISO)*%
X99000000Y-84500000D03*
%TD*%
%TO.P,IRQ,1,1*%
%TO.N,Net-(DWM1-IRQ{slash}GPIO8)*%
X99000000Y-99000000D03*
%TD*%
%TO.P,EXTON,1,1*%
%TO.N,Net-(DWM1-EXTON)*%
X99000000Y-104500000D03*
%TD*%
D14*
%TO.P,RX1,1,K*%
%TO.N,Net-(DWM1-GPIO2{slash}RXLED)*%
X75072500Y-79000000D03*
%TO.P,RX1,2,A*%
%TO.N,Net-(RX1-A)*%
X73927500Y-79000000D03*
%TD*%
D15*
%TO.P,R5,1*%
%TO.N,Net-(TX1-A)*%
X71500000Y-75000000D03*
%TO.P,R5,2*%
%TO.N,+3.3V*%
X69500000Y-75000000D03*
%TD*%
%TO.P,R4,1*%
%TO.N,Net-(RX1-A)*%
X71500000Y-79000000D03*
%TO.P,R4,2*%
%TO.N,+3.3V*%
X69500000Y-79000000D03*
%TD*%
D16*
%TO.P,R1,1*%
%TO.N,GND*%
X94000000Y-77000000D03*
%TO.P,R1,2*%
%TO.N,Net-(DWM1-IRQ{slash}GPIO8)*%
X94000000Y-75175000D03*
%TD*%
D15*
%TO.P,R2,1*%
%TO.N,Net-(RXOK1-A)*%
X71500000Y-87000000D03*
%TO.P,R2,2*%
%TO.N,+3.3V*%
X69500000Y-87000000D03*
%TD*%
D17*
%TO.P,DWM1,1,EXTON*%
%TO.N,Net-(DWM1-EXTON)*%
X78900000Y-72701200D03*
%TO.P,DWM1,2,WAKEUP*%
%TO.N,Net-(DWM1-WAKEUP)*%
X78900000Y-74101200D03*
%TO.P,DWM1,3,~{RST}*%
%TO.N,Net-(DWM1-~{RST})*%
X78900000Y-75501200D03*
%TO.P,DWM1,4,GPIO7*%
%TO.N,unconnected-(DWM1-GPIO7-Pad4)*%
X78900000Y-76901200D03*
%TO.P,DWM1,5,VDDAON*%
%TO.N,+3.3V*%
X78900000Y-78301200D03*
%TO.P,DWM1,6,VDD3V3*%
X78900000Y-79701200D03*
%TO.P,DWM1,7,VDD3V3*%
X78900000Y-81101200D03*
%TO.P,DWM1,8,VSS*%
%TO.N,GND*%
X78900000Y-82501200D03*
D18*
%TO.P,DWM1,9,GPIO6/EXTRXE/SPIHA*%
%TO.N,unconnected-(DWM1-GPIO6{slash}EXTRXE{slash}SPIHA-Pad9)*%
X80300000Y-84796200D03*
%TO.P,DWM1,10,GPIO5/EXTTXE/SPIPOL*%
%TO.N,unconnected-(DWM1-GPIO5{slash}EXTTXE{slash}SPIPOL-Pad10)*%
X81700000Y-84796200D03*
%TO.P,DWM1,11,GPIO4/EXTPA*%
%TO.N,unconnected-(DWM1-GPIO4{slash}EXTPA-Pad11)*%
X83100000Y-84796200D03*
%TO.P,DWM1,12,GPIO3/TXLED*%
%TO.N,Net-(DWM1-GPIO3{slash}TXLED)*%
X84500000Y-84796200D03*
%TO.P,DWM1,13,GPIO2/RXLED*%
%TO.N,Net-(DWM1-GPIO2{slash}RXLED)*%
X85900000Y-84796200D03*
%TO.P,DWM1,14,GPIO1/SFDLED*%
%TO.N,Net-(DWM1-GPIO1{slash}SFDLED)*%
X87300000Y-84796200D03*
%TO.P,DWM1,15,GPIO0/RXOKLED*%
%TO.N,Net-(DWM1-GPIO0{slash}RXOKLED)*%
X88700000Y-84796200D03*
%TO.P,DWM1,16,VSS*%
%TO.N,GND*%
X90100000Y-84796200D03*
D17*
%TO.P,DWM1,17,~{SPICS}*%
%TO.N,Net-(DWM1-~{SPICS})*%
X91500000Y-82500000D03*
%TO.P,DWM1,18,SPIMOSI*%
%TO.N,Net-(DWM1-SPIMOSI)*%
X91500000Y-81100000D03*
%TO.P,DWM1,19,SPIMISO*%
%TO.N,Net-(DWM1-SPIMISO)*%
X91500000Y-79701200D03*
%TO.P,DWM1,20,SPICLK*%
%TO.N,Net-(DWM1-SPICLK)*%
X91500000Y-78301200D03*
%TO.P,DWM1,21,VSS*%
%TO.N,GND*%
X91500000Y-76901200D03*
%TO.P,DWM1,22,IRQ/GPIO8*%
%TO.N,Net-(DWM1-IRQ{slash}GPIO8)*%
X91500000Y-75501200D03*
%TO.P,DWM1,23,VSS*%
%TO.N,GND*%
X91500000Y-74101200D03*
%TO.P,DWM1,24,VSS*%
X91500000Y-72701200D03*
%TD*%
D14*
%TO.P,TX1,1,K*%
%TO.N,Net-(DWM1-GPIO3{slash}TXLED)*%
X75000000Y-75000000D03*
%TO.P,TX1,2,A*%
%TO.N,Net-(TX1-A)*%
X73855000Y-75000000D03*
%TD*%
%TO.P,SFD1,1,K*%
%TO.N,Net-(DWM1-GPIO1{slash}SFDLED)*%
X75072500Y-83000000D03*
%TO.P,SFD1,2,A*%
%TO.N,Net-(SFD1-A)*%
X73927500Y-83000000D03*
%TD*%
%TO.P,RXOK1,1,K*%
%TO.N,Net-(DWM1-GPIO0{slash}RXOKLED)*%
X75072500Y-87000000D03*
%TO.P,RXOK1,2,A*%
%TO.N,Net-(RXOK1-A)*%
X73927500Y-87000000D03*
%TD*%
D15*
%TO.P,R3,1*%
%TO.N,Net-(SFD1-A)*%
X71500000Y-83000000D03*
%TO.P,R3,2*%
%TO.N,+3.3V*%
X69500000Y-83000000D03*
%TD*%
D19*
%TO.N,GND*%
X98000000Y-88000000D03*
X99500000Y-73000000D03*
%TO.N,Net-(DWM1-SPIMOSI)*%
X93689235Y-81810765D03*
X97500000Y-78000000D03*
%TO.N,Net-(DWM1-SPICLK)*%
X95900000Y-80500000D03*
X97500000Y-80500000D03*
%TO.N,Net-(DWM1-SPIMISO)*%
X95400000Y-82000000D03*
X97500000Y-82000000D03*
%TO.N,Net-(DWM1-WAKEUP)*%
X87500000Y-91500000D03*
X97000000Y-92500000D03*
%TO.N,Net-(DWM1-IRQ{slash}GPIO8)*%
X96750000Y-96750000D03*
X93000000Y-93000000D03*
%TO.N,Net-(DWM1-EXTON)*%
X95000000Y-99000000D03*
X91000000Y-95000000D03*
%TO.N,GND*%
X88000000Y-109000000D03*
X83500000Y-81000000D03*
X95000000Y-78000000D03*
X90000000Y-87000000D03*
X89000000Y-104000000D03*
X83500000Y-80000000D03*
X80000000Y-96000000D03*
X91000000Y-104000000D03*
X86500000Y-81000000D03*
X78500000Y-84000000D03*
X86500000Y-80000000D03*
X85000000Y-80000000D03*
X82500000Y-102500000D03*
X70000000Y-105500000D03*
X85000000Y-81000000D03*
X76500000Y-96500000D03*
%TO.N,Net-(DWM1-EXTON)*%
X76699000Y-72901000D03*
X71500000Y-90000000D03*
%TO.N,Net-(DWM1-SPIMOSI)*%
X90000000Y-99000000D03*
X90000000Y-101000000D03*
%TO.N,Net-(DWM1-SPICLK)*%
X89500000Y-102500000D03*
X86500000Y-102500000D03*
%TO.N,+3.3V*%
X76757000Y-80500000D03*
X75156000Y-80500000D03*
%TO.N,Net-(DWM1-IRQ{slash}GPIO8)*%
X96500000Y-87000000D03*
X92500000Y-87000000D03*
%TO.N,Net-(DWM1-WAKEUP)*%
X72500000Y-90000000D03*
X76601200Y-74101200D03*
%TO.N,Net-(DWM1-~{RST})*%
X73500000Y-90000000D03*
X76501200Y-75501200D03*
%TD*%
D20*
%TO.N,Net-(DWM1-SPIMOSI)*%
X97500000Y-78000000D02*
X99000000Y-76500000D01*
D21*
X93413500Y-82086500D02*
X92427000Y-81100000D01*
D20*
X93689235Y-81810765D02*
X93413500Y-82086500D01*
%TO.N,Net-(DWM1-SPICLK)*%
X99000000Y-80500000D02*
X97500000Y-80500000D01*
D21*
X95561900Y-80938100D02*
X92925000Y-78301200D01*
D20*
X95900000Y-80500000D02*
X95900000Y-80600000D01*
X95900000Y-80600000D02*
X95561900Y-80938100D01*
%TO.N,Net-(DWM1-SPIMISO)*%
X99000000Y-84500000D02*
X99000000Y-83500000D01*
X99000000Y-83500000D02*
X97500000Y-82000000D01*
D21*
X95113500Y-82386500D02*
X92428200Y-79701200D01*
D20*
X95400000Y-82100000D02*
X95113500Y-82386500D01*
X95400000Y-82000000D02*
X95400000Y-82100000D01*
%TO.N,Net-(DWM1-WAKEUP)*%
X99000000Y-93500000D02*
X98000000Y-93500000D01*
X98000000Y-93500000D02*
X97000000Y-92500000D01*
X87500000Y-91500000D02*
X87500000Y-90420000D01*
X87500000Y-90420000D02*
X87540000Y-90380000D01*
%TO.N,Net-(DWM1-IRQ{slash}GPIO8)*%
X99000000Y-99000000D02*
X96750000Y-96750000D01*
X93000000Y-93000000D02*
X92620000Y-92620000D01*
X92620000Y-92620000D02*
X92620000Y-90380000D01*
D21*
%TO.N,Net-(DWM1-EXTON)*%
X95000000Y-99000000D02*
X99000000Y-103000000D01*
X99000000Y-103000000D02*
X99000000Y-104500000D01*
X88215000Y-92245000D02*
X90970000Y-95000000D01*
X90970000Y-95000000D02*
X91000000Y-95000000D01*
D22*
%TO.N,GND*%
X94750000Y-77750000D02*
X94000000Y-77000000D01*
X95000000Y-78000000D02*
X94750000Y-77750000D01*
X90100000Y-84796200D02*
X90100000Y-83600000D01*
X90100000Y-83600000D02*
X87500000Y-81000000D01*
X87500000Y-81000000D02*
X86500000Y-81000000D01*
D21*
%TO.N,Net-(DWM1-SPIMISO)*%
X95500000Y-87417043D02*
X95498000Y-87415043D01*
X95498000Y-86584957D02*
X95500000Y-86582957D01*
X95500000Y-86582957D02*
X95500000Y-82773000D01*
X95498000Y-87415043D02*
X95498000Y-86584957D01*
X95500000Y-94349943D02*
X95500000Y-87417043D01*
X95500000Y-82773000D02*
X95113500Y-82386500D01*
X82460000Y-105620000D02*
X83679000Y-104401000D01*
X92428200Y-79701200D02*
X91500000Y-79701200D01*
X83679000Y-104401000D02*
X85448943Y-104401000D01*
X85448943Y-104401000D02*
X95500000Y-94349943D01*
%TO.N,Net-(DWM1-EXTON)*%
X90080000Y-90380000D02*
X88215000Y-92245000D01*
X76699000Y-72901000D02*
X78900000Y-72901000D01*
X88215000Y-92245000D02*
X73745000Y-92245000D01*
X73745000Y-92245000D02*
X71500000Y-90000000D01*
%TO.N,Net-(DWM1-~{SPICS})*%
X77380000Y-106455000D02*
X77380000Y-106120000D01*
X92500000Y-82500000D02*
X91500000Y-82500000D01*
X94500000Y-84500000D02*
X92500000Y-82500000D01*
X94500000Y-93500000D02*
X94500000Y-84500000D01*
X84500000Y-103500000D02*
X94500000Y-93500000D01*
X79500000Y-103500000D02*
X84500000Y-103500000D01*
X77380000Y-105620000D02*
X79500000Y-103500000D01*
%TO.N,Net-(DWM1-SPIMOSI)*%
X95000000Y-83673000D02*
X93413500Y-82086500D01*
X92427000Y-81100000D02*
X91500000Y-81100000D01*
X85440000Y-105620000D02*
X90000000Y-101060000D01*
X90000000Y-101060000D02*
X90000000Y-101000000D01*
X95000000Y-94000000D02*
X95000000Y-83673000D01*
X85000000Y-105620000D02*
X85440000Y-105620000D01*
X90000000Y-99000000D02*
X95000000Y-94000000D01*
%TO.N,Net-(DWM1-SPICLK)*%
X96000000Y-87349943D02*
X95899000Y-87248943D01*
X96000000Y-96000000D02*
X96000000Y-87349943D01*
X79920000Y-105620000D02*
X79920000Y-106233626D01*
X95899000Y-86751057D02*
X96000000Y-86650057D01*
X92925000Y-78301200D02*
X91500000Y-78301200D01*
X89500000Y-102500000D02*
X96000000Y-96000000D01*
X85000000Y-104000000D02*
X86500000Y-102500000D01*
X96000000Y-86650057D02*
X96000000Y-81376200D01*
X79920000Y-105620000D02*
X81540000Y-104000000D01*
X95899000Y-87248943D02*
X95899000Y-86751057D01*
X81540000Y-104000000D02*
X85000000Y-104000000D01*
X96000000Y-81376200D02*
X95561900Y-80938100D01*
D22*
%TO.N,+3.3V*%
X76896530Y-108573000D02*
X69500000Y-101176470D01*
X87540000Y-106455000D02*
X87540000Y-107083568D01*
X69500000Y-81500000D02*
X69500000Y-80500000D01*
X87540000Y-107083568D02*
X86050568Y-108573000D01*
X69500000Y-101176470D02*
X69500000Y-81500000D01*
X69500000Y-80500000D02*
X75156000Y-80500000D01*
X78900000Y-81101200D02*
X78900000Y-78301200D01*
X77358200Y-81101200D02*
X78900000Y-81101200D01*
X69500000Y-80500000D02*
X69500000Y-75000000D01*
X76757000Y-80500000D02*
X77358200Y-81101200D01*
X86050568Y-108573000D02*
X76896530Y-108573000D01*
D21*
%TO.N,Net-(DWM1-IRQ{slash}GPIO8)*%
X94175000Y-75175000D02*
X94000000Y-75175000D01*
X91826200Y-75175000D02*
X91500000Y-75501200D01*
X96500000Y-77500000D02*
X94175000Y-75175000D01*
X94000000Y-75175000D02*
X91826200Y-75175000D01*
X92620000Y-87120000D02*
X92500000Y-87000000D01*
X92620000Y-90380000D02*
X92620000Y-87120000D01*
X96500000Y-87000000D02*
X96500000Y-77500000D01*
%TO.N,Net-(DWM1-WAKEUP)*%
X76601200Y-74101200D02*
X78900000Y-74101200D01*
X74344000Y-91844000D02*
X72500000Y-90000000D01*
X86076000Y-91844000D02*
X74344000Y-91844000D01*
X87540000Y-90380000D02*
X86076000Y-91844000D01*
%TO.N,Net-(DWM1-~{RST})*%
X76501200Y-75501200D02*
X78900000Y-75501200D01*
X85000000Y-90380000D02*
X83937000Y-91443000D01*
X83937000Y-91443000D02*
X74943000Y-91443000D01*
X74943000Y-91443000D02*
X73500000Y-90000000D01*
%TO.N,Net-(DWM1-GPIO0{slash}RXOKLED)*%
X87474800Y-87525200D02*
X88700000Y-86300000D01*
X88700000Y-86300000D02*
X88700000Y-84796200D01*
X75597700Y-87525200D02*
X87474800Y-87525200D01*
X75072500Y-87000000D02*
X75597700Y-87525200D01*
%TO.N,Net-(RXOK1-A)*%
X73927500Y-87000000D02*
X71000000Y-87000000D01*
%TO.N,Net-(DWM1-GPIO2{slash}RXLED)*%
X85900000Y-86221200D02*
X85900000Y-84796200D01*
X85398000Y-86723200D02*
X85900000Y-86221200D01*
X75756000Y-83146300D02*
X79332900Y-86723200D01*
X79332900Y-86723200D02*
X85398000Y-86723200D01*
X75756000Y-83146300D02*
X75756000Y-79683500D01*
X75756000Y-79683500D02*
X75072500Y-79000000D01*
%TO.N,Net-(RX1-A)*%
X73927500Y-79000000D02*
X71000000Y-79000000D01*
%TO.N,Net-(TX1-A)*%
X73855000Y-75000000D02*
X71000000Y-75000000D01*
%TO.N,Net-(DWM1-GPIO3{slash}TXLED)*%
X84399000Y-86322200D02*
X84500000Y-86221200D01*
X84500000Y-86221200D02*
X84500000Y-84796200D01*
X76000000Y-79360400D02*
X76157000Y-79517400D01*
X75000000Y-75000000D02*
X76000000Y-76000000D01*
X79499000Y-86322200D02*
X84399000Y-86322200D01*
X76157000Y-79517400D02*
X76157000Y-82980200D01*
X76157000Y-82980200D02*
X79499000Y-86322200D01*
X76000000Y-76000000D02*
X76000000Y-79360400D01*
%TO.N,Net-(SFD1-A)*%
X73927500Y-83000000D02*
X71000000Y-83000000D01*
%TO.N,Net-(DWM1-GPIO1{slash}SFDLED)*%
X79166800Y-87124200D02*
X86875800Y-87124200D01*
X75072500Y-83000000D02*
X75072500Y-83029900D01*
X86875800Y-87124200D02*
X87300000Y-86700000D01*
X75072500Y-83029900D02*
X79166800Y-87124200D01*
X87300000Y-86700000D02*
X87300000Y-84796200D01*
%TD*%
%TA.AperFunction,Conductor*%
%TO.N,GND*%
G36*
X68705703Y-101384947D02*
G01*
X68739061Y-101431208D01*
X68790602Y-101555642D01*
X68790609Y-101555655D01*
X68878210Y-101686758D01*
X68878213Y-101686762D01*
X76274741Y-109083289D01*
X76386238Y-109194786D01*
X76386242Y-109194790D01*
X76502390Y-109272398D01*
X76547195Y-109326010D01*
X76555902Y-109395335D01*
X76525747Y-109458363D01*
X76466304Y-109495082D01*
X76433499Y-109499500D01*
X68624500Y-109499500D01*
X68557461Y-109479815D01*
X68511706Y-109427011D01*
X68500500Y-109375500D01*
X68500500Y-101478660D01*
X68520185Y-101411621D01*
X68572989Y-101365866D01*
X68642147Y-101355922D01*
X68705703Y-101384947D01*
G37*
%TD.AperFunction*%
%TA.AperFunction,Conductor*%
G36*
X100442539Y-72020185D02*
G01*
X100488294Y-72072989D01*
X100499500Y-72124500D01*
X100499500Y-109375500D01*
X100479815Y-109442539D01*
X100427011Y-109488294D01*
X100375500Y-109499500D01*
X86513599Y-109499500D01*
X86446560Y-109479815D01*
X86400805Y-109427011D01*
X86390861Y-109357853D01*
X86419886Y-109294297D01*
X86444708Y-109272398D01*
X86501160Y-109234677D01*
X86560857Y-109194789D01*
X87547827Y-108207819D01*
X87609150Y-108174334D01*
X87635508Y-108171500D01*
X88215526Y-108171500D01*
X88215534Y-108171500D01*
X88252548Y-108168587D01*
X88252550Y-108168586D01*
X88252552Y-108168586D01*
X88294323Y-108156449D01*
X88410959Y-108122564D01*
X88552947Y-108038592D01*
X88669592Y-107921947D01*
X88669776Y-107921637D01*
X88703558Y-107864514D01*
X88754626Y-107816830D01*
X88823368Y-107804326D01*
X88887958Y-107830971D01*
X88917022Y-107864513D01*
X88950803Y-107921634D01*
X88950810Y-107921643D01*
X89067356Y-108038189D01*
X89067365Y-108038196D01*
X89209243Y-108122102D01*
X89209246Y-108122103D01*
X89367526Y-108168088D01*
X89367532Y-108168089D01*
X89404518Y-108170999D01*
X90755469Y-108170999D01*
X90755491Y-108170998D01*
X90792466Y-108168089D01*
X90950757Y-108122102D01*
X91092634Y-108038196D01*
X91092643Y-108038189D01*
X91209189Y-107921643D01*
X91209193Y-107921637D01*
X91242976Y-107864514D01*
X91294045Y-107816830D01*
X91362787Y-107804326D01*
X91427376Y-107830971D01*
X91456440Y-107864511D01*
X91490408Y-107921947D01*
X91490410Y-107921949D01*
X91490412Y-107921952D01*
X91607047Y-108038587D01*
X91607051Y-108038590D01*
X91607053Y-108038592D01*
X91749041Y-108122564D01*
X91790816Y-108134701D01*
X91907447Y-108168586D01*
X91907450Y-108168586D01*
X91907452Y-108168587D01*
X91944466Y-108171500D01*
X91944474Y-108171500D01*
X93295526Y-108171500D01*
X93295534Y-108171500D01*
X93332548Y-108168587D01*
X93332550Y-108168586D01*
X93332552Y-108168586D01*
X93374323Y-108156449D01*
X93490959Y-108122564D01*
X93632947Y-108038592D01*
X93749592Y-107921947D01*
X93833564Y-107779959D01*
X93879587Y-107621548D01*
X93882500Y-107584534D01*
X93882500Y-105325466D01*
X93879587Y-105288452D01*
X93876300Y-105277139D01*
X93845701Y-105171816D01*
X93833564Y-105130041D01*
X93772795Y-105027287D01*
X93749594Y-104988056D01*
X93749590Y-104988051D01*
X93735446Y-104973907D01*
X93653390Y-104891851D01*
X93640758Y-104877060D01*
X93582984Y-104797539D01*
X93442466Y-104657021D01*
X93442464Y-104657019D01*
X93281694Y-104540213D01*
X93104632Y-104449994D01*
X93104629Y-104449993D01*
X92915637Y-104388587D01*
X92817498Y-104373043D01*
X92719361Y-104357500D01*
X92520639Y-104357500D01*
X92455214Y-104367862D01*
X92324362Y-104388587D01*
X92135370Y-104449993D01*
X92135367Y-104449994D01*
X91958305Y-104540213D01*
X91797533Y-104657021D01*
X91657018Y-104797536D01*
X91599239Y-104877061D01*
X91593992Y-104883784D01*
X91590469Y-104887990D01*
X91490408Y-104988053D01*
X91451285Y-105054204D01*
X91444779Y-105061975D01*
X91423798Y-105075964D01*
X91405371Y-105093170D01*
X91395227Y-105095015D01*
X91386647Y-105100736D01*
X91361433Y-105101161D01*
X91336629Y-105105673D01*
X91327097Y-105101740D01*
X91316787Y-105101915D01*
X91295347Y-105088642D01*
X91272040Y-105079027D01*
X91263043Y-105068643D01*
X91257380Y-105065138D01*
X91254161Y-105058393D01*
X91242977Y-105045486D01*
X91209195Y-104988364D01*
X91209192Y-104988360D01*
X91137191Y-104916360D01*
X90517647Y-105535904D01*
X90494208Y-105448429D01*
X90435689Y-105347070D01*
X90352930Y-105264311D01*
X90251571Y-105205792D01*
X90164094Y-105182352D01*
X90778716Y-104567731D01*
X90778715Y-104567730D01*
X90741432Y-104540641D01*
X90564437Y-104450457D01*
X90375522Y-104389075D01*
X90179321Y-104358000D01*
X89980679Y-104358000D01*
X89784479Y-104389075D01*
X89784476Y-104389075D01*
X89595562Y-104450457D01*
X89418564Y-104540643D01*
X89381283Y-104567729D01*
X89381282Y-104567730D01*
X89995906Y-105182352D01*
X89908429Y-105205792D01*
X89807070Y-105264311D01*
X89724311Y-105347070D01*
X89665792Y-105448429D01*
X89642352Y-105535905D01*
X89022807Y-104916360D01*
X88950810Y-104988357D01*
X88950800Y-104988370D01*
X88917021Y-105045487D01*
X88865952Y-105093170D01*
X88797210Y-105105673D01*
X88732621Y-105079027D01*
X88715220Y-105061975D01*
X88708716Y-105054208D01*
X88669592Y-104988053D01*
X88569518Y-104887979D01*
X88566007Y-104883786D01*
X88565489Y-104882600D01*
X88560758Y-104877060D01*
X88502984Y-104797539D01*
X88362466Y-104657021D01*
X88362464Y-104657019D01*
X88201694Y-104540213D01*
X88024632Y-104449994D01*
X88024629Y-104449993D01*
X87835637Y-104388587D01*
X87804081Y-104383589D01*
X87740947Y-104353659D01*
X87704016Y-104294348D01*
X87705014Y-104224485D01*
X87735797Y-104173437D01*
X88800898Y-103108335D01*
X88862219Y-103074852D01*
X88931911Y-103079836D01*
X88976258Y-103108337D01*
X88989707Y-103121786D01*
X88989711Y-103121789D01*
X89120814Y-103209390D01*
X89120827Y-103209397D01*
X89215799Y-103248735D01*
X89266503Y-103269737D01*
X89419132Y-103300097D01*
X89421153Y-103300499D01*
X89421156Y-103300500D01*
X89421158Y-103300500D01*
X89578844Y-103300500D01*
X89578845Y-103300499D01*
X89733497Y-103269737D01*
X89879179Y-103209394D01*
X90010289Y-103121789D01*
X90121789Y-103010289D01*
X90209394Y-102879179D01*
X90269737Y-102733497D01*
X90300500Y-102578842D01*
X90300638Y-102578150D01*
X90333023Y-102516239D01*
X90334518Y-102514716D01*
X93987819Y-98861414D01*
X94049142Y-98827930D01*
X94118834Y-98832914D01*
X94174767Y-98874786D01*
X94199184Y-98940250D01*
X94199500Y-98949096D01*
X94199500Y-99078846D01*
X94230261Y-99233489D01*
X94230264Y-99233501D01*
X94290602Y-99379172D01*
X94290609Y-99379185D01*
X94378210Y-99510288D01*
X94378213Y-99510292D01*
X94489707Y-99621786D01*
X94489711Y-99621789D01*
X94620814Y-99709390D01*
X94620827Y-99709397D01*
X94766498Y-99769735D01*
X94766503Y-99769737D01*
X94831147Y-99782595D01*
X94921849Y-99800638D01*
X94983760Y-99833023D01*
X94985339Y-99834574D01*
X98363181Y-103212416D01*
X98396666Y-103273739D01*
X98399500Y-103300097D01*
X98399500Y-103634216D01*
X98379815Y-103701255D01*
X98363181Y-103721897D01*
X98222863Y-103862214D01*
X98222860Y-103862218D01*
X98113371Y-104026079D01*
X98113364Y-104026092D01*
X98037950Y-104208160D01*
X98037947Y-104208170D01*
X97999500Y-104401456D01*
X97999500Y-104401459D01*
X97999500Y-104598541D01*
X97999500Y-104598543D01*
X97999499Y-104598543D01*
X98037947Y-104791829D01*
X98037950Y-104791839D01*
X98113364Y-104973907D01*
X98113371Y-104973920D01*
X98222860Y-105137781D01*
X98222863Y-105137785D01*
X98362214Y-105277136D01*
X98362218Y-105277139D01*
X98526079Y-105386628D01*
X98526092Y-105386635D01*
X98675278Y-105448429D01*
X98708165Y-105462051D01*
X98708169Y-105462051D01*
X98708170Y-105462052D01*
X98901456Y-105500500D01*
X98901459Y-105500500D01*
X99098543Y-105500500D01*
X99228582Y-105474632D01*
X99291835Y-105462051D01*
X99473914Y-105386632D01*
X99637782Y-105277139D01*
X99777139Y-105137782D01*
X99886632Y-104973914D01*
X99962051Y-104791835D01*
X99974632Y-104728582D01*
X100000500Y-104598543D01*
X100000500Y-104401456D01*
X99962052Y-104208170D01*
X99962051Y-104208169D01*
X99962051Y-104208165D01*
X99962049Y-104208160D01*
X99886635Y-104026092D01*
X99886628Y-104026079D01*
X99777139Y-103862218D01*
X99777136Y-103862214D01*
X99636819Y-103721897D01*
X99603334Y-103660574D01*
X99600500Y-103634216D01*
X99600500Y-102920944D01*
X99600499Y-102920938D01*
X99597288Y-102908954D01*
X99594755Y-102899500D01*
X99559577Y-102768215D01*
X99530639Y-102718095D01*
X99480520Y-102631284D01*
X99368716Y-102519480D01*
X99368715Y-102519479D01*
X99364385Y-102515149D01*
X99364374Y-102515139D01*
X95834574Y-98985339D01*
X95801089Y-98924016D01*
X95800638Y-98921849D01*
X95769738Y-98766510D01*
X95769737Y-98766503D01*
X95745571Y-98708160D01*
X95709397Y-98620827D01*
X95709390Y-98620814D01*
X95621789Y-98489711D01*
X95621786Y-98489707D01*
X95510292Y-98378213D01*
X95510288Y-98378210D01*
X95379185Y-98290609D01*
X95379172Y-98290602D01*
X95233501Y-98230264D01*
X95233489Y-98230261D01*
X95078845Y-98199500D01*
X95078842Y-98199500D01*
X94949096Y-98199500D01*
X94882057Y-98179815D01*
X94836302Y-98127011D01*
X94826358Y-98057853D01*
X94855383Y-97994297D01*
X94861415Y-97987819D01*
X95329499Y-97519735D01*
X95815496Y-97033737D01*
X95876817Y-97000254D01*
X95946508Y-97005238D01*
X96002442Y-97047110D01*
X96017736Y-97073967D01*
X96040604Y-97129175D01*
X96040609Y-97129185D01*
X96128210Y-97260288D01*
X96128213Y-97260292D01*
X96239707Y-97371786D01*
X96239711Y-97371789D01*
X96370814Y-97459390D01*
X96370827Y-97459397D01*
X96458230Y-97495599D01*
X96516503Y-97519737D01*
X96627716Y-97541858D01*
X96689623Y-97574241D01*
X96691201Y-97575791D01*
X97963182Y-98847773D01*
X97996666Y-98909094D01*
X97999500Y-98935452D01*
X97999500Y-99098541D01*
X97999500Y-99098543D01*
X97999499Y-99098543D01*
X98037947Y-99291829D01*
X98037950Y-99291839D01*
X98113364Y-99473907D01*
X98113371Y-99473920D01*
X98222860Y-99637781D01*
X98222863Y-99637785D01*
X98362214Y-99777136D01*
X98362218Y-99777139D01*
X98526079Y-99886628D01*
X98526092Y-99886635D01*
X98708160Y-99962049D01*
X98708165Y-99962051D01*
X98708169Y-99962051D01*
X98708170Y-99962052D01*
X98901456Y-100000500D01*
X98901459Y-100000500D01*
X99098543Y-100000500D01*
X99228582Y-99974632D01*
X99291835Y-99962051D01*
X99473914Y-99886632D01*
X99637782Y-99777139D01*
X99777139Y-99637782D01*
X99886632Y-99473914D01*
X99962051Y-99291835D01*
X100000500Y-99098541D01*
X100000500Y-98901459D01*
X100000500Y-98901456D01*
X99962052Y-98708170D01*
X99962051Y-98708169D01*
X99962051Y-98708165D01*
X99925872Y-98620821D01*
X99886635Y-98526092D01*
X99886628Y-98526079D01*
X99777139Y-98362218D01*
X99777136Y-98362214D01*
X99637785Y-98222863D01*
X99637781Y-98222860D01*
X99473920Y-98113371D01*
X99473907Y-98113364D01*
X99291839Y-98037950D01*
X99291829Y-98037947D01*
X99098543Y-97999500D01*
X99098541Y-97999500D01*
X98935453Y-97999500D01*
X98868414Y-97979815D01*
X98847772Y-97963181D01*
X97575793Y-96691203D01*
X97542308Y-96629880D01*
X97541887Y-96627864D01*
X97519737Y-96516503D01*
X97495599Y-96458230D01*
X97459397Y-96370827D01*
X97459390Y-96370814D01*
X97371789Y-96239711D01*
X97371786Y-96239707D01*
X97260292Y-96128213D01*
X97260288Y-96128210D01*
X97129185Y-96040609D01*
X97129172Y-96040602D01*
X96983501Y-95980264D01*
X96983489Y-95980261D01*
X96828845Y-95949500D01*
X96828842Y-95949500D01*
X96724500Y-95949500D01*
X96657461Y-95929815D01*
X96611706Y-95877011D01*
X96600500Y-95825500D01*
X96600500Y-93386554D01*
X96620185Y-93319515D01*
X96672989Y-93273760D01*
X96742147Y-93263816D01*
X96749827Y-93265168D01*
X96761202Y-93267541D01*
X96766503Y-93269737D01*
X96878398Y-93291994D01*
X96878849Y-93292088D01*
X96909168Y-93308310D01*
X96939623Y-93324241D01*
X96940437Y-93325041D01*
X96940454Y-93325050D01*
X96940462Y-93325066D01*
X96941203Y-93325793D01*
X97601263Y-93985855D01*
X97601267Y-93985858D01*
X97703710Y-94054309D01*
X97703711Y-94054309D01*
X97703715Y-94054312D01*
X97770397Y-94081932D01*
X97817548Y-94101463D01*
X97837597Y-94105451D01*
X97902624Y-94118385D01*
X97938392Y-94125501D01*
X97938394Y-94125501D01*
X98067721Y-94125501D01*
X98067741Y-94125500D01*
X98159217Y-94125500D01*
X98226256Y-94145185D01*
X98246893Y-94161814D01*
X98315340Y-94230261D01*
X98362219Y-94277140D01*
X98526079Y-94386628D01*
X98526092Y-94386635D01*
X98708160Y-94462049D01*
X98708165Y-94462051D01*
X98708169Y-94462051D01*
X98708170Y-94462052D01*
X98901456Y-94500500D01*
X98901459Y-94500500D01*
X99098543Y-94500500D01*
X99228582Y-94474632D01*
X99291835Y-94462051D01*
X99473914Y-94386632D01*
X99637782Y-94277139D01*
X99777139Y-94137782D01*
X99886632Y-93973914D01*
X99962051Y-93791835D01*
X99995876Y-93621789D01*
X100000500Y-93598543D01*
X100000500Y-93401456D01*
X99962052Y-93208170D01*
X99962051Y-93208169D01*
X99962051Y-93208165D01*
X99908484Y-93078842D01*
X99886635Y-93026092D01*
X99886628Y-93026079D01*
X99777139Y-92862218D01*
X99777136Y-92862214D01*
X99637785Y-92722863D01*
X99637781Y-92722860D01*
X99473920Y-92613371D01*
X99473907Y-92613364D01*
X99291839Y-92537950D01*
X99291829Y-92537947D01*
X99098543Y-92499500D01*
X99098541Y-92499500D01*
X98901459Y-92499500D01*
X98901457Y-92499500D01*
X98708170Y-92537947D01*
X98708160Y-92537950D01*
X98526092Y-92613364D01*
X98526079Y-92613371D01*
X98362221Y-92722858D01*
X98362216Y-92722862D01*
X98322514Y-92762564D01*
X98261191Y-92796049D01*
X98191499Y-92791063D01*
X98147153Y-92762563D01*
X97825793Y-92441203D01*
X97792308Y-92379880D01*
X97791887Y-92377864D01*
X97769737Y-92266503D01*
X97742880Y-92201665D01*
X97709397Y-92120827D01*
X97709390Y-92120814D01*
X97621789Y-91989711D01*
X97621786Y-91989707D01*
X97510292Y-91878213D01*
X97510288Y-91878210D01*
X97379185Y-91790609D01*
X97379172Y-91790602D01*
X97233501Y-91730264D01*
X97233489Y-91730261D01*
X97078845Y-91699500D01*
X97078842Y-91699500D01*
X96921158Y-91699500D01*
X96921155Y-91699500D01*
X96766510Y-91730261D01*
X96760676Y-91732031D01*
X96759873Y-91729385D01*
X96702056Y-91735396D01*
X96639687Y-91703902D01*
X96604245Y-91643689D01*
X96600500Y-91613444D01*
X96600500Y-87897955D01*
X96620185Y-87830916D01*
X96672989Y-87785161D01*
X96700303Y-87776339D01*
X96733497Y-87769737D01*
X96879179Y-87709394D01*
X97010289Y-87621789D01*
X97121789Y-87510289D01*
X97209394Y-87379179D01*
X97269737Y-87233497D01*
X97300500Y-87078842D01*
X97300500Y-86921158D01*
X97300500Y-86921155D01*
X97300499Y-86921153D01*
X97274555Y-86790724D01*
X97269737Y-86766503D01*
X97250503Y-86720067D01*
X97209397Y-86620827D01*
X97209390Y-86620814D01*
X97121398Y-86489125D01*
X97100520Y-86422447D01*
X97100500Y-86420234D01*
X97100500Y-82886554D01*
X97120185Y-82819515D01*
X97172989Y-82773760D01*
X97242147Y-82763816D01*
X97249827Y-82765168D01*
X97261202Y-82767541D01*
X97266503Y-82769737D01*
X97378398Y-82791994D01*
X97378849Y-82792088D01*
X97409168Y-82808310D01*
X97439623Y-82824241D01*
X97440437Y-82825041D01*
X97440454Y-82825050D01*
X97440462Y-82825066D01*
X97441203Y-82825793D01*
X98262563Y-83647153D01*
X98296048Y-83708476D01*
X98291064Y-83778168D01*
X98262564Y-83822514D01*
X98222862Y-83862216D01*
X98222858Y-83862221D01*
X98113371Y-84026079D01*
X98113364Y-84026092D01*
X98037950Y-84208160D01*
X98037947Y-84208170D01*
X97999500Y-84401456D01*
X97999500Y-84401459D01*
X97999500Y-84598541D01*
X97999500Y-84598543D01*
X97999499Y-84598543D01*
X98037947Y-84791829D01*
X98037950Y-84791839D01*
X98113364Y-84973907D01*
X98113371Y-84973920D01*
X98222860Y-85137781D01*
X98222863Y-85137785D01*
X98362214Y-85277136D01*
X98362218Y-85277139D01*
X98526079Y-85386628D01*
X98526092Y-85386635D01*
X98708160Y-85462049D01*
X98708165Y-85462051D01*
X98708169Y-85462051D01*
X98708170Y-85462052D01*
X98901456Y-85500500D01*
X98901459Y-85500500D01*
X99098543Y-85500500D01*
X99228582Y-85474632D01*
X99291835Y-85462051D01*
X99473914Y-85386632D01*
X99637782Y-85277139D01*
X99777139Y-85137782D01*
X99886632Y-84973914D01*
X99962051Y-84791835D01*
X100000500Y-84598541D01*
X100000500Y-84401459D01*
X100000500Y-84401456D01*
X99962052Y-84208170D01*
X99962051Y-84208169D01*
X99962051Y-84208165D01*
X99958875Y-84200498D01*
X99886635Y-84026092D01*
X99886628Y-84026079D01*
X99777139Y-83862218D01*
X99777136Y-83862214D01*
X99661819Y-83746897D01*
X99628334Y-83685574D01*
X99625500Y-83659216D01*
X99625500Y-83438393D01*
X99625499Y-83438389D01*
X99609419Y-83357546D01*
X99601463Y-83317548D01*
X99554311Y-83203714D01*
X99554310Y-83203713D01*
X99554307Y-83203707D01*
X99485859Y-83101268D01*
X99444585Y-83059994D01*
X99398733Y-83014142D01*
X99398732Y-83014141D01*
X98325792Y-81941202D01*
X98292308Y-81879880D01*
X98291887Y-81877864D01*
X98269737Y-81766503D01*
X98245290Y-81707482D01*
X98209397Y-81620827D01*
X98209390Y-81620814D01*
X98121789Y-81489711D01*
X98121786Y-81489707D01*
X98010292Y-81378213D01*
X98010286Y-81378208D01*
X97972710Y-81353100D01*
X97951641Y-81327889D01*
X97929706Y-81303433D01*
X97929348Y-81301213D01*
X97927905Y-81299487D01*
X97923810Y-81266881D01*
X97918580Y-81234455D01*
X97919479Y-81232393D01*
X97919199Y-81230162D01*
X97933376Y-81200531D01*
X97946513Y-81170412D01*
X97948744Y-81168410D01*
X97949355Y-81167135D01*
X97972781Y-81146850D01*
X97973535Y-81146346D01*
X98040228Y-81125518D01*
X98042350Y-81125500D01*
X98159217Y-81125500D01*
X98226256Y-81145185D01*
X98246893Y-81161814D01*
X98315241Y-81230162D01*
X98362219Y-81277140D01*
X98526079Y-81386628D01*
X98526092Y-81386635D01*
X98708160Y-81462049D01*
X98708165Y-81462051D01*
X98708169Y-81462051D01*
X98708170Y-81462052D01*
X98901456Y-81500500D01*
X98901459Y-81500500D01*
X99098543Y-81500500D01*
X99228582Y-81474632D01*
X99291835Y-81462051D01*
X99473914Y-81386632D01*
X99637782Y-81277139D01*
X99777139Y-81137782D01*
X99886632Y-80973914D01*
X99962051Y-80791835D01*
X100000500Y-80598541D01*
X100000500Y-80401459D01*
X100000500Y-80401456D01*
X99962052Y-80208170D01*
X99962051Y-80208169D01*
X99962051Y-80208165D01*
X99893519Y-80042712D01*
X99886635Y-80026092D01*
X99886628Y-80026079D01*
X99777139Y-79862218D01*
X99777136Y-79862214D01*
X99637785Y-79722863D01*
X99637781Y-79722860D01*
X99473920Y-79613371D01*
X99473907Y-79613364D01*
X99291839Y-79537950D01*
X99291829Y-79537947D01*
X99098543Y-79499500D01*
X99098541Y-79499500D01*
X98901459Y-79499500D01*
X98901457Y-79499500D01*
X98708170Y-79537947D01*
X98708160Y-79537950D01*
X98526092Y-79613364D01*
X98526079Y-79613371D01*
X98362219Y-79722859D01*
X98304559Y-79780520D01*
X98246896Y-79838182D01*
X98219965Y-79852888D01*
X98194152Y-79869477D01*
X98187952Y-79870368D01*
X98185576Y-79871666D01*
X98159217Y-79874500D01*
X98042350Y-79874500D01*
X97975311Y-79854815D01*
X97973459Y-79853602D01*
X97879184Y-79790609D01*
X97879172Y-79790602D01*
X97733501Y-79730264D01*
X97733489Y-79730261D01*
X97578845Y-79699500D01*
X97578842Y-79699500D01*
X97421158Y-79699500D01*
X97421155Y-79699500D01*
X97266510Y-79730261D01*
X97260676Y-79732031D01*
X97259873Y-79729385D01*
X97202056Y-79735396D01*
X97139687Y-79703902D01*
X97104245Y-79643689D01*
X97100500Y-79613444D01*
X97100500Y-78886555D01*
X97120185Y-78819516D01*
X97172989Y-78773761D01*
X97242147Y-78763817D01*
X97260411Y-78768840D01*
X97260676Y-78767969D01*
X97266492Y-78769732D01*
X97266503Y-78769737D01*
X97421153Y-78800499D01*
X97421156Y-78800500D01*
X97421158Y-78800500D01*
X97578844Y-78800500D01*
X97578845Y-78800499D01*
X97733497Y-78769737D01*
X97879179Y-78709394D01*
X98010289Y-78621789D01*
X98121789Y-78510289D01*
X98209394Y-78379179D01*
X98269737Y-78233497D01*
X98291858Y-78122282D01*
X98324240Y-78060375D01*
X98325732Y-78058856D01*
X98847771Y-77536819D01*
X98909094Y-77503334D01*
X98935452Y-77500500D01*
X99098543Y-77500500D01*
X99228582Y-77474632D01*
X99291835Y-77462051D01*
X99473914Y-77386632D01*
X99637782Y-77277139D01*
X99777139Y-77137782D01*
X99886632Y-76973914D01*
X99962051Y-76791835D01*
X99989821Y-76652227D01*
X100000500Y-76598543D01*
X100000500Y-76401456D01*
X99962052Y-76208170D01*
X99962051Y-76208169D01*
X99962051Y-76208165D01*
X99958875Y-76200498D01*
X99886635Y-76026092D01*
X99886628Y-76026079D01*
X99777139Y-75862218D01*
X99777136Y-75862214D01*
X99637785Y-75722863D01*
X99637781Y-75722860D01*
X99473920Y-75613371D01*
X99473907Y-75613364D01*
X99291839Y-75537950D01*
X99291829Y-75537947D01*
X99098543Y-75499500D01*
X99098541Y-75499500D01*
X98901459Y-75499500D01*
X98901457Y-75499500D01*
X98708170Y-75537947D01*
X98708160Y-75537950D01*
X98526092Y-75613364D01*
X98526079Y-75613371D01*
X98362218Y-75722860D01*
X98362214Y-75722863D01*
X98222863Y-75862214D01*
X98222860Y-75862218D01*
X98113371Y-76026079D01*
X98113364Y-76026092D01*
X98037950Y-76208160D01*
X98037947Y-76208170D01*
X97999500Y-76401456D01*
X97999500Y-76564546D01*
X97979815Y-76631585D01*
X97963181Y-76652227D01*
X97441203Y-77174205D01*
X97428355Y-77181822D01*
X97420494Y-77190883D01*
X97397276Y-77200249D01*
X97388380Y-77205524D01*
X97383106Y-77207068D01*
X97266503Y-77230263D01*
X97176118Y-77267700D01*
X97169701Y-77269581D01*
X97141178Y-77269562D01*
X97112825Y-77272611D01*
X97106691Y-77269540D01*
X97099832Y-77269536D01*
X97075851Y-77254102D01*
X97050346Y-77241335D01*
X97044392Y-77233855D01*
X97041078Y-77231723D01*
X97038911Y-77226971D01*
X97027458Y-77212583D01*
X96980520Y-77131284D01*
X95978092Y-76128856D01*
X95011818Y-75162582D01*
X94978333Y-75101259D01*
X94975499Y-75074901D01*
X94975499Y-74875830D01*
X94975498Y-74875813D01*
X94965174Y-74774747D01*
X94964736Y-74773425D01*
X94910908Y-74610984D01*
X94820340Y-74464150D01*
X94698350Y-74342160D01*
X94551516Y-74251592D01*
X94387753Y-74197326D01*
X94387751Y-74197325D01*
X94286678Y-74187000D01*
X93713330Y-74187000D01*
X93713312Y-74187001D01*
X93612247Y-74197325D01*
X93448484Y-74251592D01*
X93448481Y-74251593D01*
X93402795Y-74279773D01*
X93316922Y-74332739D01*
X93251828Y-74351200D01*
X89775000Y-74351200D01*
X89775000Y-74649044D01*
X89781401Y-74708572D01*
X89781403Y-74708583D01*
X89799519Y-74757153D01*
X89804503Y-74826844D01*
X89799520Y-74843816D01*
X89780908Y-74893717D01*
X89774501Y-74953316D01*
X89774501Y-74953323D01*
X89774500Y-74953335D01*
X89774500Y-76049070D01*
X89774501Y-76049076D01*
X89780909Y-76108684D01*
X89799519Y-76158582D01*
X89804503Y-76228274D01*
X89799520Y-76245246D01*
X89781402Y-76293823D01*
X89781401Y-76293827D01*
X89775000Y-76353355D01*
X89775000Y-76651200D01*
X93231000Y-76651200D01*
X93298039Y-76670885D01*
X93343794Y-76723689D01*
X93347993Y-76742993D01*
X93355000Y-76750000D01*
X94849403Y-76750000D01*
X94916442Y-76769685D01*
X94937084Y-76786319D01*
X95863181Y-77712416D01*
X95896666Y-77773739D01*
X95899500Y-77800097D01*
X95899500Y-79582152D01*
X95879815Y-79649191D01*
X95827011Y-79694946D01*
X95799692Y-79703769D01*
X95666508Y-79730261D01*
X95666498Y-79730264D01*
X95520827Y-79790602D01*
X95520816Y-79790608D01*
X95451265Y-79837081D01*
X95384588Y-79857958D01*
X95317208Y-79839473D01*
X95294694Y-79821659D01*
X93672214Y-78199179D01*
X93638729Y-78137856D01*
X93643713Y-78068164D01*
X93685585Y-78012231D01*
X93748874Y-77988625D01*
X93750000Y-77987499D01*
X94250000Y-77987499D01*
X94286640Y-77987499D01*
X94286654Y-77987498D01*
X94387652Y-77977180D01*
X94551300Y-77922953D01*
X94551311Y-77922948D01*
X94698034Y-77832447D01*
X94698038Y-77832444D01*
X94819944Y-77710538D01*
X94819947Y-77710534D01*
X94910448Y-77563811D01*
X94910453Y-77563800D01*
X94964680Y-77400152D01*
X94974999Y-77299154D01*
X94975000Y-77299141D01*
X94975000Y-77250000D01*
X94250000Y-77250000D01*
X94250000Y-77987499D01*
X93750000Y-77987499D01*
X93750000Y-77250000D01*
X93019000Y-77250000D01*
X92951961Y-77230315D01*
X92906206Y-77177511D01*
X92902006Y-77158206D01*
X92895000Y-77151200D01*
X89775000Y-77151200D01*
X89775000Y-77449044D01*
X89781401Y-77508572D01*
X89781403Y-77508583D01*
X89799519Y-77557153D01*
X89804503Y-77626844D01*
X89799520Y-77643816D01*
X89780908Y-77693717D01*
X89774501Y-77753316D01*
X89774501Y-77753323D01*
X89774500Y-77753335D01*
X89774500Y-78849070D01*
X89774501Y-78849076D01*
X89780908Y-78908682D01*
X89794004Y-78943793D01*
X89799252Y-78957865D01*
X89799253Y-78957866D01*
X89804237Y-79027558D01*
X89799253Y-79044531D01*
X89780909Y-79093714D01*
X89780908Y-79093716D01*
X89774501Y-79153316D01*
X89774501Y-79153323D01*
X89774500Y-79153335D01*
X89774500Y-80249070D01*
X89774501Y-80249076D01*
X89780908Y-80308683D01*
X89799029Y-80357267D01*
X89804013Y-80426958D01*
X89799030Y-80443931D01*
X89780908Y-80492519D01*
X89774501Y-80552116D01*
X89774500Y-80552135D01*
X89774500Y-81647870D01*
X89774501Y-81647876D01*
X89780908Y-81707482D01*
X89799253Y-81756666D01*
X89804237Y-81826358D01*
X89799253Y-81843331D01*
X89780909Y-81892514D01*
X89780908Y-81892516D01*
X89774501Y-81952116D01*
X89774500Y-81952135D01*
X89774501Y-82947200D01*
X89754817Y-83014239D01*
X89702013Y-83059994D01*
X89650501Y-83071200D01*
X89552155Y-83071200D01*
X89492627Y-83077601D01*
X89492623Y-83077602D01*
X89444046Y-83095720D01*
X89374354Y-83100703D01*
X89357382Y-83095719D01*
X89307485Y-83077109D01*
X89307483Y-83077108D01*
X89247883Y-83070701D01*
X89247881Y-83070700D01*
X89247873Y-83070700D01*
X89247864Y-83070700D01*
X88152129Y-83070700D01*
X88152123Y-83070701D01*
X88092516Y-83077108D01*
X88043332Y-83095453D01*
X87973640Y-83100437D01*
X87956667Y-83095453D01*
X87907482Y-83077108D01*
X87907483Y-83077108D01*
X87847883Y-83070701D01*
X87847881Y-83070700D01*
X87847873Y-83070700D01*
X87847864Y-83070700D01*
X86752129Y-83070700D01*
X86752123Y-83070701D01*
X86692516Y-83077108D01*
X86643332Y-83095453D01*
X86573640Y-83100437D01*
X86556667Y-83095453D01*
X86507482Y-83077108D01*
X86507483Y-83077108D01*
X86447883Y-83070701D01*
X86447881Y-83070700D01*
X86447873Y-83070700D01*
X86447864Y-83070700D01*
X85352129Y-83070700D01*
X85352123Y-83070701D01*
X85292516Y-83077108D01*
X85243332Y-83095453D01*
X85173640Y-83100437D01*
X85156667Y-83095453D01*
X85107482Y-83077108D01*
X85107483Y-83077108D01*
X85047883Y-83070701D01*
X85047881Y-83070700D01*
X85047873Y-83070700D01*
X85047864Y-83070700D01*
X83952129Y-83070700D01*
X83952123Y-83070701D01*
X83892516Y-83077108D01*
X83843332Y-83095453D01*
X83773640Y-83100437D01*
X83756667Y-83095453D01*
X83707482Y-83077108D01*
X83707483Y-83077108D01*
X83647883Y-83070701D01*
X83647881Y-83070700D01*
X83647873Y-83070700D01*
X83647864Y-83070700D01*
X82552129Y-83070700D01*
X82552123Y-83070701D01*
X82492516Y-83077108D01*
X82443332Y-83095453D01*
X82373640Y-83100437D01*
X82356667Y-83095453D01*
X82307482Y-83077108D01*
X82307483Y-83077108D01*
X82247883Y-83070701D01*
X82247881Y-83070700D01*
X82247873Y-83070700D01*
X82247864Y-83070700D01*
X81152129Y-83070700D01*
X81152123Y-83070701D01*
X81092516Y-83077108D01*
X81043332Y-83095453D01*
X80973640Y-83100437D01*
X80956667Y-83095453D01*
X80907482Y-83077108D01*
X80907483Y-83077108D01*
X80847883Y-83070701D01*
X80847881Y-83070700D01*
X80847873Y-83070700D01*
X80847865Y-83070700D01*
X80749000Y-83070700D01*
X80681961Y-83051015D01*
X80636206Y-82998211D01*
X80625000Y-82946700D01*
X80625000Y-82751200D01*
X79150000Y-82751200D01*
X79150000Y-83501200D01*
X79175500Y-83501200D01*
X79242539Y-83520885D01*
X79288294Y-83573689D01*
X79299500Y-83625200D01*
X79299500Y-84974102D01*
X79279815Y-85041141D01*
X79227011Y-85086896D01*
X79157853Y-85096840D01*
X79094297Y-85067815D01*
X79087819Y-85061783D01*
X77738917Y-83712881D01*
X77705432Y-83651558D01*
X77710416Y-83581866D01*
X77752288Y-83525933D01*
X77817752Y-83501516D01*
X77826598Y-83501200D01*
X78650000Y-83501200D01*
X78650000Y-82751200D01*
X77175000Y-82751200D01*
X77175000Y-82849602D01*
X77168761Y-82870847D01*
X77167182Y-82892936D01*
X77159109Y-82903719D01*
X77155315Y-82916641D01*
X77138581Y-82931140D01*
X77125310Y-82948869D01*
X77112689Y-82953576D01*
X77102511Y-82962396D01*
X77080593Y-82965547D01*
X77059846Y-82973286D01*
X77046685Y-82970423D01*
X77033353Y-82972340D01*
X77013209Y-82963140D01*
X76991573Y-82958434D01*
X76973847Y-82945165D01*
X76969797Y-82943315D01*
X76963319Y-82937283D01*
X76793819Y-82767783D01*
X76760334Y-82706460D01*
X76757500Y-82680102D01*
X76757500Y-81894566D01*
X76777185Y-81827527D01*
X76829989Y-81781772D01*
X76899147Y-81771828D01*
X76950392Y-81791465D01*
X76979013Y-81810589D01*
X76979018Y-81810592D01*
X76979021Y-81810594D01*
X77098455Y-81860065D01*
X77152855Y-81903903D01*
X77174921Y-81970197D01*
X77175000Y-81974624D01*
X77175000Y-82251200D01*
X80625000Y-82251200D01*
X80625000Y-81953372D01*
X80624999Y-81953355D01*
X80618598Y-81893827D01*
X80600479Y-81845248D01*
X80595495Y-81775556D01*
X80600476Y-81758591D01*
X80619091Y-81708683D01*
X80625500Y-81649073D01*
X80625499Y-80553328D01*
X80619091Y-80493717D01*
X80618644Y-80492519D01*
X80600747Y-80444534D01*
X80595762Y-80374843D01*
X80600747Y-80357865D01*
X80619089Y-80308688D01*
X80619091Y-80308683D01*
X80625500Y-80249073D01*
X80625499Y-79153328D01*
X80619091Y-79093717D01*
X80600747Y-79044534D01*
X80595762Y-78974843D01*
X80600747Y-78957865D01*
X80619089Y-78908688D01*
X80619091Y-78908683D01*
X80625500Y-78849073D01*
X80625499Y-77753328D01*
X80619091Y-77693717D01*
X80600747Y-77644534D01*
X80595762Y-77574843D01*
X80600747Y-77557865D01*
X80619089Y-77508688D01*
X80619091Y-77508683D01*
X80625500Y-77449073D01*
X80625499Y-76353328D01*
X80619091Y-76293717D01*
X80602314Y-76248735D01*
X80600747Y-76244534D01*
X80595762Y-76174843D01*
X80600747Y-76157865D01*
X80613755Y-76122989D01*
X80619091Y-76108683D01*
X80625500Y-76049073D01*
X80625499Y-74953328D01*
X80619091Y-74893717D01*
X80600747Y-74844534D01*
X80595762Y-74774843D01*
X80600747Y-74757865D01*
X80619089Y-74708688D01*
X80619091Y-74708683D01*
X80625500Y-74649073D01*
X80625499Y-73553328D01*
X80619091Y-73493717D01*
X80600747Y-73444534D01*
X80595762Y-73374843D01*
X80600747Y-73357865D01*
X80619089Y-73308688D01*
X80619091Y-73308683D01*
X80625500Y-73249073D01*
X80625500Y-73249044D01*
X89775000Y-73249044D01*
X89781401Y-73308572D01*
X89781403Y-73308580D01*
X89799786Y-73357867D01*
X89804770Y-73427559D01*
X89799786Y-73444533D01*
X89781403Y-73493819D01*
X89781401Y-73493827D01*
X89775000Y-73553355D01*
X89775000Y-73851200D01*
X91250000Y-73851200D01*
X91750000Y-73851200D01*
X93225000Y-73851200D01*
X93225000Y-73553372D01*
X93224999Y-73553355D01*
X93218597Y-73493822D01*
X93218597Y-73493821D01*
X93200214Y-73444535D01*
X93195228Y-73374844D01*
X93200214Y-73357865D01*
X93218597Y-73308578D01*
X93218597Y-73308577D01*
X93224999Y-73249044D01*
X93225000Y-73249027D01*
X93225000Y-72951200D01*
X91750000Y-72951200D01*
X91750000Y-73851200D01*
X91250000Y-73851200D01*
X91250000Y-72951200D01*
X89775000Y-72951200D01*
X89775000Y-73249044D01*
X80625500Y-73249044D01*
X80625499Y-72667510D01*
X80625499Y-72304000D01*
X80645183Y-72236961D01*
X80697987Y-72191206D01*
X80749499Y-72180000D01*
X89651000Y-72180000D01*
X89718039Y-72199685D01*
X89763794Y-72252489D01*
X89775000Y-72304000D01*
X89775000Y-72451200D01*
X93225000Y-72451200D01*
X93225000Y-72304000D01*
X93244685Y-72236961D01*
X93297489Y-72191206D01*
X93349000Y-72180000D01*
X94090000Y-72180000D01*
X94090000Y-72124500D01*
X94109685Y-72057461D01*
X94162489Y-72011706D01*
X94214000Y-72000500D01*
X100375500Y-72000500D01*
X100442539Y-72020185D01*
G37*
%TD.AperFunction*%
%TA.AperFunction,Conductor*%
G36*
X73227089Y-87620185D02*
G01*
X73247731Y-87636819D01*
X73294665Y-87683753D01*
X73294670Y-87683757D01*
X73431929Y-87766732D01*
X73431933Y-87766734D01*
X73458486Y-87775008D01*
X73585067Y-87814452D01*
X73651619Y-87820500D01*
X74203380Y-87820499D01*
X74203388Y-87820499D01*
X74269926Y-87814453D01*
X74269927Y-87814452D01*
X74269933Y-87814452D01*
X74423069Y-87766733D01*
X74435849Y-87759006D01*
X74503404Y-87741170D01*
X74564151Y-87759007D01*
X74576931Y-87766733D01*
X74576933Y-87766734D01*
X74603486Y-87775008D01*
X74730067Y-87814452D01*
X74796619Y-87820500D01*
X74992401Y-87820499D01*
X75021846Y-87829144D01*
X75051829Y-87835667D01*
X75056842Y-87839419D01*
X75059441Y-87840183D01*
X75080083Y-87856818D01*
X75112839Y-87889574D01*
X75112849Y-87889585D01*
X75117179Y-87893915D01*
X75117180Y-87893916D01*
X75228984Y-88005720D01*
X75228986Y-88005721D01*
X75228990Y-88005724D01*
X75293052Y-88042710D01*
X75293056Y-88042711D01*
X75293057Y-88042712D01*
X75365915Y-88084777D01*
X75518643Y-88125701D01*
X75518646Y-88125701D01*
X75684353Y-88125701D01*
X75684369Y-88125700D01*
X76028692Y-88125700D01*
X76095731Y-88145385D01*
X76141486Y-88198189D01*
X76151430Y-88267347D01*
X76147768Y-88284295D01*
X76120413Y-88378447D01*
X76120412Y-88378453D01*
X76117500Y-88415458D01*
X76117500Y-90674544D01*
X76120194Y-90708773D01*
X76105829Y-90777150D01*
X76056777Y-90826906D01*
X75996576Y-90842500D01*
X75243097Y-90842500D01*
X75176058Y-90822815D01*
X75155416Y-90806181D01*
X74334574Y-89985339D01*
X74301089Y-89924016D01*
X74300638Y-89921849D01*
X74269738Y-89766510D01*
X74269737Y-89766503D01*
X74269735Y-89766498D01*
X74209397Y-89620827D01*
X74209390Y-89620814D01*
X74121789Y-89489711D01*
X74121786Y-89489707D01*
X74010292Y-89378213D01*
X74010288Y-89378210D01*
X73879185Y-89290609D01*
X73879172Y-89290602D01*
X73733501Y-89230264D01*
X73733489Y-89230261D01*
X73578845Y-89199500D01*
X73578842Y-89199500D01*
X73421158Y-89199500D01*
X73421155Y-89199500D01*
X73266510Y-89230261D01*
X73266498Y-89230264D01*
X73120827Y-89290602D01*
X73120814Y-89290609D01*
X73068891Y-89325304D01*
X73002214Y-89346182D01*
X72934833Y-89327698D01*
X72931109Y-89325304D01*
X72879185Y-89290609D01*
X72879172Y-89290602D01*
X72733501Y-89230264D01*
X72733489Y-89230261D01*
X72578845Y-89199500D01*
X72578842Y-89199500D01*
X72421158Y-89199500D01*
X72421155Y-89199500D01*
X72266510Y-89230261D01*
X72266498Y-89230264D01*
X72120827Y-89290602D01*
X72120814Y-89290609D01*
X72068891Y-89325304D01*
X72002214Y-89346182D01*
X71934833Y-89327698D01*
X71931109Y-89325304D01*
X71879185Y-89290609D01*
X71879172Y-89290602D01*
X71733501Y-89230264D01*
X71733489Y-89230261D01*
X71578845Y-89199500D01*
X71578842Y-89199500D01*
X71421158Y-89199500D01*
X71421155Y-89199500D01*
X71266510Y-89230261D01*
X71266498Y-89230264D01*
X71120827Y-89290602D01*
X71120814Y-89290609D01*
X70989711Y-89378210D01*
X70989707Y-89378213D01*
X70878213Y-89489707D01*
X70878210Y-89489711D01*
X70790609Y-89620814D01*
X70790602Y-89620827D01*
X70730264Y-89766498D01*
X70730261Y-89766510D01*
X70699500Y-89921153D01*
X70699500Y-90078846D01*
X70730261Y-90233489D01*
X70730264Y-90233501D01*
X70790602Y-90379172D01*
X70790609Y-90379185D01*
X70878210Y-90510288D01*
X70878213Y-90510292D01*
X70989707Y-90621786D01*
X70989711Y-90621789D01*
X71120814Y-90709390D01*
X71120827Y-90709397D01*
X71266498Y-90769735D01*
X71266503Y-90769737D01*
X71331147Y-90782595D01*
X71421849Y-90800638D01*
X71483760Y-90833023D01*
X71485339Y-90834574D01*
X73260139Y-92609374D01*
X73260149Y-92609385D01*
X73264479Y-92613715D01*
X73264480Y-92613716D01*
X73376284Y-92725520D01*
X73376286Y-92725521D01*
X73376290Y-92725524D01*
X73509535Y-92802452D01*
X73513216Y-92804577D01*
X73625019Y-92834534D01*
X73665942Y-92845500D01*
X73665943Y-92845500D01*
X87914903Y-92845500D01*
X87981942Y-92865185D01*
X88002584Y-92881819D01*
X90172875Y-95052110D01*
X90206360Y-95113433D01*
X90206811Y-95115599D01*
X90230261Y-95233491D01*
X90230264Y-95233501D01*
X90290602Y-95379172D01*
X90290609Y-95379185D01*
X90378210Y-95510288D01*
X90378213Y-95510292D01*
X90489707Y-95621786D01*
X90489711Y-95621789D01*
X90620814Y-95709390D01*
X90620827Y-95709397D01*
X90721907Y-95751265D01*
X90766503Y-95769737D01*
X90921153Y-95800499D01*
X90921156Y-95800500D01*
X91050902Y-95800500D01*
X91117941Y-95820185D01*
X91163696Y-95872989D01*
X91173640Y-95942147D01*
X91144615Y-96005703D01*
X91138583Y-96012181D01*
X84287584Y-102863181D01*
X84226261Y-102896666D01*
X84199903Y-102899500D01*
X79586670Y-102899500D01*
X79586654Y-102899499D01*
X79579058Y-102899499D01*
X79420943Y-102899499D01*
X79344579Y-102919961D01*
X79268214Y-102940423D01*
X79268209Y-102940426D01*
X79131290Y-103019475D01*
X79131282Y-103019481D01*
X77794526Y-104356237D01*
X77733203Y-104389722D01*
X77680478Y-104389158D01*
X77680448Y-104389349D01*
X77679156Y-104389144D01*
X77677903Y-104389131D01*
X77675636Y-104388586D01*
X77493232Y-104359697D01*
X77479361Y-104357500D01*
X77280639Y-104357500D01*
X77215214Y-104367862D01*
X77084362Y-104388587D01*
X76895370Y-104449993D01*
X76895367Y-104449994D01*
X76718305Y-104540213D01*
X76557533Y-104657021D01*
X76417018Y-104797536D01*
X76359239Y-104877061D01*
X76346604Y-104891854D01*
X76250413Y-104988046D01*
X76250405Y-104988056D01*
X76166435Y-105130042D01*
X76166434Y-105130045D01*
X76120413Y-105288447D01*
X76120412Y-105288453D01*
X76117500Y-105325458D01*
X76117500Y-106362530D01*
X76097815Y-106429569D01*
X76045011Y-106475324D01*
X75975853Y-106485268D01*
X75912297Y-106456243D01*
X75905819Y-106450211D01*
X70336819Y-100881211D01*
X70303334Y-100819888D01*
X70300500Y-100793530D01*
X70300500Y-88112230D01*
X70309144Y-88082789D01*
X70315668Y-88052803D01*
X70319422Y-88047787D01*
X70320185Y-88045191D01*
X70336819Y-88024549D01*
X70412319Y-87949049D01*
X70473642Y-87915564D01*
X70543334Y-87920548D01*
X70587681Y-87949049D01*
X70681344Y-88042712D01*
X70830666Y-88134814D01*
X70997203Y-88189999D01*
X71099991Y-88200500D01*
X71900008Y-88200499D01*
X71900016Y-88200498D01*
X71900019Y-88200498D01*
X71956302Y-88194748D01*
X72002797Y-88189999D01*
X72169334Y-88134814D01*
X72318656Y-88042712D01*
X72442712Y-87918656D01*
X72534814Y-87769334D01*
X72562595Y-87685495D01*
X72602368Y-87628051D01*
X72666884Y-87601228D01*
X72680301Y-87600500D01*
X73160050Y-87600500D01*
X73227089Y-87620185D01*
G37*
%TD.AperFunction*%
%TA.AperFunction,Conductor*%
G36*
X92666941Y-83520184D02*
G01*
X92687583Y-83536818D01*
X93863181Y-84712416D01*
X93896666Y-84773739D01*
X93899500Y-84800097D01*
X93899500Y-87928598D01*
X93879815Y-87995637D01*
X93827011Y-88041392D01*
X93757853Y-88051336D01*
X93694297Y-88022311D01*
X93687819Y-88016279D01*
X93632952Y-87961412D01*
X93632943Y-87961405D01*
X93490957Y-87877435D01*
X93490954Y-87877434D01*
X93332552Y-87831413D01*
X93326312Y-87830274D01*
X93326637Y-87828492D01*
X93269462Y-87806687D01*
X93228003Y-87750447D01*
X93220500Y-87707969D01*
X93220500Y-87377031D01*
X93229939Y-87329578D01*
X93269737Y-87233497D01*
X93300500Y-87078842D01*
X93300500Y-86921158D01*
X93300500Y-86921155D01*
X93300499Y-86921153D01*
X93274555Y-86790724D01*
X93269737Y-86766503D01*
X93250503Y-86720067D01*
X93209397Y-86620827D01*
X93209390Y-86620814D01*
X93121789Y-86489711D01*
X93121786Y-86489707D01*
X93010292Y-86378213D01*
X93010288Y-86378210D01*
X92879185Y-86290609D01*
X92879172Y-86290602D01*
X92733501Y-86230264D01*
X92733489Y-86230261D01*
X92578845Y-86199500D01*
X92578842Y-86199500D01*
X92421158Y-86199500D01*
X92421155Y-86199500D01*
X92266510Y-86230261D01*
X92266498Y-86230264D01*
X92120827Y-86290602D01*
X92120814Y-86290609D01*
X91989711Y-86378210D01*
X91989707Y-86378213D01*
X91878213Y-86489707D01*
X91878210Y-86489711D01*
X91790609Y-86620814D01*
X91790602Y-86620827D01*
X91730264Y-86766498D01*
X91730261Y-86766510D01*
X91699500Y-86921153D01*
X91699500Y-87078846D01*
X91730261Y-87233489D01*
X91730264Y-87233501D01*
X91790602Y-87379172D01*
X91790609Y-87379185D01*
X91878210Y-87510288D01*
X91878213Y-87510292D01*
X91983181Y-87615260D01*
X91997884Y-87642187D01*
X92014477Y-87668006D01*
X92015368Y-87674206D01*
X92016666Y-87676583D01*
X92019500Y-87702941D01*
X92019500Y-87707969D01*
X91999815Y-87775008D01*
X91947011Y-87820763D01*
X91913535Y-87829438D01*
X91913688Y-87830274D01*
X91907447Y-87831413D01*
X91749045Y-87877434D01*
X91749042Y-87877435D01*
X91607056Y-87961405D01*
X91607047Y-87961412D01*
X91490412Y-88078047D01*
X91490408Y-88078053D01*
X91456840Y-88134814D01*
X91456732Y-88134996D01*
X91405662Y-88182679D01*
X91336921Y-88195182D01*
X91272331Y-88168536D01*
X91243268Y-88134996D01*
X91209592Y-88078053D01*
X91209589Y-88078050D01*
X91209587Y-88078047D01*
X91092952Y-87961412D01*
X91092943Y-87961405D01*
X90950957Y-87877435D01*
X90950954Y-87877434D01*
X90792552Y-87831413D01*
X90792546Y-87831412D01*
X90755541Y-87828500D01*
X90755534Y-87828500D01*
X89404466Y-87828500D01*
X89404458Y-87828500D01*
X89367453Y-87831412D01*
X89367447Y-87831413D01*
X89209045Y-87877434D01*
X89209042Y-87877435D01*
X89067056Y-87961405D01*
X89067047Y-87961412D01*
X88950412Y-88078047D01*
X88950408Y-88078053D01*
X88916840Y-88134814D01*
X88916732Y-88134996D01*
X88865662Y-88182679D01*
X88796921Y-88195182D01*
X88732331Y-88168536D01*
X88703268Y-88134996D01*
X88669592Y-88078053D01*
X88669589Y-88078050D01*
X88669587Y-88078047D01*
X88552952Y-87961412D01*
X88552943Y-87961405D01*
X88410957Y-87877435D01*
X88410954Y-87877434D01*
X88272010Y-87837067D01*
X88213124Y-87799461D01*
X88183918Y-87735989D01*
X88193664Y-87666802D01*
X88218922Y-87630312D01*
X89058506Y-86790727D01*
X89058511Y-86790724D01*
X89068714Y-86780520D01*
X89068716Y-86780520D01*
X89180520Y-86668716D01*
X89236278Y-86572138D01*
X89254370Y-86554888D01*
X89269353Y-86534873D01*
X89283411Y-86527196D01*
X89286843Y-86523925D01*
X89300330Y-86517959D01*
X89308810Y-86514796D01*
X89357382Y-86496679D01*
X89427071Y-86491695D01*
X89444048Y-86496679D01*
X89492628Y-86514798D01*
X89492627Y-86514798D01*
X89552155Y-86521199D01*
X89552172Y-86521200D01*
X89850000Y-86521200D01*
X90350000Y-86521200D01*
X90647828Y-86521200D01*
X90647844Y-86521199D01*
X90707372Y-86514798D01*
X90707379Y-86514796D01*
X90842086Y-86464554D01*
X90842093Y-86464550D01*
X90957187Y-86378390D01*
X90957190Y-86378387D01*
X91043350Y-86263293D01*
X91043354Y-86263286D01*
X91093596Y-86128579D01*
X91093598Y-86128572D01*
X91099999Y-86069044D01*
X91100000Y-86069027D01*
X91100000Y-85046200D01*
X90350000Y-85046200D01*
X90350000Y-86521200D01*
X89850000Y-86521200D01*
X89850000Y-84920200D01*
X89869685Y-84853161D01*
X89922489Y-84807406D01*
X89974000Y-84796200D01*
X90100000Y-84796200D01*
X90100000Y-84670200D01*
X90119685Y-84603161D01*
X90172489Y-84557406D01*
X90224000Y-84546200D01*
X91100000Y-84546200D01*
X91100000Y-83624499D01*
X91119685Y-83557460D01*
X91172489Y-83511705D01*
X91223997Y-83500499D01*
X92599902Y-83500499D01*
X92666941Y-83520184D01*
G37*
%TD.AperFunction*%
%TD*%
M02*
