%TF.GenerationSoftware,KiCad,Pcbnew,9.0.7-9.0.7~ubuntu24.04.1*%
%TF.CreationDate,2026-03-17T11:18:53+01:00*%
%TF.ProjectId,dev_pcb,6465765f-7063-4622-9e6b-696361645f70,rev?*%
%TF.SameCoordinates,Original*%
%TF.FileFunction,Copper,L2,Bot*%
%TF.FilePolarity,Positive*%
%FSLAX46Y46*%
G04 Gerber Fmt 4.6, Leading zero omitted, Abs format (unit mm)*
G04 Created by KiCad (PCBNEW 9.0.7-9.0.7~ubuntu24.04.1) date 2026-03-17 11:18:53*
%MOMM*%
%LPD*%
G01*
G04 APERTURE LIST*
%TA.AperFunction,ComponentPad*%
%ADD10C,1.524000*%
%TD*%
%TA.AperFunction,ViaPad*%
%ADD11C,0.600000*%
%TD*%
%TA.AperFunction,Conductor*%
%ADD12C,0.250000*%
%TD*%
%TA.AperFunction,Conductor*%
%ADD13C,0.200000*%
%TD*%
%TA.AperFunction,Conductor*%
%ADD14C,0.600000*%
%TD*%
G04 APERTURE END LIST*
D10*
%TO.P,U2,1,GPIO1_A0_D0*%
%TO.N,Net-(DWM1-IRQ{slash}GPIO8)*%
X92620000Y-90380000D03*
%TO.P,U2,2,GPIO2_A1_D1*%
%TO.N,Net-(DWM1-EXTON)*%
X90080000Y-90380000D03*
%TO.P,U2,3,GPIO3_A2_D2*%
%TO.N,Net-(DWM1-WAKEUP)*%
X87540000Y-90380000D03*
%TO.P,U2,4,GPIO4_A3_D3*%
%TO.N,Net-(DWM1-~{RST})*%
X85000000Y-90380000D03*
%TO.P,U2,5,GPIO5_A4_D4_SDA*%
%TO.N,unconnected-(U2-GPIO5_A4_D4_SDA-Pad5)*%
X82460000Y-90380000D03*
%TO.P,U2,6,GPIO6_A5_D5_SCL*%
%TO.N,unconnected-(U2-GPIO6_A5_D5_SCL-Pad6)*%
X79920000Y-90380000D03*
%TO.P,U2,7,GPIO43_D6_TX*%
%TO.N,unconnected-(U2-GPIO43_D6_TX-Pad7)*%
X77380000Y-90380000D03*
%TO.P,U2,8,GPIO44_D7_RX*%
%TO.N,Net-(DWM1-~{SPICS})*%
X77380000Y-105620000D03*
%TO.P,U2,9,GPIO7_A8_D8_SCK*%
%TO.N,Net-(DWM1-SPICLK)*%
X79920000Y-105620000D03*
%TO.P,U2,10,GPIO8_A9_D9_MISO*%
%TO.N,Net-(DWM1-SPIMISO)*%
X82460000Y-105620000D03*
%TO.P,U2,11,GPIO9_A10_D10_MOSI*%
%TO.N,Net-(DWM1-SPIMOSI)*%
X85000000Y-105620000D03*
%TO.P,U2,12,3V3*%
%TO.N,+3.3V*%
X87540000Y-105620000D03*
%TO.P,U2,13,GND*%
%TO.N,GND*%
X90080000Y-105620000D03*
%TO.P,U2,14,VBUS*%
%TO.N,unconnected-(U2-VBUS-Pad14)*%
X92620000Y-105620000D03*
%TD*%
D11*
%TO.N,GND*%
X98000000Y-88000000D03*
X99500000Y-73000000D03*
%TO.N,Net-(DWM1-SPIMOSI)*%
X93689235Y-81810765D03*
X97500000Y-78000000D03*
%TO.N,Net-(DWM1-SPICLK)*%
X95900000Y-80500000D03*
X97500000Y-80500000D03*
%TO.N,Net-(DWM1-SPIMISO)*%
X95400000Y-82000000D03*
X97500000Y-82000000D03*
%TO.N,Net-(DWM1-WAKEUP)*%
X87500000Y-91500000D03*
X97000000Y-92500000D03*
%TO.N,Net-(DWM1-IRQ{slash}GPIO8)*%
X96750000Y-96750000D03*
X93000000Y-93000000D03*
%TO.N,Net-(DWM1-EXTON)*%
X95000000Y-99000000D03*
X91000000Y-95000000D03*
%TO.N,GND*%
X88000000Y-109000000D03*
X83500000Y-81000000D03*
X95000000Y-78000000D03*
X90000000Y-87000000D03*
X89000000Y-104000000D03*
X83500000Y-80000000D03*
X80000000Y-96000000D03*
X91000000Y-104000000D03*
X86500000Y-81000000D03*
X78500000Y-84000000D03*
X86500000Y-80000000D03*
X85000000Y-80000000D03*
X82500000Y-102500000D03*
X70000000Y-105500000D03*
X85000000Y-81000000D03*
X76500000Y-96500000D03*
%TO.N,Net-(DWM1-EXTON)*%
X76699000Y-72901000D03*
X71500000Y-90000000D03*
%TO.N,Net-(DWM1-SPIMOSI)*%
X90000000Y-99000000D03*
X90000000Y-101000000D03*
%TO.N,Net-(DWM1-SPICLK)*%
X89500000Y-102500000D03*
X86500000Y-102500000D03*
%TO.N,+3.3V*%
X76757000Y-80500000D03*
X75156000Y-80500000D03*
%TO.N,Net-(DWM1-IRQ{slash}GPIO8)*%
X96500000Y-87000000D03*
X92500000Y-87000000D03*
%TO.N,Net-(DWM1-WAKEUP)*%
X72500000Y-90000000D03*
X76601200Y-74101200D03*
%TO.N,Net-(DWM1-~{RST})*%
X73500000Y-90000000D03*
X76501200Y-75501200D03*
%TD*%
D12*
%TO.N,Net-(DWM1-SPIMOSI)*%
X97500000Y-78000000D02*
X93689235Y-81810765D01*
%TO.N,Net-(DWM1-SPICLK)*%
X97500000Y-80500000D02*
X95900000Y-80500000D01*
%TO.N,Net-(DWM1-SPIMISO)*%
X97500000Y-82000000D02*
X95400000Y-82000000D01*
%TO.N,Net-(DWM1-WAKEUP)*%
X97000000Y-92500000D02*
X96000000Y-91500000D01*
X96000000Y-91500000D02*
X87500000Y-91500000D01*
%TO.N,Net-(DWM1-IRQ{slash}GPIO8)*%
X96750000Y-96750000D02*
X93000000Y-93000000D01*
D13*
%TO.N,Net-(DWM1-EXTON)*%
X95000000Y-99000000D02*
X91000000Y-95000000D01*
X76699000Y-72901000D02*
X71500000Y-78100000D01*
X71500000Y-78100000D02*
X71500000Y-90000000D01*
%TO.N,Net-(DWM1-SPIMOSI)*%
X90000000Y-101000000D02*
X90000000Y-99000000D01*
%TO.N,Net-(DWM1-SPICLK)*%
X86500000Y-102500000D02*
X89500000Y-102500000D01*
D14*
%TO.N,+3.3V*%
X75156000Y-80500000D02*
X76757000Y-80500000D01*
D13*
%TO.N,Net-(DWM1-IRQ{slash}GPIO8)*%
X92500000Y-87000000D02*
X96500000Y-87000000D01*
%TO.N,Net-(DWM1-WAKEUP)*%
X76601200Y-74101200D02*
X76398800Y-74101200D01*
X76398800Y-74101200D02*
X72500000Y-78000000D01*
X72500000Y-78000000D02*
X72500000Y-90000000D01*
%TO.N,Net-(DWM1-~{RST})*%
X76501200Y-75501200D02*
X76032350Y-75501200D01*
X73500000Y-78033550D02*
X73500000Y-90000000D01*
X76032350Y-75501200D02*
X73500000Y-78033550D01*
%TD*%
%TA.AperFunction,Conductor*%
%TO.N,GND*%
G36*
X76253039Y-72020185D02*
G01*
X76298794Y-72072989D01*
X76310000Y-72124500D01*
X76310000Y-72131888D01*
X76290315Y-72198927D01*
X76254891Y-72234990D01*
X76188711Y-72279210D01*
X76188707Y-72279213D01*
X76077213Y-72390707D01*
X76077210Y-72390711D01*
X75989609Y-72521814D01*
X75989602Y-72521827D01*
X75929264Y-72667498D01*
X75929261Y-72667508D01*
X75898361Y-72822850D01*
X75865976Y-72884761D01*
X75864425Y-72886339D01*
X71019481Y-77731282D01*
X71019480Y-77731284D01*
X70978788Y-77801765D01*
X70940423Y-77868215D01*
X70899499Y-78020943D01*
X70899499Y-78020945D01*
X70899499Y-78189046D01*
X70899500Y-78189059D01*
X70899500Y-89420234D01*
X70879815Y-89487273D01*
X70878602Y-89489125D01*
X70790609Y-89620814D01*
X70790602Y-89620827D01*
X70730264Y-89766498D01*
X70730261Y-89766510D01*
X70699500Y-89921153D01*
X70699500Y-90078846D01*
X70730261Y-90233489D01*
X70730264Y-90233501D01*
X70790602Y-90379172D01*
X70790609Y-90379185D01*
X70878210Y-90510288D01*
X70878213Y-90510292D01*
X70989707Y-90621786D01*
X70989711Y-90621789D01*
X71120814Y-90709390D01*
X71120827Y-90709397D01*
X71177456Y-90732853D01*
X71266503Y-90769737D01*
X71421153Y-90800499D01*
X71421156Y-90800500D01*
X71421158Y-90800500D01*
X71578844Y-90800500D01*
X71578845Y-90800499D01*
X71733497Y-90769737D01*
X71879179Y-90709394D01*
X71931110Y-90674694D01*
X71997785Y-90653816D01*
X72065165Y-90672300D01*
X72068863Y-90674676D01*
X72120821Y-90709394D01*
X72120823Y-90709395D01*
X72120825Y-90709396D01*
X72177456Y-90732853D01*
X72266503Y-90769737D01*
X72421153Y-90800499D01*
X72421156Y-90800500D01*
X72421158Y-90800500D01*
X72578844Y-90800500D01*
X72578845Y-90800499D01*
X72733497Y-90769737D01*
X72879179Y-90709394D01*
X72931110Y-90674694D01*
X72997785Y-90653816D01*
X73065165Y-90672300D01*
X73068863Y-90674676D01*
X73120821Y-90709394D01*
X73120823Y-90709395D01*
X73120825Y-90709396D01*
X73177456Y-90732853D01*
X73266503Y-90769737D01*
X73421153Y-90800499D01*
X73421156Y-90800500D01*
X73421158Y-90800500D01*
X73578844Y-90800500D01*
X73578845Y-90800499D01*
X73733497Y-90769737D01*
X73879179Y-90709394D01*
X74010289Y-90621789D01*
X74121789Y-90510289D01*
X74209394Y-90379179D01*
X74250210Y-90280639D01*
X76117500Y-90280639D01*
X76117500Y-90479360D01*
X76148587Y-90675637D01*
X76209993Y-90864629D01*
X76209994Y-90864632D01*
X76268735Y-90979915D01*
X76300213Y-91041694D01*
X76417019Y-91202464D01*
X76557536Y-91342981D01*
X76718306Y-91459787D01*
X76805149Y-91504035D01*
X76895367Y-91550005D01*
X76895370Y-91550006D01*
X76984120Y-91578842D01*
X77084364Y-91611413D01*
X77280639Y-91642500D01*
X77280640Y-91642500D01*
X77479360Y-91642500D01*
X77479361Y-91642500D01*
X77675636Y-91611413D01*
X77864632Y-91550005D01*
X78041694Y-91459787D01*
X78202464Y-91342981D01*
X78342981Y-91202464D01*
X78459787Y-91041694D01*
X78539515Y-90885218D01*
X78587490Y-90834423D01*
X78655311Y-90817628D01*
X78721446Y-90840165D01*
X78760484Y-90885218D01*
X78840213Y-91041694D01*
X78957019Y-91202464D01*
X79097536Y-91342981D01*
X79258306Y-91459787D01*
X79345149Y-91504035D01*
X79435367Y-91550005D01*
X79435370Y-91550006D01*
X79524120Y-91578842D01*
X79624364Y-91611413D01*
X79820639Y-91642500D01*
X79820640Y-91642500D01*
X80019360Y-91642500D01*
X80019361Y-91642500D01*
X80215636Y-91611413D01*
X80404632Y-91550005D01*
X80581694Y-91459787D01*
X80742464Y-91342981D01*
X80882981Y-91202464D01*
X80999787Y-91041694D01*
X81079515Y-90885218D01*
X81127490Y-90834423D01*
X81195311Y-90817628D01*
X81261446Y-90840165D01*
X81300484Y-90885218D01*
X81380213Y-91041694D01*
X81497019Y-91202464D01*
X81637536Y-91342981D01*
X81798306Y-91459787D01*
X81885149Y-91504035D01*
X81975367Y-91550005D01*
X81975370Y-91550006D01*
X82064120Y-91578842D01*
X82164364Y-91611413D01*
X82360639Y-91642500D01*
X82360640Y-91642500D01*
X82559360Y-91642500D01*
X82559361Y-91642500D01*
X82755636Y-91611413D01*
X82944632Y-91550005D01*
X83121694Y-91459787D01*
X83282464Y-91342981D01*
X83422981Y-91202464D01*
X83539787Y-91041694D01*
X83619515Y-90885218D01*
X83667490Y-90834423D01*
X83735311Y-90817628D01*
X83801446Y-90840165D01*
X83840484Y-90885218D01*
X83920213Y-91041694D01*
X84037019Y-91202464D01*
X84177536Y-91342981D01*
X84338306Y-91459787D01*
X84425149Y-91504035D01*
X84515367Y-91550005D01*
X84515370Y-91550006D01*
X84604120Y-91578842D01*
X84704364Y-91611413D01*
X84900639Y-91642500D01*
X84900640Y-91642500D01*
X85099360Y-91642500D01*
X85099361Y-91642500D01*
X85295636Y-91611413D01*
X85484632Y-91550005D01*
X85661694Y-91459787D01*
X85822464Y-91342981D01*
X85962981Y-91202464D01*
X86079787Y-91041694D01*
X86159515Y-90885218D01*
X86207490Y-90834423D01*
X86275311Y-90817628D01*
X86341446Y-90840165D01*
X86380484Y-90885218D01*
X86460213Y-91041694D01*
X86577019Y-91202464D01*
X86577021Y-91202466D01*
X86668595Y-91294040D01*
X86702080Y-91355363D01*
X86702533Y-91405906D01*
X86699500Y-91421157D01*
X86699500Y-91578846D01*
X86730261Y-91733489D01*
X86730264Y-91733501D01*
X86790602Y-91879172D01*
X86790609Y-91879185D01*
X86878210Y-92010288D01*
X86878213Y-92010292D01*
X86989707Y-92121786D01*
X86989711Y-92121789D01*
X87120814Y-92209390D01*
X87120827Y-92209397D01*
X87258683Y-92266498D01*
X87266503Y-92269737D01*
X87371418Y-92290606D01*
X87421153Y-92300499D01*
X87421156Y-92300500D01*
X87421158Y-92300500D01*
X87578844Y-92300500D01*
X87578845Y-92300499D01*
X87733497Y-92269737D01*
X87879179Y-92209394D01*
X87973459Y-92146398D01*
X88040136Y-92125520D01*
X88042350Y-92125500D01*
X92459146Y-92125500D01*
X92526185Y-92145185D01*
X92571940Y-92197989D01*
X92581884Y-92267147D01*
X92552859Y-92330703D01*
X92528037Y-92352602D01*
X92489711Y-92378210D01*
X92489707Y-92378213D01*
X92378213Y-92489707D01*
X92378210Y-92489711D01*
X92290609Y-92620814D01*
X92290602Y-92620827D01*
X92230264Y-92766498D01*
X92230261Y-92766510D01*
X92199500Y-92921153D01*
X92199500Y-93078846D01*
X92230261Y-93233489D01*
X92230264Y-93233501D01*
X92290602Y-93379172D01*
X92290609Y-93379185D01*
X92378210Y-93510288D01*
X92378213Y-93510292D01*
X92489707Y-93621786D01*
X92489711Y-93621789D01*
X92620814Y-93709390D01*
X92620827Y-93709397D01*
X92708230Y-93745599D01*
X92766503Y-93769737D01*
X92877716Y-93791858D01*
X92939623Y-93824241D01*
X92941203Y-93825793D01*
X95924205Y-96808795D01*
X95957690Y-96870118D01*
X95958141Y-96872285D01*
X95980261Y-96983489D01*
X95980264Y-96983501D01*
X96040602Y-97129172D01*
X96040609Y-97129185D01*
X96128210Y-97260288D01*
X96128213Y-97260292D01*
X96239707Y-97371786D01*
X96239711Y-97371789D01*
X96370814Y-97459390D01*
X96370827Y-97459397D01*
X96516498Y-97519735D01*
X96516503Y-97519737D01*
X96671153Y-97550499D01*
X96671156Y-97550500D01*
X96671158Y-97550500D01*
X96828844Y-97550500D01*
X96828845Y-97550499D01*
X96983497Y-97519737D01*
X97129179Y-97459394D01*
X97260289Y-97371789D01*
X97371789Y-97260289D01*
X97459394Y-97129179D01*
X97519737Y-96983497D01*
X97550500Y-96828842D01*
X97550500Y-96671158D01*
X97550500Y-96671155D01*
X97550499Y-96671153D01*
X97519738Y-96516510D01*
X97519737Y-96516503D01*
X97519735Y-96516498D01*
X97459397Y-96370827D01*
X97459390Y-96370814D01*
X97371789Y-96239711D01*
X97371786Y-96239707D01*
X97260292Y-96128213D01*
X97260288Y-96128210D01*
X97129185Y-96040609D01*
X97129172Y-96040602D01*
X96983501Y-95980264D01*
X96983489Y-95980261D01*
X96872285Y-95958141D01*
X96810374Y-95925756D01*
X96808795Y-95924205D01*
X93825793Y-92941203D01*
X93792308Y-92879880D01*
X93791887Y-92877864D01*
X93769737Y-92766503D01*
X93745599Y-92708230D01*
X93709397Y-92620827D01*
X93709390Y-92620814D01*
X93621789Y-92489711D01*
X93621786Y-92489707D01*
X93510292Y-92378213D01*
X93510288Y-92378210D01*
X93471963Y-92352602D01*
X93427158Y-92298990D01*
X93418451Y-92229665D01*
X93448605Y-92166637D01*
X93508048Y-92129918D01*
X93540854Y-92125500D01*
X95689548Y-92125500D01*
X95756587Y-92145185D01*
X95777229Y-92161819D01*
X96174205Y-92558795D01*
X96207690Y-92620118D01*
X96208141Y-92622285D01*
X96230261Y-92733489D01*
X96230264Y-92733501D01*
X96290602Y-92879172D01*
X96290609Y-92879185D01*
X96378210Y-93010288D01*
X96378213Y-93010292D01*
X96489707Y-93121786D01*
X96489711Y-93121789D01*
X96620814Y-93209390D01*
X96620827Y-93209397D01*
X96766498Y-93269735D01*
X96766503Y-93269737D01*
X96921153Y-93300499D01*
X96921156Y-93300500D01*
X96921158Y-93300500D01*
X97078844Y-93300500D01*
X97078845Y-93300499D01*
X97233497Y-93269737D01*
X97379179Y-93209394D01*
X97510289Y-93121789D01*
X97621789Y-93010289D01*
X97709394Y-92879179D01*
X97769737Y-92733497D01*
X97800500Y-92578842D01*
X97800500Y-92421158D01*
X97800500Y-92421155D01*
X97800499Y-92421153D01*
X97769738Y-92266510D01*
X97769737Y-92266503D01*
X97754726Y-92230263D01*
X97709397Y-92120827D01*
X97709390Y-92120814D01*
X97621789Y-91989711D01*
X97621786Y-91989707D01*
X97510292Y-91878213D01*
X97510288Y-91878210D01*
X97379185Y-91790609D01*
X97379172Y-91790602D01*
X97233501Y-91730264D01*
X97233489Y-91730261D01*
X97122285Y-91708141D01*
X97060374Y-91675756D01*
X97058795Y-91674205D01*
X96495822Y-91111232D01*
X96485859Y-91101269D01*
X96485858Y-91101267D01*
X96398733Y-91014142D01*
X96347509Y-90979915D01*
X96296286Y-90945688D01*
X96296283Y-90945686D01*
X96296280Y-90945685D01*
X96222603Y-90915168D01*
X96222601Y-90915167D01*
X96215792Y-90912347D01*
X96182452Y-90898537D01*
X96122029Y-90886518D01*
X96117306Y-90885578D01*
X96117304Y-90885578D01*
X96061610Y-90874500D01*
X96061607Y-90874500D01*
X96061606Y-90874500D01*
X93957470Y-90874500D01*
X93890431Y-90854815D01*
X93844676Y-90802011D01*
X93834732Y-90732853D01*
X93839539Y-90712182D01*
X93844053Y-90698287D01*
X93851413Y-90675636D01*
X93882500Y-90479361D01*
X93882500Y-90280639D01*
X93851413Y-90084364D01*
X93790005Y-89895368D01*
X93790005Y-89895367D01*
X93724348Y-89766510D01*
X93699787Y-89718306D01*
X93582981Y-89557536D01*
X93442464Y-89417019D01*
X93281694Y-89300213D01*
X93104632Y-89209994D01*
X93104629Y-89209993D01*
X92915637Y-89148587D01*
X92817498Y-89133043D01*
X92719361Y-89117500D01*
X92520639Y-89117500D01*
X92455214Y-89127862D01*
X92324362Y-89148587D01*
X92135370Y-89209993D01*
X92135367Y-89209994D01*
X91958305Y-89300213D01*
X91797533Y-89417021D01*
X91657021Y-89557533D01*
X91540213Y-89718305D01*
X91460485Y-89874780D01*
X91412510Y-89925576D01*
X91344689Y-89942371D01*
X91278554Y-89919833D01*
X91239515Y-89874780D01*
X91184348Y-89766510D01*
X91159787Y-89718306D01*
X91042981Y-89557536D01*
X90902464Y-89417019D01*
X90741694Y-89300213D01*
X90564632Y-89209994D01*
X90564629Y-89209993D01*
X90375637Y-89148587D01*
X90277498Y-89133043D01*
X90179361Y-89117500D01*
X89980639Y-89117500D01*
X89915214Y-89127862D01*
X89784362Y-89148587D01*
X89595370Y-89209993D01*
X89595367Y-89209994D01*
X89418305Y-89300213D01*
X89257533Y-89417021D01*
X89117021Y-89557533D01*
X89000213Y-89718305D01*
X88920485Y-89874780D01*
X88872510Y-89925576D01*
X88804689Y-89942371D01*
X88738554Y-89919833D01*
X88699515Y-89874780D01*
X88644348Y-89766510D01*
X88619787Y-89718306D01*
X88502981Y-89557536D01*
X88362464Y-89417019D01*
X88201694Y-89300213D01*
X88024632Y-89209994D01*
X88024629Y-89209993D01*
X87835637Y-89148587D01*
X87737498Y-89133043D01*
X87639361Y-89117500D01*
X87440639Y-89117500D01*
X87375214Y-89127862D01*
X87244362Y-89148587D01*
X87055370Y-89209993D01*
X87055367Y-89209994D01*
X86878305Y-89300213D01*
X86717533Y-89417021D01*
X86577021Y-89557533D01*
X86460213Y-89718305D01*
X86380485Y-89874780D01*
X86332510Y-89925576D01*
X86264689Y-89942371D01*
X86198554Y-89919833D01*
X86159515Y-89874780D01*
X86104348Y-89766510D01*
X86079787Y-89718306D01*
X85962981Y-89557536D01*
X85822464Y-89417019D01*
X85661694Y-89300213D01*
X85484632Y-89209994D01*
X85484629Y-89209993D01*
X85295637Y-89148587D01*
X85197498Y-89133043D01*
X85099361Y-89117500D01*
X84900639Y-89117500D01*
X84835214Y-89127862D01*
X84704362Y-89148587D01*
X84515370Y-89209993D01*
X84515367Y-89209994D01*
X84338305Y-89300213D01*
X84177533Y-89417021D01*
X84037021Y-89557533D01*
X83920213Y-89718305D01*
X83840485Y-89874780D01*
X83792510Y-89925576D01*
X83724689Y-89942371D01*
X83658554Y-89919833D01*
X83619515Y-89874780D01*
X83564348Y-89766510D01*
X83539787Y-89718306D01*
X83422981Y-89557536D01*
X83282464Y-89417019D01*
X83121694Y-89300213D01*
X82944632Y-89209994D01*
X82944629Y-89209993D01*
X82755637Y-89148587D01*
X82657498Y-89133043D01*
X82559361Y-89117500D01*
X82360639Y-89117500D01*
X82295214Y-89127862D01*
X82164362Y-89148587D01*
X81975370Y-89209993D01*
X81975367Y-89209994D01*
X81798305Y-89300213D01*
X81637533Y-89417021D01*
X81497021Y-89557533D01*
X81380213Y-89718305D01*
X81300485Y-89874780D01*
X81252510Y-89925576D01*
X81184689Y-89942371D01*
X81118554Y-89919833D01*
X81079515Y-89874780D01*
X81024348Y-89766510D01*
X80999787Y-89718306D01*
X80882981Y-89557536D01*
X80742464Y-89417019D01*
X80581694Y-89300213D01*
X80404632Y-89209994D01*
X80404629Y-89209993D01*
X80215637Y-89148587D01*
X80117498Y-89133043D01*
X80019361Y-89117500D01*
X79820639Y-89117500D01*
X79755214Y-89127862D01*
X79624362Y-89148587D01*
X79435370Y-89209993D01*
X79435367Y-89209994D01*
X79258305Y-89300213D01*
X79097533Y-89417021D01*
X78957021Y-89557533D01*
X78840213Y-89718305D01*
X78760485Y-89874780D01*
X78712510Y-89925576D01*
X78644689Y-89942371D01*
X78578554Y-89919833D01*
X78539515Y-89874780D01*
X78484348Y-89766510D01*
X78459787Y-89718306D01*
X78342981Y-89557536D01*
X78202464Y-89417019D01*
X78041694Y-89300213D01*
X77864632Y-89209994D01*
X77864629Y-89209993D01*
X77675637Y-89148587D01*
X77577498Y-89133043D01*
X77479361Y-89117500D01*
X77280639Y-89117500D01*
X77215214Y-89127862D01*
X77084362Y-89148587D01*
X76895370Y-89209993D01*
X76895367Y-89209994D01*
X76718305Y-89300213D01*
X76557533Y-89417021D01*
X76417021Y-89557533D01*
X76300213Y-89718305D01*
X76209994Y-89895367D01*
X76209993Y-89895370D01*
X76148587Y-90084362D01*
X76117500Y-90280639D01*
X74250210Y-90280639D01*
X74269737Y-90233497D01*
X74300500Y-90078842D01*
X74300500Y-89921158D01*
X74300500Y-89921155D01*
X74300499Y-89921153D01*
X74269738Y-89766510D01*
X74269737Y-89766503D01*
X74269735Y-89766498D01*
X74209397Y-89620827D01*
X74209390Y-89620814D01*
X74121398Y-89489125D01*
X74100520Y-89422447D01*
X74100500Y-89420234D01*
X74100500Y-86921153D01*
X91699500Y-86921153D01*
X91699500Y-87078846D01*
X91730261Y-87233489D01*
X91730264Y-87233501D01*
X91790602Y-87379172D01*
X91790609Y-87379185D01*
X91878210Y-87510288D01*
X91878213Y-87510292D01*
X91989707Y-87621786D01*
X91989711Y-87621789D01*
X92120814Y-87709390D01*
X92120827Y-87709397D01*
X92266498Y-87769735D01*
X92266503Y-87769737D01*
X92421153Y-87800499D01*
X92421156Y-87800500D01*
X92421158Y-87800500D01*
X92578844Y-87800500D01*
X92578845Y-87800499D01*
X92733497Y-87769737D01*
X92879179Y-87709394D01*
X92879185Y-87709390D01*
X93010875Y-87621398D01*
X93077553Y-87600520D01*
X93079766Y-87600500D01*
X95920234Y-87600500D01*
X95987273Y-87620185D01*
X95989125Y-87621398D01*
X96120814Y-87709390D01*
X96120827Y-87709397D01*
X96266498Y-87769735D01*
X96266503Y-87769737D01*
X96421153Y-87800499D01*
X96421156Y-87800500D01*
X96421158Y-87800500D01*
X96578844Y-87800500D01*
X96578845Y-87800499D01*
X96733497Y-87769737D01*
X96879179Y-87709394D01*
X97010289Y-87621789D01*
X97121789Y-87510289D01*
X97209394Y-87379179D01*
X97269737Y-87233497D01*
X97300500Y-87078842D01*
X97300500Y-86921158D01*
X97300500Y-86921155D01*
X97300499Y-86921153D01*
X97269738Y-86766510D01*
X97269737Y-86766503D01*
X97269735Y-86766498D01*
X97209397Y-86620827D01*
X97209390Y-86620814D01*
X97121789Y-86489711D01*
X97121786Y-86489707D01*
X97010292Y-86378213D01*
X97010288Y-86378210D01*
X96879185Y-86290609D01*
X96879172Y-86290602D01*
X96733501Y-86230264D01*
X96733489Y-86230261D01*
X96578845Y-86199500D01*
X96578842Y-86199500D01*
X96421158Y-86199500D01*
X96421155Y-86199500D01*
X96266510Y-86230261D01*
X96266498Y-86230264D01*
X96120827Y-86290602D01*
X96120814Y-86290609D01*
X95989125Y-86378602D01*
X95922447Y-86399480D01*
X95920234Y-86399500D01*
X93079766Y-86399500D01*
X93012727Y-86379815D01*
X93010875Y-86378602D01*
X92879185Y-86290609D01*
X92879172Y-86290602D01*
X92733501Y-86230264D01*
X92733489Y-86230261D01*
X92578845Y-86199500D01*
X92578842Y-86199500D01*
X92421158Y-86199500D01*
X92421155Y-86199500D01*
X92266510Y-86230261D01*
X92266498Y-86230264D01*
X92120827Y-86290602D01*
X92120814Y-86290609D01*
X91989711Y-86378210D01*
X91989707Y-86378213D01*
X91878213Y-86489707D01*
X91878210Y-86489711D01*
X91790609Y-86620814D01*
X91790602Y-86620827D01*
X91730264Y-86766498D01*
X91730261Y-86766510D01*
X91699500Y-86921153D01*
X74100500Y-86921153D01*
X74100500Y-81731918D01*
X92888735Y-81731918D01*
X92888735Y-81889611D01*
X92919496Y-82044254D01*
X92919499Y-82044266D01*
X92979837Y-82189937D01*
X92979844Y-82189950D01*
X93067445Y-82321053D01*
X93067448Y-82321057D01*
X93178942Y-82432551D01*
X93178946Y-82432554D01*
X93310049Y-82520155D01*
X93310062Y-82520162D01*
X93455733Y-82580500D01*
X93455738Y-82580502D01*
X93610388Y-82611264D01*
X93610391Y-82611265D01*
X93610393Y-82611265D01*
X93768079Y-82611265D01*
X93768080Y-82611264D01*
X93922732Y-82580502D01*
X94068414Y-82520159D01*
X94199524Y-82432554D01*
X94311024Y-82321054D01*
X94388141Y-82205641D01*
X94402014Y-82184879D01*
X94403415Y-82185815D01*
X94446715Y-82141728D01*
X94514851Y-82126261D01*
X94580533Y-82150087D01*
X94622907Y-82205641D01*
X94628737Y-82225827D01*
X94630261Y-82233492D01*
X94630264Y-82233501D01*
X94690602Y-82379172D01*
X94690609Y-82379185D01*
X94778210Y-82510288D01*
X94778213Y-82510292D01*
X94889707Y-82621786D01*
X94889711Y-82621789D01*
X95020814Y-82709390D01*
X95020827Y-82709397D01*
X95166498Y-82769735D01*
X95166503Y-82769737D01*
X95321153Y-82800499D01*
X95321156Y-82800500D01*
X95321158Y-82800500D01*
X95478844Y-82800500D01*
X95478845Y-82800499D01*
X95633497Y-82769737D01*
X95779179Y-82709394D01*
X95873459Y-82646398D01*
X95940136Y-82625520D01*
X95942350Y-82625500D01*
X96957650Y-82625500D01*
X97024689Y-82645185D01*
X97026541Y-82646398D01*
X97120821Y-82709394D01*
X97120823Y-82709395D01*
X97120827Y-82709397D01*
X97266498Y-82769735D01*
X97266503Y-82769737D01*
X97421153Y-82800499D01*
X97421156Y-82800500D01*
X97421158Y-82800500D01*
X97578844Y-82800500D01*
X97578845Y-82800499D01*
X97733497Y-82769737D01*
X97879179Y-82709394D01*
X98010289Y-82621789D01*
X98121789Y-82510289D01*
X98209394Y-82379179D01*
X98269737Y-82233497D01*
X98300500Y-82078842D01*
X98300500Y-81921158D01*
X98300500Y-81921155D01*
X98300499Y-81921153D01*
X98269738Y-81766510D01*
X98269737Y-81766503D01*
X98255412Y-81731918D01*
X98209397Y-81620827D01*
X98209390Y-81620814D01*
X98121789Y-81489711D01*
X98121786Y-81489707D01*
X98010292Y-81378213D01*
X98010284Y-81378207D01*
X97972712Y-81353102D01*
X97927906Y-81299490D01*
X97919199Y-81230165D01*
X97949353Y-81167138D01*
X97972712Y-81146898D01*
X98004735Y-81125500D01*
X98010289Y-81121789D01*
X98121789Y-81010289D01*
X98209394Y-80879179D01*
X98269737Y-80733497D01*
X98300500Y-80578842D01*
X98300500Y-80421158D01*
X98300500Y-80421155D01*
X98300499Y-80421153D01*
X98269738Y-80266510D01*
X98269737Y-80266503D01*
X98269735Y-80266498D01*
X98209397Y-80120827D01*
X98209390Y-80120814D01*
X98121789Y-79989711D01*
X98121786Y-79989707D01*
X98010292Y-79878213D01*
X98010288Y-79878210D01*
X97879185Y-79790609D01*
X97879172Y-79790602D01*
X97733501Y-79730264D01*
X97733489Y-79730261D01*
X97578845Y-79699500D01*
X97578842Y-79699500D01*
X97421158Y-79699500D01*
X97421155Y-79699500D01*
X97266510Y-79730261D01*
X97266498Y-79730264D01*
X97120827Y-79790602D01*
X97120815Y-79790609D01*
X97026541Y-79853602D01*
X97008494Y-79859252D01*
X96992585Y-79869477D01*
X96961625Y-79873928D01*
X96959864Y-79874480D01*
X96957650Y-79874500D01*
X96809453Y-79874500D01*
X96742414Y-79854815D01*
X96696659Y-79802011D01*
X96686715Y-79732853D01*
X96715740Y-79669297D01*
X96721772Y-79662819D01*
X96856656Y-79527934D01*
X97558798Y-78825791D01*
X97620119Y-78792308D01*
X97622114Y-78791892D01*
X97733497Y-78769737D01*
X97879179Y-78709394D01*
X98010289Y-78621789D01*
X98121789Y-78510289D01*
X98209394Y-78379179D01*
X98269737Y-78233497D01*
X98300500Y-78078842D01*
X98300500Y-77921158D01*
X98300500Y-77921155D01*
X98300499Y-77921153D01*
X98269737Y-77766503D01*
X98269735Y-77766498D01*
X98209397Y-77620827D01*
X98209390Y-77620814D01*
X98121789Y-77489711D01*
X98121786Y-77489707D01*
X98010292Y-77378213D01*
X98010288Y-77378210D01*
X97879185Y-77290609D01*
X97879172Y-77290602D01*
X97733501Y-77230264D01*
X97733489Y-77230261D01*
X97578845Y-77199500D01*
X97578842Y-77199500D01*
X97421158Y-77199500D01*
X97421155Y-77199500D01*
X97266510Y-77230261D01*
X97266498Y-77230264D01*
X97120827Y-77290602D01*
X97120814Y-77290609D01*
X96989711Y-77378210D01*
X96989707Y-77378213D01*
X96878213Y-77489707D01*
X96878210Y-77489711D01*
X96790609Y-77620814D01*
X96790602Y-77620827D01*
X96730264Y-77766498D01*
X96730261Y-77766508D01*
X96708141Y-77877713D01*
X96675756Y-77939624D01*
X96674205Y-77941202D01*
X93630438Y-80984970D01*
X93569115Y-81018455D01*
X93566949Y-81018906D01*
X93455743Y-81041026D01*
X93455733Y-81041029D01*
X93310062Y-81101367D01*
X93310049Y-81101374D01*
X93178946Y-81188975D01*
X93178942Y-81188978D01*
X93067448Y-81300472D01*
X93067445Y-81300476D01*
X92979844Y-81431579D01*
X92979837Y-81431592D01*
X92919499Y-81577263D01*
X92919496Y-81577275D01*
X92888735Y-81731918D01*
X74100500Y-81731918D01*
X74100500Y-80421153D01*
X74355500Y-80421153D01*
X74355500Y-80578846D01*
X74386261Y-80733489D01*
X74386264Y-80733501D01*
X74446602Y-80879172D01*
X74446609Y-80879185D01*
X74534210Y-81010288D01*
X74534213Y-81010292D01*
X74645707Y-81121786D01*
X74645711Y-81121789D01*
X74776814Y-81209390D01*
X74776827Y-81209397D01*
X74874853Y-81250000D01*
X74922503Y-81269737D01*
X75077017Y-81300472D01*
X75077153Y-81300499D01*
X75077156Y-81300500D01*
X75077158Y-81300500D01*
X76835844Y-81300500D01*
X76835845Y-81300499D01*
X76990497Y-81269737D01*
X77136179Y-81209394D01*
X77267289Y-81121789D01*
X77378789Y-81010289D01*
X77466394Y-80879179D01*
X77526737Y-80733497D01*
X77557500Y-80578842D01*
X77557500Y-80421158D01*
X77557500Y-80421155D01*
X77557499Y-80421153D01*
X77526738Y-80266510D01*
X77526737Y-80266503D01*
X77526735Y-80266498D01*
X77466397Y-80120827D01*
X77466390Y-80120814D01*
X77378789Y-79989711D01*
X77378786Y-79989707D01*
X77267292Y-79878213D01*
X77267288Y-79878210D01*
X77136185Y-79790609D01*
X77136172Y-79790602D01*
X76990501Y-79730264D01*
X76990489Y-79730261D01*
X76835845Y-79699500D01*
X76835842Y-79699500D01*
X75077158Y-79699500D01*
X75077155Y-79699500D01*
X74922510Y-79730261D01*
X74922498Y-79730264D01*
X74776827Y-79790602D01*
X74776814Y-79790609D01*
X74645711Y-79878210D01*
X74645707Y-79878213D01*
X74534213Y-79989707D01*
X74534210Y-79989711D01*
X74446609Y-80120814D01*
X74446602Y-80120827D01*
X74386264Y-80266498D01*
X74386261Y-80266510D01*
X74355500Y-80421153D01*
X74100500Y-80421153D01*
X74100500Y-78333647D01*
X74120185Y-78266608D01*
X74136819Y-78245966D01*
X75092183Y-77290602D01*
X76098912Y-76283872D01*
X76160233Y-76250389D01*
X76229925Y-76255373D01*
X76234009Y-76256980D01*
X76267703Y-76270937D01*
X76422353Y-76301699D01*
X76422356Y-76301700D01*
X76422358Y-76301700D01*
X76580044Y-76301700D01*
X76580045Y-76301699D01*
X76734697Y-76270937D01*
X76880379Y-76210594D01*
X77011489Y-76122989D01*
X77122989Y-76011489D01*
X77210594Y-75880379D01*
X77270937Y-75734697D01*
X77301700Y-75580042D01*
X77301700Y-75422358D01*
X77301700Y-75422355D01*
X77301699Y-75422353D01*
X77270938Y-75267710D01*
X77270937Y-75267703D01*
X77270935Y-75267698D01*
X77210597Y-75122027D01*
X77210590Y-75122014D01*
X77122989Y-74990911D01*
X77122986Y-74990907D01*
X77064615Y-74932536D01*
X77031130Y-74871213D01*
X77036114Y-74801521D01*
X77077986Y-74745588D01*
X77083378Y-74741771D01*
X77111489Y-74722989D01*
X77222989Y-74611489D01*
X77310594Y-74480379D01*
X77370937Y-74334697D01*
X77401700Y-74180042D01*
X77401700Y-74022358D01*
X77401700Y-74022355D01*
X77401699Y-74022353D01*
X77370938Y-73867710D01*
X77370937Y-73867703D01*
X77370935Y-73867698D01*
X77310597Y-73722027D01*
X77310590Y-73722014D01*
X77246753Y-73626476D01*
X77225875Y-73559799D01*
X77244359Y-73492419D01*
X77262170Y-73469907D01*
X77320789Y-73411289D01*
X77408394Y-73280179D01*
X77468737Y-73134497D01*
X77499500Y-72979842D01*
X77499500Y-72822158D01*
X77499500Y-72822155D01*
X77499499Y-72822153D01*
X77468738Y-72667510D01*
X77468738Y-72667508D01*
X77468737Y-72667503D01*
X77468735Y-72667498D01*
X77408397Y-72521827D01*
X77408390Y-72521814D01*
X77320789Y-72390711D01*
X77316924Y-72386001D01*
X77318121Y-72385018D01*
X77288275Y-72330358D01*
X77293259Y-72260666D01*
X77335131Y-72204733D01*
X77400595Y-72180316D01*
X77409441Y-72180000D01*
X94090000Y-72180000D01*
X94090000Y-72124500D01*
X94109685Y-72057461D01*
X94162489Y-72011706D01*
X94214000Y-72000500D01*
X100375500Y-72000500D01*
X100442539Y-72020185D01*
X100488294Y-72072989D01*
X100499500Y-72124500D01*
X100499500Y-109375500D01*
X100479815Y-109442539D01*
X100427011Y-109488294D01*
X100375500Y-109499500D01*
X68624500Y-109499500D01*
X68557461Y-109479815D01*
X68511706Y-109427011D01*
X68500500Y-109375500D01*
X68500500Y-105520639D01*
X76117500Y-105520639D01*
X76117500Y-105719360D01*
X76148587Y-105915637D01*
X76209993Y-106104629D01*
X76209994Y-106104632D01*
X76300074Y-106281422D01*
X76300213Y-106281694D01*
X76417019Y-106442464D01*
X76557536Y-106582981D01*
X76718306Y-106699787D01*
X76805149Y-106744035D01*
X76895367Y-106790005D01*
X76895370Y-106790006D01*
X76989866Y-106820709D01*
X77084364Y-106851413D01*
X77280639Y-106882500D01*
X77280640Y-106882500D01*
X77479360Y-106882500D01*
X77479361Y-106882500D01*
X77675636Y-106851413D01*
X77864632Y-106790005D01*
X78041694Y-106699787D01*
X78202464Y-106582981D01*
X78342981Y-106442464D01*
X78459787Y-106281694D01*
X78539515Y-106125218D01*
X78587490Y-106074423D01*
X78655311Y-106057628D01*
X78721446Y-106080165D01*
X78760484Y-106125218D01*
X78840213Y-106281694D01*
X78957019Y-106442464D01*
X79097536Y-106582981D01*
X79258306Y-106699787D01*
X79345149Y-106744035D01*
X79435367Y-106790005D01*
X79435370Y-106790006D01*
X79529866Y-106820709D01*
X79624364Y-106851413D01*
X79820639Y-106882500D01*
X79820640Y-106882500D01*
X80019360Y-106882500D01*
X80019361Y-106882500D01*
X80215636Y-106851413D01*
X80404632Y-106790005D01*
X80581694Y-106699787D01*
X80742464Y-106582981D01*
X80882981Y-106442464D01*
X80999787Y-106281694D01*
X81079515Y-106125218D01*
X81127490Y-106074423D01*
X81195311Y-106057628D01*
X81261446Y-106080165D01*
X81300484Y-106125218D01*
X81380213Y-106281694D01*
X81497019Y-106442464D01*
X81637536Y-106582981D01*
X81798306Y-106699787D01*
X81885149Y-106744035D01*
X81975367Y-106790005D01*
X81975370Y-106790006D01*
X82069866Y-106820709D01*
X82164364Y-106851413D01*
X82360639Y-106882500D01*
X82360640Y-106882500D01*
X82559360Y-106882500D01*
X82559361Y-106882500D01*
X82755636Y-106851413D01*
X82944632Y-106790005D01*
X83121694Y-106699787D01*
X83282464Y-106582981D01*
X83422981Y-106442464D01*
X83539787Y-106281694D01*
X83619515Y-106125218D01*
X83667490Y-106074423D01*
X83735311Y-106057628D01*
X83801446Y-106080165D01*
X83840484Y-106125218D01*
X83920213Y-106281694D01*
X84037019Y-106442464D01*
X84177536Y-106582981D01*
X84338306Y-106699787D01*
X84425149Y-106744035D01*
X84515367Y-106790005D01*
X84515370Y-106790006D01*
X84609866Y-106820709D01*
X84704364Y-106851413D01*
X84900639Y-106882500D01*
X84900640Y-106882500D01*
X85099360Y-106882500D01*
X85099361Y-106882500D01*
X85295636Y-106851413D01*
X85484632Y-106790005D01*
X85661694Y-106699787D01*
X85822464Y-106582981D01*
X85962981Y-106442464D01*
X86079787Y-106281694D01*
X86159515Y-106125218D01*
X86207490Y-106074423D01*
X86275311Y-106057628D01*
X86341446Y-106080165D01*
X86380484Y-106125218D01*
X86460213Y-106281694D01*
X86577019Y-106442464D01*
X86717536Y-106582981D01*
X86878306Y-106699787D01*
X86965149Y-106744035D01*
X87055367Y-106790005D01*
X87055370Y-106790006D01*
X87149866Y-106820709D01*
X87244364Y-106851413D01*
X87440639Y-106882500D01*
X87440640Y-106882500D01*
X87639360Y-106882500D01*
X87639361Y-106882500D01*
X87835636Y-106851413D01*
X88024632Y-106790005D01*
X88201694Y-106699787D01*
X88362464Y-106582981D01*
X88502981Y-106442464D01*
X88619787Y-106281694D01*
X88699796Y-106124667D01*
X88747769Y-106073872D01*
X88815590Y-106057077D01*
X88881725Y-106079614D01*
X88920765Y-106124668D01*
X89000641Y-106281432D01*
X89027730Y-106318715D01*
X89642352Y-105704093D01*
X89665792Y-105791571D01*
X89724311Y-105892930D01*
X89807070Y-105975689D01*
X89908429Y-106034208D01*
X89995905Y-106057647D01*
X89381283Y-106672268D01*
X89381283Y-106672269D01*
X89418567Y-106699358D01*
X89595562Y-106789542D01*
X89784477Y-106850924D01*
X89980679Y-106882000D01*
X90179321Y-106882000D01*
X90375520Y-106850924D01*
X90375523Y-106850924D01*
X90564437Y-106789542D01*
X90741425Y-106699362D01*
X90778716Y-106672268D01*
X90164095Y-106057647D01*
X90251571Y-106034208D01*
X90352930Y-105975689D01*
X90435689Y-105892930D01*
X90494208Y-105791571D01*
X90517647Y-105704094D01*
X91132268Y-106318715D01*
X91159364Y-106281422D01*
X91239234Y-106124669D01*
X91287208Y-106073872D01*
X91355029Y-106057077D01*
X91421164Y-106079614D01*
X91460203Y-106124667D01*
X91540213Y-106281694D01*
X91657019Y-106442464D01*
X91797536Y-106582981D01*
X91958306Y-106699787D01*
X92045149Y-106744035D01*
X92135367Y-106790005D01*
X92135370Y-106790006D01*
X92229866Y-106820709D01*
X92324364Y-106851413D01*
X92520639Y-106882500D01*
X92520640Y-106882500D01*
X92719360Y-106882500D01*
X92719361Y-106882500D01*
X92915636Y-106851413D01*
X93104632Y-106790005D01*
X93281694Y-106699787D01*
X93442464Y-106582981D01*
X93582981Y-106442464D01*
X93699787Y-106281694D01*
X93790005Y-106104632D01*
X93851413Y-105915636D01*
X93882500Y-105719361D01*
X93882500Y-105520639D01*
X93851413Y-105324364D01*
X93790005Y-105135368D01*
X93790005Y-105135367D01*
X93744035Y-105045149D01*
X93699787Y-104958306D01*
X93582981Y-104797536D01*
X93442464Y-104657019D01*
X93281694Y-104540213D01*
X93104632Y-104449994D01*
X93104629Y-104449993D01*
X92915637Y-104388587D01*
X92817498Y-104373043D01*
X92719361Y-104357500D01*
X92520639Y-104357500D01*
X92455214Y-104367862D01*
X92324362Y-104388587D01*
X92135370Y-104449993D01*
X92135367Y-104449994D01*
X91958305Y-104540213D01*
X91797533Y-104657021D01*
X91657021Y-104797533D01*
X91540213Y-104958305D01*
X91460204Y-105115331D01*
X91412229Y-105166127D01*
X91344408Y-105182922D01*
X91278273Y-105160384D01*
X91239234Y-105115331D01*
X91159358Y-104958567D01*
X91132268Y-104921283D01*
X90517647Y-105535904D01*
X90494208Y-105448429D01*
X90435689Y-105347070D01*
X90352930Y-105264311D01*
X90251571Y-105205792D01*
X90164094Y-105182352D01*
X90778716Y-104567731D01*
X90778715Y-104567730D01*
X90741432Y-104540641D01*
X90564437Y-104450457D01*
X90375522Y-104389075D01*
X90179321Y-104358000D01*
X89980679Y-104358000D01*
X89784479Y-104389075D01*
X89784476Y-104389075D01*
X89595562Y-104450457D01*
X89418564Y-104540643D01*
X89381283Y-104567729D01*
X89381282Y-104567730D01*
X89995906Y-105182352D01*
X89908429Y-105205792D01*
X89807070Y-105264311D01*
X89724311Y-105347070D01*
X89665792Y-105448429D01*
X89642352Y-105535905D01*
X89027730Y-104921282D01*
X89027729Y-104921283D01*
X89000641Y-104958566D01*
X88920764Y-105115332D01*
X88872790Y-105166127D01*
X88804969Y-105182922D01*
X88738834Y-105160384D01*
X88699796Y-105115332D01*
X88619787Y-104958306D01*
X88502981Y-104797536D01*
X88362464Y-104657019D01*
X88201694Y-104540213D01*
X88024632Y-104449994D01*
X88024629Y-104449993D01*
X87835637Y-104388587D01*
X87737498Y-104373043D01*
X87639361Y-104357500D01*
X87440639Y-104357500D01*
X87375214Y-104367862D01*
X87244362Y-104388587D01*
X87055370Y-104449993D01*
X87055367Y-104449994D01*
X86878305Y-104540213D01*
X86717533Y-104657021D01*
X86577021Y-104797533D01*
X86460213Y-104958305D01*
X86380485Y-105114780D01*
X86332510Y-105165576D01*
X86264689Y-105182371D01*
X86198554Y-105159833D01*
X86159515Y-105114780D01*
X86140179Y-105076832D01*
X86079787Y-104958306D01*
X85962981Y-104797536D01*
X85822464Y-104657019D01*
X85661694Y-104540213D01*
X85484632Y-104449994D01*
X85484629Y-104449993D01*
X85295637Y-104388587D01*
X85197498Y-104373043D01*
X85099361Y-104357500D01*
X84900639Y-104357500D01*
X84835214Y-104367862D01*
X84704362Y-104388587D01*
X84515370Y-104449993D01*
X84515367Y-104449994D01*
X84338305Y-104540213D01*
X84177533Y-104657021D01*
X84037021Y-104797533D01*
X83920213Y-104958305D01*
X83840485Y-105114780D01*
X83792510Y-105165576D01*
X83724689Y-105182371D01*
X83658554Y-105159833D01*
X83619515Y-105114780D01*
X83600179Y-105076832D01*
X83539787Y-104958306D01*
X83422981Y-104797536D01*
X83282464Y-104657019D01*
X83121694Y-104540213D01*
X82944632Y-104449994D01*
X82944629Y-104449993D01*
X82755637Y-104388587D01*
X82657498Y-104373043D01*
X82559361Y-104357500D01*
X82360639Y-104357500D01*
X82295214Y-104367862D01*
X82164362Y-104388587D01*
X81975370Y-104449993D01*
X81975367Y-104449994D01*
X81798305Y-104540213D01*
X81637533Y-104657021D01*
X81497021Y-104797533D01*
X81380213Y-104958305D01*
X81300485Y-105114780D01*
X81252510Y-105165576D01*
X81184689Y-105182371D01*
X81118554Y-105159833D01*
X81079515Y-105114780D01*
X81060179Y-105076832D01*
X80999787Y-104958306D01*
X80882981Y-104797536D01*
X80742464Y-104657019D01*
X80581694Y-104540213D01*
X80404632Y-104449994D01*
X80404629Y-104449993D01*
X80215637Y-104388587D01*
X80117498Y-104373043D01*
X80019361Y-104357500D01*
X79820639Y-104357500D01*
X79755214Y-104367862D01*
X79624362Y-104388587D01*
X79435370Y-104449993D01*
X79435367Y-104449994D01*
X79258305Y-104540213D01*
X79097533Y-104657021D01*
X78957021Y-104797533D01*
X78840213Y-104958305D01*
X78760485Y-105114780D01*
X78712510Y-105165576D01*
X78644689Y-105182371D01*
X78578554Y-105159833D01*
X78539515Y-105114780D01*
X78520179Y-105076832D01*
X78459787Y-104958306D01*
X78342981Y-104797536D01*
X78202464Y-104657019D01*
X78041694Y-104540213D01*
X77864632Y-104449994D01*
X77864629Y-104449993D01*
X77675637Y-104388587D01*
X77577498Y-104373043D01*
X77479361Y-104357500D01*
X77280639Y-104357500D01*
X77215214Y-104367862D01*
X77084362Y-104388587D01*
X76895370Y-104449993D01*
X76895367Y-104449994D01*
X76718305Y-104540213D01*
X76557533Y-104657021D01*
X76417021Y-104797533D01*
X76300213Y-104958305D01*
X76209994Y-105135367D01*
X76209993Y-105135370D01*
X76148587Y-105324362D01*
X76117500Y-105520639D01*
X68500500Y-105520639D01*
X68500500Y-102421153D01*
X85699500Y-102421153D01*
X85699500Y-102578846D01*
X85730261Y-102733489D01*
X85730264Y-102733501D01*
X85790602Y-102879172D01*
X85790609Y-102879185D01*
X85878210Y-103010288D01*
X85878213Y-103010292D01*
X85989707Y-103121786D01*
X85989711Y-103121789D01*
X86120814Y-103209390D01*
X86120827Y-103209397D01*
X86266498Y-103269735D01*
X86266503Y-103269737D01*
X86421153Y-103300499D01*
X86421156Y-103300500D01*
X86421158Y-103300500D01*
X86578844Y-103300500D01*
X86578845Y-103300499D01*
X86733497Y-103269737D01*
X86879179Y-103209394D01*
X86879185Y-103209390D01*
X87010875Y-103121398D01*
X87077553Y-103100520D01*
X87079766Y-103100500D01*
X88920234Y-103100500D01*
X88987273Y-103120185D01*
X88989125Y-103121398D01*
X89120814Y-103209390D01*
X89120827Y-103209397D01*
X89266498Y-103269735D01*
X89266503Y-103269737D01*
X89421153Y-103300499D01*
X89421156Y-103300500D01*
X89421158Y-103300500D01*
X89578844Y-103300500D01*
X89578845Y-103300499D01*
X89733497Y-103269737D01*
X89879179Y-103209394D01*
X90010289Y-103121789D01*
X90121789Y-103010289D01*
X90209394Y-102879179D01*
X90269737Y-102733497D01*
X90300500Y-102578842D01*
X90300500Y-102421158D01*
X90300500Y-102421155D01*
X90300499Y-102421153D01*
X90269738Y-102266510D01*
X90269737Y-102266503D01*
X90269735Y-102266498D01*
X90209397Y-102120827D01*
X90209390Y-102120814D01*
X90121789Y-101989711D01*
X90121786Y-101989707D01*
X90120885Y-101988806D01*
X90120563Y-101988217D01*
X90117924Y-101985001D01*
X90118533Y-101984500D01*
X90087400Y-101927483D01*
X90092384Y-101857791D01*
X90134256Y-101801858D01*
X90184372Y-101779508D01*
X90233497Y-101769737D01*
X90379179Y-101709394D01*
X90510289Y-101621789D01*
X90621789Y-101510289D01*
X90709394Y-101379179D01*
X90769737Y-101233497D01*
X90800500Y-101078842D01*
X90800500Y-100921158D01*
X90800500Y-100921155D01*
X90800499Y-100921153D01*
X90769738Y-100766510D01*
X90769737Y-100766503D01*
X90769735Y-100766498D01*
X90709397Y-100620827D01*
X90709390Y-100620814D01*
X90621398Y-100489125D01*
X90600520Y-100422447D01*
X90600500Y-100420234D01*
X90600500Y-99579765D01*
X90620185Y-99512726D01*
X90621398Y-99510874D01*
X90709390Y-99379185D01*
X90709390Y-99379184D01*
X90709394Y-99379179D01*
X90769737Y-99233497D01*
X90800500Y-99078842D01*
X90800500Y-98921158D01*
X90800500Y-98921155D01*
X90800499Y-98921153D01*
X90769738Y-98766510D01*
X90769737Y-98766503D01*
X90769735Y-98766498D01*
X90709397Y-98620827D01*
X90709390Y-98620814D01*
X90621789Y-98489711D01*
X90621786Y-98489707D01*
X90510292Y-98378213D01*
X90510288Y-98378210D01*
X90379185Y-98290609D01*
X90379172Y-98290602D01*
X90233501Y-98230264D01*
X90233489Y-98230261D01*
X90078845Y-98199500D01*
X90078842Y-98199500D01*
X89921158Y-98199500D01*
X89921155Y-98199500D01*
X89766510Y-98230261D01*
X89766498Y-98230264D01*
X89620827Y-98290602D01*
X89620814Y-98290609D01*
X89489711Y-98378210D01*
X89489707Y-98378213D01*
X89378213Y-98489707D01*
X89378210Y-98489711D01*
X89290609Y-98620814D01*
X89290602Y-98620827D01*
X89230264Y-98766498D01*
X89230261Y-98766510D01*
X89199500Y-98921153D01*
X89199500Y-99078846D01*
X89230261Y-99233489D01*
X89230264Y-99233501D01*
X89290602Y-99379172D01*
X89290609Y-99379185D01*
X89378602Y-99510874D01*
X89399480Y-99577551D01*
X89399500Y-99579765D01*
X89399500Y-100420234D01*
X89379815Y-100487273D01*
X89378602Y-100489125D01*
X89290609Y-100620814D01*
X89290602Y-100620827D01*
X89230264Y-100766498D01*
X89230261Y-100766510D01*
X89199500Y-100921153D01*
X89199500Y-101078846D01*
X89230261Y-101233489D01*
X89230264Y-101233501D01*
X89290602Y-101379172D01*
X89290609Y-101379185D01*
X89378210Y-101510288D01*
X89378213Y-101510292D01*
X89379114Y-101511193D01*
X89379435Y-101511780D01*
X89382076Y-101514999D01*
X89381465Y-101515499D01*
X89412599Y-101572516D01*
X89407615Y-101642208D01*
X89365743Y-101698141D01*
X89315626Y-101720491D01*
X89266507Y-101730261D01*
X89266498Y-101730264D01*
X89120827Y-101790602D01*
X89120814Y-101790609D01*
X88989125Y-101878602D01*
X88922447Y-101899480D01*
X88920234Y-101899500D01*
X87079766Y-101899500D01*
X87012727Y-101879815D01*
X87010875Y-101878602D01*
X86879185Y-101790609D01*
X86879172Y-101790602D01*
X86733501Y-101730264D01*
X86733489Y-101730261D01*
X86578845Y-101699500D01*
X86578842Y-101699500D01*
X86421158Y-101699500D01*
X86421155Y-101699500D01*
X86266510Y-101730261D01*
X86266498Y-101730264D01*
X86120827Y-101790602D01*
X86120814Y-101790609D01*
X85989711Y-101878210D01*
X85989707Y-101878213D01*
X85878213Y-101989707D01*
X85878210Y-101989711D01*
X85790609Y-102120814D01*
X85790602Y-102120827D01*
X85730264Y-102266498D01*
X85730261Y-102266510D01*
X85699500Y-102421153D01*
X68500500Y-102421153D01*
X68500500Y-94921153D01*
X90199500Y-94921153D01*
X90199500Y-95078846D01*
X90230261Y-95233489D01*
X90230264Y-95233501D01*
X90290602Y-95379172D01*
X90290609Y-95379185D01*
X90378210Y-95510288D01*
X90378213Y-95510292D01*
X90489707Y-95621786D01*
X90489711Y-95621789D01*
X90620814Y-95709390D01*
X90620827Y-95709397D01*
X90766498Y-95769735D01*
X90766503Y-95769737D01*
X90831147Y-95782595D01*
X90921849Y-95800638D01*
X90983760Y-95833023D01*
X90985339Y-95834574D01*
X94165425Y-99014660D01*
X94198910Y-99075983D01*
X94199361Y-99078149D01*
X94230261Y-99233491D01*
X94230264Y-99233501D01*
X94290602Y-99379172D01*
X94290609Y-99379185D01*
X94378210Y-99510288D01*
X94378213Y-99510292D01*
X94489707Y-99621786D01*
X94489711Y-99621789D01*
X94620814Y-99709390D01*
X94620827Y-99709397D01*
X94766498Y-99769735D01*
X94766503Y-99769737D01*
X94921153Y-99800499D01*
X94921156Y-99800500D01*
X94921158Y-99800500D01*
X95078844Y-99800500D01*
X95078845Y-99800499D01*
X95233497Y-99769737D01*
X95379179Y-99709394D01*
X95510289Y-99621789D01*
X95621789Y-99510289D01*
X95709394Y-99379179D01*
X95769737Y-99233497D01*
X95800500Y-99078842D01*
X95800500Y-98921158D01*
X95800500Y-98921155D01*
X95800499Y-98921153D01*
X95769738Y-98766510D01*
X95769737Y-98766503D01*
X95769735Y-98766498D01*
X95709397Y-98620827D01*
X95709390Y-98620814D01*
X95621789Y-98489711D01*
X95621786Y-98489707D01*
X95510292Y-98378213D01*
X95510288Y-98378210D01*
X95379185Y-98290609D01*
X95379172Y-98290602D01*
X95233501Y-98230264D01*
X95233491Y-98230261D01*
X95078149Y-98199361D01*
X95016238Y-98166976D01*
X95014660Y-98165425D01*
X91834574Y-94985339D01*
X91801089Y-94924016D01*
X91800638Y-94921849D01*
X91769738Y-94766510D01*
X91769737Y-94766503D01*
X91769735Y-94766498D01*
X91709397Y-94620827D01*
X91709390Y-94620814D01*
X91621789Y-94489711D01*
X91621786Y-94489707D01*
X91510292Y-94378213D01*
X91510288Y-94378210D01*
X91379185Y-94290609D01*
X91379172Y-94290602D01*
X91233501Y-94230264D01*
X91233489Y-94230261D01*
X91078845Y-94199500D01*
X91078842Y-94199500D01*
X90921158Y-94199500D01*
X90921155Y-94199500D01*
X90766510Y-94230261D01*
X90766498Y-94230264D01*
X90620827Y-94290602D01*
X90620814Y-94290609D01*
X90489711Y-94378210D01*
X90489707Y-94378213D01*
X90378213Y-94489707D01*
X90378210Y-94489711D01*
X90290609Y-94620814D01*
X90290602Y-94620827D01*
X90230264Y-94766498D01*
X90230261Y-94766510D01*
X90199500Y-94921153D01*
X68500500Y-94921153D01*
X68500500Y-72124500D01*
X68520185Y-72057461D01*
X68572989Y-72011706D01*
X68624500Y-72000500D01*
X76186000Y-72000500D01*
X76253039Y-72020185D01*
G37*
%TD.AperFunction*%
%TD*%
M02*
