M48
; DRILL file {KiCad 9.0.7-9.0.7~ubuntu24.04.1} date 2026-03-17T11:18:56+0100
; FORMAT={-:-/ absolute / metric / decimal}
; #@! TF.CreationDate,2026-03-17T11:18:56+01:00
; #@! TF.GenerationSoftware,Kicad,Pcbnew,9.0.7-9.0.7~ubuntu24.04.1
; #@! TF.FileFunction,Plated,1,2,PTH
FMAT,2
METRIC
; #@! TA.AperFunction,Plated,PTH,ViaDrill
T1C0.300
; #@! TA.AperFunction,Plated,PTH,ComponentDrill
T2C0.889
%
G90
G05
T1
X70.0Y-105.5
X71.5Y-90.0
X72.5Y-90.0
X73.5Y-90.0
X75.156Y-80.5
X76.5Y-96.5
X76.501Y-75.501
X76.601Y-74.101
X76.699Y-72.901
X76.757Y-80.5
X78.5Y-84.0
X80.0Y-96.0
X82.5Y-102.5
X83.5Y-80.0
X83.5Y-81.0
X85.0Y-80.0
X85.0Y-81.0
X86.5Y-80.0
X86.5Y-81.0
X86.5Y-102.5
X87.5Y-91.5
X88.0Y-109.0
X89.0Y-104.0
X89.5Y-102.5
X90.0Y-87.0
X90.0Y-99.0
X90.0Y-101.0
X91.0Y-95.0
X91.0Y-104.0
X92.5Y-87.0
X93.0Y-93.0
X93.689Y-81.811
X95.0Y-78.0
X95.0Y-99.0
X95.4Y-82.0
X95.9Y-80.5
X96.5Y-87.0
X96.75Y-96.75
X97.0Y-92.5
X97.5Y-78.0
X97.5Y-80.5
X97.5Y-82.0
X98.0Y-88.0
X99.5Y-73.0
T2
X77.38Y-90.38
X77.38Y-105.62
X79.92Y-90.38
X79.92Y-105.62
X82.46Y-90.38
X82.46Y-105.62
X85.0Y-90.38
X85.0Y-105.62
X87.54Y-90.38
X87.54Y-105.62
X90.08Y-90.38
X90.08Y-105.62
X92.62Y-90.38
X92.62Y-105.62
M30
