%TF.GenerationSoftware,KiCad,Pcbnew,9.0.7-9.0.7~ubuntu24.04.1*%
%TF.CreationDate,2026-03-10T12:44:36+01:00*%
%TF.ProjectId,dev_pcb,6465765f-7063-4622-9e6b-696361645f70,rev?*%
%TF.SameCoordinates,Original*%
%TF.FileFunction,Copper,L1,Top*%
%TF.FilePolarity,Positive*%
%FSLAX46Y46*%
G04 Gerber Fmt 4.6, Leading zero omitted, Abs format (unit mm)*
G04 Created by KiCad (PCBNEW 9.0.7-9.0.7~ubuntu24.04.1) date 2026-03-10 12:44:36*
%MOMM*%
%LPD*%
G01*
G04 APERTURE LIST*
G04 Aperture macros list*
%AMRoundRect*
0 Rectangle with rounded corners*
0 $1 Rounding radius*
0 $2 $3 $4 $5 $6 $7 $8 $9 X,Y pos of 4 corners*
0 Add a 4 corners polygon primitive as box body*
4,1,4,$2,$3,$4,$5,$6,$7,$8,$9,$2,$3,0*
0 Add four circle primitives for the rounded corners*
1,1,$1+$1,$2,$3*
1,1,$1+$1,$4,$5*
1,1,$1+$1,$6,$7*
1,1,$1+$1,$8,$9*
0 Add four rect primitives between the rounded corners*
20,1,$1+$1,$2,$3,$4,$5,0*
20,1,$1+$1,$4,$5,$6,$7,0*
20,1,$1+$1,$6,$7,$8,$9,0*
20,1,$1+$1,$8,$9,$2,$3,0*%
G04 Aperture macros list end*
%TA.AperFunction,SMDPad,CuDef*%
%ADD10RoundRect,0.160000X0.222500X0.160000X-0.222500X0.160000X-0.222500X-0.160000X0.222500X-0.160000X0*%
%TD*%
%TA.AperFunction,SMDPad,CuDef*%
%ADD11RoundRect,0.250000X0.350000X0.450000X-0.350000X0.450000X-0.350000X-0.450000X0.350000X-0.450000X0*%
%TD*%
%TA.AperFunction,SMDPad,CuDef*%
%ADD12RoundRect,0.237500X0.237500X-0.250000X0.237500X0.250000X-0.237500X0.250000X-0.237500X-0.250000X0*%
%TD*%
%TA.AperFunction,SMDPad,CuDef*%
%ADD13R,2.450000X1.000000*%
%TD*%
%TA.AperFunction,SMDPad,CuDef*%
%ADD14R,1.000000X2.450000*%
%TD*%
%TA.AperFunction,SMDPad,CuDef*%
%ADD15RoundRect,0.152400X0.609600X-1.063600X0.609600X1.063600X-0.609600X1.063600X-0.609600X-1.063600X0*%
%TD*%
%TA.AperFunction,ComponentPad*%
%ADD16C,1.524000*%
%TD*%
%TA.AperFunction,SMDPad,CuDef*%
%ADD17RoundRect,0.152400X-0.609600X1.063600X-0.609600X-1.063600X0.609600X-1.063600X0.609600X1.063600X0*%
%TD*%
%TA.AperFunction,ViaPad*%
%ADD18C,0.600000*%
%TD*%
%TA.AperFunction,Conductor*%
%ADD19C,0.200000*%
%TD*%
G04 APERTURE END LIST*
D10*
%TO.P,D3,1,K*%
%TO.N,Net-(D3-K)*%
X75072500Y-79000000D03*
%TO.P,D3,2,A*%
%TO.N,Net-(D3-A)*%
X73927500Y-79000000D03*
%TD*%
D11*
%TO.P,R5,1*%
%TO.N,Net-(D4-A)*%
X71000000Y-75000000D03*
%TO.P,R5,2*%
%TO.N,+3.3V*%
X69000000Y-75000000D03*
%TD*%
%TO.P,R4,1*%
%TO.N,Net-(D3-A)*%
X71000000Y-79000000D03*
%TO.P,R4,2*%
%TO.N,+3.3V*%
X69000000Y-79000000D03*
%TD*%
D12*
%TO.P,R1,1*%
%TO.N,GND*%
X94000000Y-77000000D03*
%TO.P,R1,2*%
%TO.N,Net-(DWM1-IRQ{slash}GPIO8)*%
X94000000Y-75175000D03*
%TD*%
D11*
%TO.P,R2,1*%
%TO.N,Net-(D1-A)*%
X71000000Y-87000000D03*
%TO.P,R2,2*%
%TO.N,+3.3V*%
X69000000Y-87000000D03*
%TD*%
D13*
%TO.P,DWM1,1,EXTON*%
%TO.N,Net-(DWM1-EXTON)*%
X78900000Y-72701200D03*
%TO.P,DWM1,2,WAKEUP*%
%TO.N,Net-(DWM1-WAKEUP)*%
X78900000Y-74101200D03*
%TO.P,DWM1,3,~{RST}*%
%TO.N,Net-(DWM1-~{RST})*%
X78900000Y-75501200D03*
%TO.P,DWM1,4,GPIO7*%
%TO.N,unconnected-(DWM1-GPIO7-Pad4)*%
X78900000Y-76901200D03*
%TO.P,DWM1,5,VDDAON*%
%TO.N,+3.3V*%
X78900000Y-78301200D03*
%TO.P,DWM1,6,VDD3V3*%
X78900000Y-79701200D03*
%TO.P,DWM1,7,VDD3V3*%
X78900000Y-81101200D03*
%TO.P,DWM1,8,VSS*%
%TO.N,GND*%
X78900000Y-82501200D03*
D14*
%TO.P,DWM1,9,GPIO6/EXTRXE/SPIHA*%
%TO.N,unconnected-(DWM1-GPIO6{slash}EXTRXE{slash}SPIHA-Pad9)*%
X80300000Y-84796200D03*
%TO.P,DWM1,10,GPIO5/EXTTXE/SPIPOL*%
%TO.N,unconnected-(DWM1-GPIO5{slash}EXTTXE{slash}SPIPOL-Pad10)*%
X81700000Y-84796200D03*
%TO.P,DWM1,11,GPIO4/EXTPA*%
%TO.N,unconnected-(DWM1-GPIO4{slash}EXTPA-Pad11)*%
X83100000Y-84796200D03*
%TO.P,DWM1,12,GPIO3/TXLED*%
%TO.N,Net-(D4-K)*%
X84500000Y-84796200D03*
%TO.P,DWM1,13,GPIO2/RXLED*%
%TO.N,Net-(D3-K)*%
X85900000Y-84796200D03*
%TO.P,DWM1,14,GPIO1/SFDLED*%
%TO.N,Net-(D2-K)*%
X87300000Y-84796200D03*
%TO.P,DWM1,15,GPIO0/RXOKLED*%
%TO.N,Net-(D1-K)*%
X88700000Y-84796200D03*
%TO.P,DWM1,16,VSS*%
%TO.N,GND*%
X90100000Y-84796200D03*
D13*
%TO.P,DWM1,17,~{SPICS}*%
%TO.N,Net-(DWM1-~{SPICS})*%
X91500000Y-82500000D03*
%TO.P,DWM1,18,SPIMOSI*%
%TO.N,Net-(DWM1-SPIMOSI)*%
X91500000Y-81100000D03*
%TO.P,DWM1,19,SPIMISO*%
%TO.N,Net-(DWM1-SPIMISO)*%
X91500000Y-79701200D03*
%TO.P,DWM1,20,SPICLK*%
%TO.N,Net-(DWM1-SPICLK)*%
X91500000Y-78301200D03*
%TO.P,DWM1,21,VSS*%
%TO.N,GND*%
X91500000Y-76901200D03*
%TO.P,DWM1,22,IRQ/GPIO8*%
%TO.N,Net-(DWM1-IRQ{slash}GPIO8)*%
X91500000Y-75501200D03*
%TO.P,DWM1,23,VSS*%
%TO.N,GND*%
X91500000Y-74101200D03*
%TO.P,DWM1,24,VSS*%
X91500000Y-72701200D03*
%TD*%
D10*
%TO.P,D4,1,K*%
%TO.N,Net-(D4-K)*%
X75000000Y-75000000D03*
%TO.P,D4,2,A*%
%TO.N,Net-(D4-A)*%
X73855000Y-75000000D03*
%TD*%
%TO.P,D2,1,K*%
%TO.N,Net-(D2-K)*%
X75072500Y-83000000D03*
%TO.P,D2,2,A*%
%TO.N,Net-(D2-A)*%
X73927500Y-83000000D03*
%TD*%
%TO.P,D1,1,K*%
%TO.N,Net-(D1-K)*%
X75072500Y-87000000D03*
%TO.P,D1,2,A*%
%TO.N,Net-(D1-A)*%
X73927500Y-87000000D03*
%TD*%
D11*
%TO.P,R3,1*%
%TO.N,Net-(D2-A)*%
X71000000Y-83000000D03*
%TO.P,R3,2*%
%TO.N,+3.3V*%
X69000000Y-83000000D03*
%TD*%
D15*
%TO.P,U2,1,GPIO1_A0_D0*%
%TO.N,Net-(DWM1-IRQ{slash}GPIO8)*%
X92620000Y-89545000D03*
D16*
X92620000Y-90380000D03*
D15*
%TO.P,U2,2,GPIO2_A1_D1*%
%TO.N,Net-(DWM1-EXTON)*%
X90080000Y-89545000D03*
D16*
X90080000Y-90380000D03*
D15*
%TO.P,U2,3,GPIO3_A2_D2*%
%TO.N,Net-(DWM1-WAKEUP)*%
X87540000Y-89545000D03*
D16*
X87540000Y-90380000D03*
D15*
%TO.P,U2,4,GPIO4_A3_D3*%
%TO.N,Net-(DWM1-~{RST})*%
X85000000Y-89545000D03*
D16*
X85000000Y-90380000D03*
D15*
%TO.P,U2,5,GPIO5_A4_D4_SDA*%
%TO.N,unconnected-(U2-GPIO5_A4_D4_SDA-Pad5)*%
X82460000Y-89545000D03*
D16*
X82460000Y-90380000D03*
D15*
%TO.P,U2,6,GPIO6_A5_D5_SCL*%
%TO.N,unconnected-(U2-GPIO6_A5_D5_SCL-Pad6)*%
X79920000Y-89545000D03*
D16*
X79920000Y-90380000D03*
D15*
%TO.P,U2,7,GPIO43_D6_TX*%
%TO.N,unconnected-(U2-GPIO43_D6_TX-Pad7)*%
X77380000Y-89545000D03*
D16*
X77380000Y-90380000D03*
%TO.P,U2,8,GPIO44_D7_RX*%
%TO.N,Net-(DWM1-~{SPICS})*%
X77380000Y-105620000D03*
D17*
X77380000Y-106455000D03*
D16*
%TO.P,U2,9,GPIO7_A8_D8_SCK*%
%TO.N,Net-(DWM1-SPICLK)*%
X79920000Y-105620000D03*
D17*
X79920000Y-106455000D03*
D16*
%TO.P,U2,10,GPIO8_A9_D9_MISO*%
%TO.N,Net-(DWM1-SPIMISO)*%
X82460000Y-105620000D03*
D17*
X82460000Y-106455000D03*
D16*
%TO.P,U2,11,GPIO9_A10_D10_MOSI*%
%TO.N,Net-(DWM1-SPIMOSI)*%
X85000000Y-105620000D03*
D17*
X85000000Y-106455000D03*
D16*
%TO.P,U2,12,3V3*%
%TO.N,+3.3V*%
X87540000Y-105620000D03*
D17*
X87540000Y-106455000D03*
D16*
%TO.P,U2,13,GND*%
%TO.N,GND*%
X90080000Y-105620000D03*
D17*
X90080000Y-106455000D03*
D16*
%TO.P,U2,14,VBUS*%
%TO.N,unconnected-(U2-VBUS-Pad14)*%
X92620000Y-105620000D03*
D17*
X92620000Y-106455000D03*
%TD*%
D18*
%TO.N,GND*%
X91000000Y-102500000D03*
X93000000Y-102500000D03*
X84500000Y-78000000D03*
X92000000Y-102500000D03*
X85500000Y-78000000D03*
X86500000Y-78000000D03*
%TO.N,Net-(DWM1-EXTON)*%
X76699000Y-72901000D03*
X71500000Y-90000000D03*
%TO.N,Net-(DWM1-SPIMOSI)*%
X91500000Y-81100000D03*
X95000000Y-81000000D03*
%TO.N,+3.3V*%
X89500000Y-103500000D03*
X78900000Y-81101200D03*
%TO.N,Net-(DWM1-IRQ{slash}GPIO8)*%
X92500000Y-87000000D03*
X95000000Y-76000000D03*
%TO.N,Net-(DWM1-WAKEUP)*%
X72500000Y-90000000D03*
X76601200Y-74101200D03*
%TO.N,Net-(DWM1-~{RST})*%
X73500000Y-90000000D03*
X76501200Y-75501200D03*
%TD*%
D19*
%TO.N,GND*%
X90100000Y-83600000D02*
X86500000Y-80000000D01*
X86500000Y-80000000D02*
X86500000Y-78000000D01*
X90100000Y-84796200D02*
X90100000Y-83600000D01*
%TO.N,Net-(DWM1-SPIMISO)*%
X93683000Y-94397000D02*
X93683000Y-80183000D01*
X82460000Y-105620000D02*
X93683000Y-94397000D01*
X93201200Y-79701200D02*
X91500000Y-79701200D01*
X93683000Y-80183000D02*
X93201200Y-79701200D01*
%TO.N,Net-(DWM1-EXTON)*%
X90080000Y-90380000D02*
X88215000Y-92245000D01*
X76699000Y-72901000D02*
X78900000Y-72901000D01*
X88215000Y-92245000D02*
X73745000Y-92245000D01*
X73745000Y-92245000D02*
X71500000Y-90000000D01*
%TO.N,Net-(DWM1-~{SPICS})*%
X77380000Y-106455000D02*
X91500000Y-92335000D01*
X91500000Y-92335000D02*
X91500000Y-82500000D01*
%TO.N,Net-(DWM1-SPIMOSI)*%
X85000000Y-105620000D02*
X95000000Y-95620000D01*
X95000000Y-95620000D02*
X95000000Y-81000000D01*
%TO.N,Net-(DWM1-SPICLK)*%
X85801626Y-107972000D02*
X86063000Y-107710626D01*
X79920000Y-106233626D02*
X81658374Y-107972000D01*
X94801200Y-78301200D02*
X91500000Y-78301200D01*
X86063000Y-107710626D02*
X86063000Y-105179690D01*
X86063000Y-105179690D02*
X96000000Y-95242690D01*
X96000000Y-95242690D02*
X96000000Y-79500000D01*
X79920000Y-105620000D02*
X79920000Y-106233626D01*
X96000000Y-79500000D02*
X94801200Y-78301200D01*
X81658374Y-107972000D02*
X85801626Y-107972000D01*
%TO.N,+3.3V*%
X87540000Y-106800726D02*
X85967726Y-108373000D01*
X87540000Y-105620000D02*
X89500000Y-103660000D01*
X67500000Y-75500000D02*
X68000000Y-75000000D01*
X87540000Y-106455000D02*
X87540000Y-106800726D01*
X67500000Y-88000000D02*
X67500000Y-87500000D01*
X69000000Y-87000000D02*
X68000000Y-87000000D01*
X68000000Y-83000000D02*
X67500000Y-83500000D01*
X76979374Y-108373000D02*
X67500000Y-98893626D01*
X69000000Y-83000000D02*
X68000000Y-83000000D01*
X68000000Y-75000000D02*
X69000000Y-75000000D01*
X67500000Y-98893626D02*
X67500000Y-88000000D01*
X89500000Y-103660000D02*
X89500000Y-103500000D01*
X85967726Y-108373000D02*
X76979374Y-108373000D01*
X78900000Y-81101200D02*
X78900000Y-78301200D01*
X67500000Y-83500000D02*
X67500000Y-79500000D01*
X67500000Y-87500000D02*
X67500000Y-83500000D01*
X68000000Y-87000000D02*
X67500000Y-87500000D01*
X67500000Y-79500000D02*
X67500000Y-75500000D01*
X69000000Y-79000000D02*
X68000000Y-79000000D01*
X68000000Y-79000000D02*
X67500000Y-79500000D01*
%TO.N,Net-(DWM1-IRQ{slash}GPIO8)*%
X94825000Y-76000000D02*
X94000000Y-75175000D01*
X91826200Y-75175000D02*
X91500000Y-75501200D01*
X94000000Y-75175000D02*
X91826200Y-75175000D01*
X92620000Y-87120000D02*
X92500000Y-87000000D01*
X92620000Y-90380000D02*
X92620000Y-87120000D01*
X95000000Y-76000000D02*
X94825000Y-76000000D01*
%TO.N,Net-(DWM1-WAKEUP)*%
X76601200Y-74101200D02*
X78900000Y-74101200D01*
X74344000Y-91844000D02*
X72500000Y-90000000D01*
X86076000Y-91844000D02*
X74344000Y-91844000D01*
X87540000Y-90380000D02*
X86076000Y-91844000D01*
%TO.N,Net-(DWM1-~{RST})*%
X76501200Y-75501200D02*
X78900000Y-75501200D01*
X85000000Y-90380000D02*
X83937000Y-91443000D01*
X83937000Y-91443000D02*
X74943000Y-91443000D01*
X74943000Y-91443000D02*
X73500000Y-90000000D01*
%TO.N,Net-(D1-K)*%
X87474800Y-87525200D02*
X88700000Y-86300000D01*
X88700000Y-86300000D02*
X88700000Y-84796200D01*
X75597700Y-87525200D02*
X87474800Y-87525200D01*
X75072500Y-87000000D02*
X75597700Y-87525200D01*
%TO.N,Net-(D1-A)*%
X73927500Y-87000000D02*
X71000000Y-87000000D01*
%TO.N,Net-(D2-K)*%
X79166800Y-87124200D02*
X86875800Y-87124200D01*
X75072500Y-83000000D02*
X75072500Y-83029900D01*
X86875800Y-87124200D02*
X87300000Y-86700000D01*
X75072500Y-83029900D02*
X79166800Y-87124200D01*
X87300000Y-86700000D02*
X87300000Y-84796200D01*
%TO.N,Net-(D2-A)*%
X73927500Y-83000000D02*
X71000000Y-83000000D01*
%TO.N,Net-(D3-K)*%
X85900000Y-86221200D02*
X85900000Y-84796200D01*
X76500000Y-80427500D02*
X76500000Y-83890300D01*
X79332900Y-86723200D02*
X85398000Y-86723200D01*
X75072500Y-79000000D02*
X76500000Y-80427500D01*
X85398000Y-86723200D02*
X85900000Y-86221200D01*
X76500000Y-83890300D02*
X79332900Y-86723200D01*
%TO.N,Net-(D3-A)*%
X73927500Y-79000000D02*
X71000000Y-79000000D01*
%TO.N,Net-(D4-K)*%
X84399000Y-86322200D02*
X84500000Y-86221200D01*
X77374000Y-77374000D02*
X77374000Y-84197200D01*
X75000000Y-75000000D02*
X77374000Y-77374000D01*
X77374000Y-84197200D02*
X79499000Y-86322200D01*
X79499000Y-86322200D02*
X84399000Y-86322200D01*
X84500000Y-86221200D02*
X84500000Y-84796200D01*
%TO.N,Net-(D4-A)*%
X73855000Y-75000000D02*
X71000000Y-75000000D01*
%TD*%
%TA.AperFunction,Conductor*%
%TO.N,GND*%
G36*
X97442539Y-72020185D02*
G01*
X97488294Y-72072989D01*
X97499500Y-72124500D01*
X97499500Y-108375500D01*
X97479815Y-108442539D01*
X97427011Y-108488294D01*
X97375500Y-108499500D01*
X86989823Y-108499500D01*
X86968577Y-108493261D01*
X86946489Y-108491682D01*
X86935705Y-108483609D01*
X86922784Y-108479815D01*
X86908284Y-108463081D01*
X86890556Y-108449810D01*
X86885848Y-108437189D01*
X86877029Y-108427011D01*
X86873877Y-108405093D01*
X86866139Y-108384346D01*
X86869001Y-108371185D01*
X86867085Y-108357853D01*
X86876284Y-108337709D01*
X86880991Y-108316073D01*
X86894259Y-108298347D01*
X86896110Y-108294297D01*
X86902142Y-108287819D01*
X86982142Y-108207819D01*
X87043465Y-108174334D01*
X87069823Y-108171500D01*
X88215526Y-108171500D01*
X88215534Y-108171500D01*
X88252548Y-108168587D01*
X88252550Y-108168586D01*
X88252552Y-108168586D01*
X88294323Y-108156449D01*
X88410959Y-108122564D01*
X88552947Y-108038592D01*
X88669592Y-107921947D01*
X88669776Y-107921637D01*
X88703558Y-107864514D01*
X88754626Y-107816830D01*
X88823368Y-107804326D01*
X88887958Y-107830971D01*
X88917022Y-107864513D01*
X88950803Y-107921634D01*
X88950810Y-107921643D01*
X89067356Y-108038189D01*
X89067365Y-108038196D01*
X89209243Y-108122102D01*
X89209246Y-108122103D01*
X89367526Y-108168088D01*
X89367532Y-108168089D01*
X89404518Y-108170999D01*
X90755469Y-108170999D01*
X90755491Y-108170998D01*
X90792466Y-108168089D01*
X90950757Y-108122102D01*
X91092634Y-108038196D01*
X91092643Y-108038189D01*
X91209189Y-107921643D01*
X91209193Y-107921637D01*
X91242976Y-107864514D01*
X91294045Y-107816830D01*
X91362787Y-107804326D01*
X91427376Y-107830971D01*
X91456440Y-107864511D01*
X91490408Y-107921947D01*
X91490410Y-107921949D01*
X91490412Y-107921952D01*
X91607047Y-108038587D01*
X91607051Y-108038590D01*
X91607053Y-108038592D01*
X91749041Y-108122564D01*
X91790816Y-108134701D01*
X91907447Y-108168586D01*
X91907450Y-108168586D01*
X91907452Y-108168587D01*
X91944466Y-108171500D01*
X91944474Y-108171500D01*
X93295526Y-108171500D01*
X93295534Y-108171500D01*
X93332548Y-108168587D01*
X93332550Y-108168586D01*
X93332552Y-108168586D01*
X93374323Y-108156449D01*
X93490959Y-108122564D01*
X93632947Y-108038592D01*
X93749592Y-107921947D01*
X93833564Y-107779959D01*
X93879587Y-107621548D01*
X93882500Y-107584534D01*
X93882500Y-105325466D01*
X93879587Y-105288452D01*
X93872573Y-105264311D01*
X93833565Y-105130045D01*
X93833564Y-105130042D01*
X93833564Y-105130041D01*
X93749592Y-104988053D01*
X93653390Y-104891851D01*
X93640758Y-104877060D01*
X93582984Y-104797539D01*
X93442466Y-104657021D01*
X93442464Y-104657019D01*
X93281694Y-104540213D01*
X93104632Y-104449994D01*
X93104629Y-104449993D01*
X92915637Y-104388587D01*
X92801427Y-104370498D01*
X92719361Y-104357500D01*
X92520639Y-104357500D01*
X92455214Y-104367862D01*
X92324362Y-104388587D01*
X92135370Y-104449993D01*
X92135367Y-104449994D01*
X91958305Y-104540213D01*
X91797533Y-104657021D01*
X91657018Y-104797536D01*
X91599239Y-104877061D01*
X91593992Y-104883784D01*
X91590469Y-104887990D01*
X91490408Y-104988053D01*
X91451285Y-105054204D01*
X91444779Y-105061975D01*
X91423798Y-105075964D01*
X91405371Y-105093170D01*
X91395227Y-105095015D01*
X91386647Y-105100736D01*
X91361433Y-105101161D01*
X91336629Y-105105673D01*
X91327097Y-105101740D01*
X91316787Y-105101915D01*
X91295347Y-105088642D01*
X91272040Y-105079027D01*
X91263043Y-105068643D01*
X91257380Y-105065138D01*
X91254161Y-105058393D01*
X91242977Y-105045486D01*
X91209195Y-104988364D01*
X91209192Y-104988360D01*
X91137191Y-104916360D01*
X90517647Y-105535904D01*
X90494208Y-105448429D01*
X90435689Y-105347070D01*
X90352930Y-105264311D01*
X90251571Y-105205792D01*
X90164093Y-105182352D01*
X90778715Y-104567730D01*
X90741432Y-104540641D01*
X90564437Y-104450457D01*
X90375522Y-104389075D01*
X90179321Y-104358000D01*
X90065548Y-104358000D01*
X89998509Y-104338315D01*
X89952754Y-104285511D01*
X89942810Y-104216353D01*
X89971835Y-104152797D01*
X89996657Y-104130898D01*
X90001586Y-104127603D01*
X90010289Y-104121789D01*
X90121789Y-104010289D01*
X90209394Y-103879179D01*
X90269737Y-103733497D01*
X90300500Y-103578842D01*
X90300500Y-103421158D01*
X90300500Y-103421155D01*
X90300499Y-103421153D01*
X90269738Y-103266510D01*
X90269737Y-103266503D01*
X90269735Y-103266498D01*
X90209397Y-103120827D01*
X90209390Y-103120814D01*
X90121789Y-102989711D01*
X90121786Y-102989707D01*
X90010292Y-102878213D01*
X90010288Y-102878210D01*
X89879185Y-102790609D01*
X89879172Y-102790602D01*
X89733501Y-102730264D01*
X89733491Y-102730261D01*
X89650881Y-102713829D01*
X89588970Y-102681444D01*
X89554396Y-102620728D01*
X89558136Y-102550959D01*
X89587390Y-102504533D01*
X96368713Y-95723211D01*
X96368716Y-95723210D01*
X96480520Y-95611406D01*
X96530639Y-95524594D01*
X96559577Y-95474475D01*
X96600500Y-95321747D01*
X96600500Y-95163633D01*
X96600500Y-79420943D01*
X96559577Y-79268216D01*
X96559577Y-79268215D01*
X96527918Y-79213380D01*
X96493247Y-79153328D01*
X96480522Y-79131287D01*
X96480521Y-79131286D01*
X96480520Y-79131284D01*
X96368716Y-79019480D01*
X96368715Y-79019479D01*
X96364385Y-79015149D01*
X96364374Y-79015139D01*
X95288790Y-77939555D01*
X95288788Y-77939552D01*
X95169917Y-77820681D01*
X95169916Y-77820680D01*
X95133232Y-77799501D01*
X95089245Y-77774105D01*
X95089241Y-77774103D01*
X95083104Y-77770560D01*
X95032985Y-77741623D01*
X94984253Y-77728565D01*
X94975845Y-77724918D01*
X94955763Y-77708179D01*
X94933433Y-77694568D01*
X94929350Y-77686162D01*
X94922175Y-77680182D01*
X94914330Y-77655242D01*
X94902905Y-77631721D01*
X94904014Y-77622444D01*
X94901211Y-77613532D01*
X94908095Y-77588309D01*
X94910128Y-77571303D01*
X94908181Y-77570658D01*
X94964680Y-77400152D01*
X94974999Y-77299154D01*
X94975000Y-77299141D01*
X94975000Y-77250000D01*
X93019000Y-77250000D01*
X92951961Y-77230315D01*
X92906206Y-77177511D01*
X92902006Y-77158206D01*
X92895000Y-77151200D01*
X89775000Y-77151200D01*
X89775000Y-77449044D01*
X89781401Y-77508572D01*
X89781403Y-77508583D01*
X89799519Y-77557153D01*
X89804503Y-77626844D01*
X89799520Y-77643816D01*
X89780908Y-77693717D01*
X89777554Y-77724918D01*
X89774501Y-77753323D01*
X89774500Y-77753335D01*
X89774500Y-78849070D01*
X89774501Y-78849076D01*
X89780908Y-78908682D01*
X89783196Y-78914815D01*
X89799252Y-78957865D01*
X89799253Y-78957866D01*
X89804237Y-79027558D01*
X89799253Y-79044531D01*
X89780909Y-79093714D01*
X89780908Y-79093716D01*
X89776547Y-79134284D01*
X89774501Y-79153323D01*
X89774500Y-79153335D01*
X89774500Y-80249070D01*
X89774501Y-80249076D01*
X89780908Y-80308683D01*
X89799029Y-80357267D01*
X89804013Y-80426958D01*
X89799030Y-80443931D01*
X89780908Y-80492519D01*
X89774501Y-80552116D01*
X89774500Y-80552135D01*
X89774500Y-81647870D01*
X89774501Y-81647876D01*
X89780908Y-81707482D01*
X89799253Y-81756666D01*
X89804237Y-81826358D01*
X89799253Y-81843331D01*
X89780909Y-81892514D01*
X89780908Y-81892516D01*
X89774501Y-81952116D01*
X89774500Y-81952135D01*
X89774501Y-82947200D01*
X89754817Y-83014239D01*
X89702013Y-83059994D01*
X89650501Y-83071200D01*
X89552155Y-83071200D01*
X89492627Y-83077601D01*
X89492623Y-83077602D01*
X89444046Y-83095720D01*
X89374354Y-83100703D01*
X89357382Y-83095719D01*
X89307485Y-83077109D01*
X89307483Y-83077108D01*
X89247883Y-83070701D01*
X89247881Y-83070700D01*
X89247873Y-83070700D01*
X89247864Y-83070700D01*
X88152129Y-83070700D01*
X88152123Y-83070701D01*
X88092516Y-83077108D01*
X88043332Y-83095453D01*
X87973640Y-83100437D01*
X87956667Y-83095453D01*
X87907482Y-83077108D01*
X87907483Y-83077108D01*
X87847883Y-83070701D01*
X87847881Y-83070700D01*
X87847873Y-83070700D01*
X87847864Y-83070700D01*
X86752129Y-83070700D01*
X86752123Y-83070701D01*
X86692516Y-83077108D01*
X86643332Y-83095453D01*
X86573640Y-83100437D01*
X86556667Y-83095453D01*
X86507482Y-83077108D01*
X86507483Y-83077108D01*
X86447883Y-83070701D01*
X86447881Y-83070700D01*
X86447873Y-83070700D01*
X86447864Y-83070700D01*
X85352129Y-83070700D01*
X85352123Y-83070701D01*
X85292516Y-83077108D01*
X85243332Y-83095453D01*
X85173640Y-83100437D01*
X85156667Y-83095453D01*
X85107482Y-83077108D01*
X85107483Y-83077108D01*
X85047883Y-83070701D01*
X85047881Y-83070700D01*
X85047873Y-83070700D01*
X85047864Y-83070700D01*
X83952129Y-83070700D01*
X83952123Y-83070701D01*
X83892516Y-83077108D01*
X83843332Y-83095453D01*
X83773640Y-83100437D01*
X83756667Y-83095453D01*
X83707482Y-83077108D01*
X83707483Y-83077108D01*
X83647883Y-83070701D01*
X83647881Y-83070700D01*
X83647873Y-83070700D01*
X83647864Y-83070700D01*
X82552129Y-83070700D01*
X82552123Y-83070701D01*
X82492516Y-83077108D01*
X82443332Y-83095453D01*
X82373640Y-83100437D01*
X82356667Y-83095453D01*
X82307482Y-83077108D01*
X82307483Y-83077108D01*
X82247883Y-83070701D01*
X82247881Y-83070700D01*
X82247873Y-83070700D01*
X82247864Y-83070700D01*
X81152129Y-83070700D01*
X81152123Y-83070701D01*
X81092516Y-83077108D01*
X81043332Y-83095453D01*
X80973640Y-83100437D01*
X80956667Y-83095453D01*
X80907482Y-83077108D01*
X80907483Y-83077108D01*
X80847883Y-83070701D01*
X80847881Y-83070700D01*
X80847873Y-83070700D01*
X80847865Y-83070700D01*
X80749000Y-83070700D01*
X80681961Y-83051015D01*
X80636206Y-82998211D01*
X80625000Y-82946700D01*
X80625000Y-82751200D01*
X79150000Y-82751200D01*
X79150000Y-83501200D01*
X79175500Y-83501200D01*
X79242539Y-83520885D01*
X79288294Y-83573689D01*
X79299500Y-83625200D01*
X79299500Y-84974103D01*
X79279815Y-85041142D01*
X79227011Y-85086897D01*
X79157853Y-85096841D01*
X79094297Y-85067816D01*
X79087819Y-85061784D01*
X78010819Y-83984784D01*
X77977334Y-83923461D01*
X77974500Y-83897103D01*
X77974500Y-83625200D01*
X77994185Y-83558161D01*
X78046989Y-83512406D01*
X78098500Y-83501200D01*
X78650000Y-83501200D01*
X78650000Y-82625200D01*
X78669685Y-82558161D01*
X78722489Y-82512406D01*
X78774000Y-82501200D01*
X78900000Y-82501200D01*
X78900000Y-82375200D01*
X78919685Y-82308161D01*
X78972489Y-82262406D01*
X79024000Y-82251200D01*
X80625000Y-82251200D01*
X80625000Y-81953372D01*
X80624999Y-81953355D01*
X80618598Y-81893827D01*
X80600479Y-81845248D01*
X80595495Y-81775556D01*
X80600476Y-81758591D01*
X80619091Y-81708683D01*
X80625500Y-81649073D01*
X80625499Y-80553328D01*
X80619091Y-80493717D01*
X80618644Y-80492519D01*
X80600747Y-80444534D01*
X80595762Y-80374843D01*
X80600747Y-80357865D01*
X80619089Y-80308688D01*
X80619091Y-80308683D01*
X80625500Y-80249073D01*
X80625499Y-79153328D01*
X80619091Y-79093717D01*
X80600747Y-79044534D01*
X80595762Y-78974843D01*
X80600747Y-78957865D01*
X80619089Y-78908688D01*
X80619091Y-78908683D01*
X80625500Y-78849073D01*
X80625499Y-77753328D01*
X80619091Y-77693717D01*
X80600747Y-77644534D01*
X80595762Y-77574843D01*
X80600747Y-77557865D01*
X80619089Y-77508688D01*
X80619091Y-77508683D01*
X80625500Y-77449073D01*
X80625499Y-76353328D01*
X80619091Y-76293717D01*
X80619090Y-76293714D01*
X80600747Y-76244534D01*
X80595762Y-76174843D01*
X80600747Y-76157865D01*
X80619089Y-76108688D01*
X80619091Y-76108683D01*
X80625500Y-76049073D01*
X80625499Y-74953335D01*
X89774500Y-74953335D01*
X89774500Y-76049070D01*
X89774501Y-76049076D01*
X89780909Y-76108684D01*
X89799519Y-76158582D01*
X89804503Y-76228274D01*
X89799520Y-76245246D01*
X89781402Y-76293823D01*
X89781401Y-76293827D01*
X89775000Y-76353355D01*
X89775000Y-76651200D01*
X93231000Y-76651200D01*
X93298039Y-76670885D01*
X93343794Y-76723689D01*
X93347993Y-76742993D01*
X93355000Y-76750000D01*
X94694189Y-76750000D01*
X94741636Y-76759437D01*
X94766503Y-76769737D01*
X94766510Y-76769738D01*
X94766511Y-76769739D01*
X94921153Y-76800499D01*
X94921156Y-76800500D01*
X94921158Y-76800500D01*
X95078844Y-76800500D01*
X95078845Y-76800499D01*
X95233497Y-76769737D01*
X95379179Y-76709394D01*
X95510289Y-76621789D01*
X95621789Y-76510289D01*
X95709394Y-76379179D01*
X95769737Y-76233497D01*
X95800500Y-76078842D01*
X95800500Y-75921158D01*
X95800500Y-75921155D01*
X95800499Y-75921153D01*
X95781527Y-75825776D01*
X95769737Y-75766503D01*
X95712389Y-75628051D01*
X95709397Y-75620827D01*
X95709390Y-75620814D01*
X95621789Y-75489711D01*
X95621786Y-75489707D01*
X95510292Y-75378213D01*
X95510288Y-75378210D01*
X95379185Y-75290609D01*
X95379172Y-75290602D01*
X95233501Y-75230264D01*
X95233491Y-75230261D01*
X95075307Y-75198796D01*
X95013396Y-75166411D01*
X94978822Y-75105695D01*
X94975499Y-75077184D01*
X94975499Y-74875824D01*
X94972229Y-74843816D01*
X94965174Y-74774747D01*
X94964736Y-74773425D01*
X94910908Y-74610984D01*
X94820340Y-74464150D01*
X94698350Y-74342160D01*
X94551516Y-74251592D01*
X94387753Y-74197326D01*
X94387751Y-74197325D01*
X94286678Y-74187000D01*
X93713330Y-74187000D01*
X93713312Y-74187001D01*
X93612247Y-74197325D01*
X93448484Y-74251592D01*
X93448481Y-74251593D01*
X93402795Y-74279773D01*
X93316922Y-74332739D01*
X93251828Y-74351200D01*
X89775000Y-74351200D01*
X89775000Y-74649044D01*
X89781401Y-74708572D01*
X89781403Y-74708583D01*
X89799519Y-74757153D01*
X89804503Y-74826844D01*
X89799520Y-74843816D01*
X89780908Y-74893717D01*
X89774501Y-74953316D01*
X89774500Y-74953335D01*
X80625499Y-74953335D01*
X80625499Y-74953328D01*
X80619091Y-74893717D01*
X80600747Y-74844534D01*
X80595762Y-74774843D01*
X80600747Y-74757865D01*
X80619089Y-74708688D01*
X80619091Y-74708683D01*
X80625500Y-74649073D01*
X80625499Y-73553328D01*
X80619091Y-73493717D01*
X80600747Y-73444534D01*
X80595762Y-73374843D01*
X80600747Y-73357865D01*
X80619089Y-73308688D01*
X80619091Y-73308683D01*
X80625500Y-73249073D01*
X80625500Y-73249044D01*
X89775000Y-73249044D01*
X89781401Y-73308572D01*
X89781403Y-73308580D01*
X89799786Y-73357867D01*
X89804770Y-73427559D01*
X89799786Y-73444533D01*
X89781403Y-73493819D01*
X89781401Y-73493827D01*
X89775000Y-73553355D01*
X89775000Y-73851200D01*
X91250000Y-73851200D01*
X91750000Y-73851200D01*
X93225000Y-73851200D01*
X93225000Y-73553372D01*
X93224999Y-73553355D01*
X93218597Y-73493822D01*
X93218597Y-73493821D01*
X93200214Y-73444535D01*
X93195228Y-73374844D01*
X93200214Y-73357865D01*
X93218597Y-73308578D01*
X93218597Y-73308577D01*
X93224999Y-73249044D01*
X93225000Y-73249027D01*
X93225000Y-72951200D01*
X91750000Y-72951200D01*
X91750000Y-73851200D01*
X91250000Y-73851200D01*
X91250000Y-72951200D01*
X89775000Y-72951200D01*
X89775000Y-73249044D01*
X80625500Y-73249044D01*
X80625499Y-72667510D01*
X80625499Y-72304000D01*
X80645183Y-72236961D01*
X80697987Y-72191206D01*
X80749499Y-72180000D01*
X89651000Y-72180000D01*
X89718039Y-72199685D01*
X89763794Y-72252489D01*
X89775000Y-72304000D01*
X89775000Y-72451200D01*
X93225000Y-72451200D01*
X93225000Y-72304000D01*
X93244685Y-72236961D01*
X93297489Y-72191206D01*
X93349000Y-72180000D01*
X94090000Y-72180000D01*
X94090000Y-72124500D01*
X94109685Y-72057461D01*
X94162489Y-72011706D01*
X94214000Y-72000500D01*
X97375500Y-72000500D01*
X97442539Y-72020185D01*
G37*
%TD.AperFunction*%
%TA.AperFunction,Conductor*%
G36*
X90293039Y-84815885D02*
G01*
X90338794Y-84868689D01*
X90350000Y-84920200D01*
X90350000Y-86521200D01*
X90647828Y-86521200D01*
X90647844Y-86521199D01*
X90707372Y-86514798D01*
X90707377Y-86514797D01*
X90732164Y-86505552D01*
X90801856Y-86500566D01*
X90863180Y-86534050D01*
X90896666Y-86595373D01*
X90899500Y-86621733D01*
X90899500Y-87705687D01*
X90879815Y-87772726D01*
X90827011Y-87818481D01*
X90765778Y-87829305D01*
X90755557Y-87828501D01*
X90755539Y-87828500D01*
X90755534Y-87828500D01*
X89404466Y-87828500D01*
X89404458Y-87828500D01*
X89367453Y-87831412D01*
X89367447Y-87831413D01*
X89209045Y-87877434D01*
X89209042Y-87877435D01*
X89067056Y-87961405D01*
X89067047Y-87961412D01*
X88950412Y-88078047D01*
X88950408Y-88078053D01*
X88916840Y-88134814D01*
X88916732Y-88134996D01*
X88865662Y-88182679D01*
X88796921Y-88195182D01*
X88732331Y-88168536D01*
X88703268Y-88134996D01*
X88669592Y-88078053D01*
X88669589Y-88078050D01*
X88669587Y-88078047D01*
X88552952Y-87961412D01*
X88552943Y-87961405D01*
X88410957Y-87877435D01*
X88410954Y-87877434D01*
X88272010Y-87837067D01*
X88213124Y-87799461D01*
X88183918Y-87735989D01*
X88193664Y-87666802D01*
X88218922Y-87630312D01*
X89058506Y-86790727D01*
X89058511Y-86790724D01*
X89068714Y-86780520D01*
X89068716Y-86780520D01*
X89180520Y-86668716D01*
X89236278Y-86572138D01*
X89254370Y-86554888D01*
X89269353Y-86534873D01*
X89283411Y-86527196D01*
X89286843Y-86523925D01*
X89300330Y-86517959D01*
X89308807Y-86514797D01*
X89357382Y-86496679D01*
X89427071Y-86491695D01*
X89444048Y-86496679D01*
X89492628Y-86514798D01*
X89492627Y-86514798D01*
X89552155Y-86521199D01*
X89552172Y-86521200D01*
X89850000Y-86521200D01*
X89850000Y-84920200D01*
X89869685Y-84853161D01*
X89922489Y-84807406D01*
X89974000Y-84796200D01*
X90226000Y-84796200D01*
X90293039Y-84815885D01*
G37*
%TD.AperFunction*%
%TD*%
M02*
