%TF.GenerationSoftware,KiCad,Pcbnew,9.0.7-9.0.7~ubuntu24.04.1*%
%TF.CreationDate,2026-03-10T12:44:36+01:00*%
%TF.ProjectId,dev_pcb,6465765f-7063-4622-9e6b-696361645f70,rev?*%
%TF.SameCoordinates,Original*%
%TF.FileFunction,Copper,L2,Bot*%
%TF.FilePolarity,Positive*%
%FSLAX46Y46*%
G04 Gerber Fmt 4.6, Leading zero omitted, Abs format (unit mm)*
G04 Created by KiCad (PCBNEW 9.0.7-9.0.7~ubuntu24.04.1) date 2026-03-10 12:44:36*
%MOMM*%
%LPD*%
G01*
G04 APERTURE LIST*
%TA.AperFunction,ComponentPad*%
%ADD10C,1.524000*%
%TD*%
%TA.AperFunction,ViaPad*%
%ADD11C,0.600000*%
%TD*%
%TA.AperFunction,Conductor*%
%ADD12C,0.200000*%
%TD*%
G04 APERTURE END LIST*
D10*
%TO.P,U2,1,GPIO1_A0_D0*%
%TO.N,Net-(DWM1-IRQ{slash}GPIO8)*%
X92620000Y-90380000D03*
%TO.P,U2,2,GPIO2_A1_D1*%
%TO.N,Net-(DWM1-EXTON)*%
X90080000Y-90380000D03*
%TO.P,U2,3,GPIO3_A2_D2*%
%TO.N,Net-(DWM1-WAKEUP)*%
X87540000Y-90380000D03*
%TO.P,U2,4,GPIO4_A3_D3*%
%TO.N,Net-(DWM1-~{RST})*%
X85000000Y-90380000D03*
%TO.P,U2,5,GPIO5_A4_D4_SDA*%
%TO.N,unconnected-(U2-GPIO5_A4_D4_SDA-Pad5)*%
X82460000Y-90380000D03*
%TO.P,U2,6,GPIO6_A5_D5_SCL*%
%TO.N,unconnected-(U2-GPIO6_A5_D5_SCL-Pad6)*%
X79920000Y-90380000D03*
%TO.P,U2,7,GPIO43_D6_TX*%
%TO.N,unconnected-(U2-GPIO43_D6_TX-Pad7)*%
X77380000Y-90380000D03*
%TO.P,U2,8,GPIO44_D7_RX*%
%TO.N,Net-(DWM1-~{SPICS})*%
X77380000Y-105620000D03*
%TO.P,U2,9,GPIO7_A8_D8_SCK*%
%TO.N,Net-(DWM1-SPICLK)*%
X79920000Y-105620000D03*
%TO.P,U2,10,GPIO8_A9_D9_MISO*%
%TO.N,Net-(DWM1-SPIMISO)*%
X82460000Y-105620000D03*
%TO.P,U2,11,GPIO9_A10_D10_MOSI*%
%TO.N,Net-(DWM1-SPIMOSI)*%
X85000000Y-105620000D03*
%TO.P,U2,12,3V3*%
%TO.N,+3.3V*%
X87540000Y-105620000D03*
%TO.P,U2,13,GND*%
%TO.N,GND*%
X90080000Y-105620000D03*
%TO.P,U2,14,VBUS*%
%TO.N,unconnected-(U2-VBUS-Pad14)*%
X92620000Y-105620000D03*
%TD*%
D11*
%TO.N,GND*%
X91000000Y-102500000D03*
X93000000Y-102500000D03*
X84500000Y-78000000D03*
X92000000Y-102500000D03*
X85500000Y-78000000D03*
X86500000Y-78000000D03*
%TO.N,Net-(DWM1-EXTON)*%
X76699000Y-72901000D03*
X71500000Y-90000000D03*
%TO.N,Net-(DWM1-SPIMOSI)*%
X91500000Y-81100000D03*
X95000000Y-81000000D03*
%TO.N,+3.3V*%
X89500000Y-103500000D03*
X78900000Y-81101200D03*
%TO.N,Net-(DWM1-IRQ{slash}GPIO8)*%
X92500000Y-87000000D03*
X95000000Y-76000000D03*
%TO.N,Net-(DWM1-WAKEUP)*%
X72500000Y-90000000D03*
X76601200Y-74101200D03*
%TO.N,Net-(DWM1-~{RST})*%
X73500000Y-90000000D03*
X76501200Y-75501200D03*
%TD*%
D12*
%TO.N,Net-(DWM1-EXTON)*%
X76699000Y-72901000D02*
X71500000Y-78100000D01*
X71500000Y-78100000D02*
X71500000Y-90000000D01*
%TO.N,Net-(DWM1-SPIMOSI)*%
X95000000Y-81000000D02*
X91600000Y-81000000D01*
X91600000Y-81000000D02*
X91500000Y-81100000D01*
%TO.N,+3.3V*%
X78857000Y-81144200D02*
X78900000Y-81101200D01*
X89500000Y-103500000D02*
X78857000Y-92857000D01*
X78857000Y-92857000D02*
X78857000Y-81144200D01*
%TO.N,Net-(DWM1-IRQ{slash}GPIO8)*%
X96600000Y-77600000D02*
X95000000Y-76000000D01*
X96600000Y-87000000D02*
X96600000Y-77600000D01*
X92500000Y-87000000D02*
X96600000Y-87000000D01*
%TO.N,Net-(DWM1-WAKEUP)*%
X76601200Y-74101200D02*
X76398800Y-74101200D01*
X76398800Y-74101200D02*
X72500000Y-78000000D01*
X72500000Y-78000000D02*
X72500000Y-90000000D01*
%TO.N,Net-(DWM1-~{RST})*%
X76501200Y-75501200D02*
X76032350Y-75501200D01*
X73500000Y-78033550D02*
X73500000Y-90000000D01*
X76032350Y-75501200D02*
X73500000Y-78033550D01*
%TD*%
%TA.AperFunction,Conductor*%
%TO.N,GND*%
G36*
X76253039Y-72020185D02*
G01*
X76298794Y-72072989D01*
X76310000Y-72124500D01*
X76310000Y-72131888D01*
X76290315Y-72198927D01*
X76254891Y-72234990D01*
X76188711Y-72279210D01*
X76188707Y-72279213D01*
X76077213Y-72390707D01*
X76077210Y-72390711D01*
X75989609Y-72521814D01*
X75989602Y-72521827D01*
X75929264Y-72667498D01*
X75929261Y-72667508D01*
X75898361Y-72822850D01*
X75865976Y-72884761D01*
X75864425Y-72886339D01*
X71019481Y-77731282D01*
X71019480Y-77731284D01*
X70978788Y-77801765D01*
X70940423Y-77868215D01*
X70899499Y-78020943D01*
X70899499Y-78020945D01*
X70899499Y-78189046D01*
X70899500Y-78189059D01*
X70899500Y-89420234D01*
X70879815Y-89487273D01*
X70878602Y-89489125D01*
X70790609Y-89620814D01*
X70790602Y-89620827D01*
X70730264Y-89766498D01*
X70730261Y-89766510D01*
X70699500Y-89921153D01*
X70699500Y-90078846D01*
X70730261Y-90233489D01*
X70730264Y-90233501D01*
X70790602Y-90379172D01*
X70790609Y-90379185D01*
X70878210Y-90510288D01*
X70878213Y-90510292D01*
X70989707Y-90621786D01*
X70989711Y-90621789D01*
X71120814Y-90709390D01*
X71120827Y-90709397D01*
X71266498Y-90769735D01*
X71266503Y-90769737D01*
X71421153Y-90800499D01*
X71421156Y-90800500D01*
X71421158Y-90800500D01*
X71578844Y-90800500D01*
X71578845Y-90800499D01*
X71733497Y-90769737D01*
X71879179Y-90709394D01*
X71931110Y-90674694D01*
X71997785Y-90653816D01*
X72065165Y-90672300D01*
X72068863Y-90674676D01*
X72120821Y-90709394D01*
X72120823Y-90709395D01*
X72120825Y-90709396D01*
X72266498Y-90769735D01*
X72266503Y-90769737D01*
X72421153Y-90800499D01*
X72421156Y-90800500D01*
X72421158Y-90800500D01*
X72578844Y-90800500D01*
X72578845Y-90800499D01*
X72733497Y-90769737D01*
X72879179Y-90709394D01*
X72931110Y-90674694D01*
X72997785Y-90653816D01*
X73065165Y-90672300D01*
X73068863Y-90674676D01*
X73120821Y-90709394D01*
X73120823Y-90709395D01*
X73120825Y-90709396D01*
X73266498Y-90769735D01*
X73266503Y-90769737D01*
X73421153Y-90800499D01*
X73421156Y-90800500D01*
X73421158Y-90800500D01*
X73578844Y-90800500D01*
X73578845Y-90800499D01*
X73733497Y-90769737D01*
X73879179Y-90709394D01*
X74010289Y-90621789D01*
X74121789Y-90510289D01*
X74209394Y-90379179D01*
X74250210Y-90280639D01*
X76117500Y-90280639D01*
X76117500Y-90479360D01*
X76148587Y-90675637D01*
X76209993Y-90864629D01*
X76209994Y-90864632D01*
X76300213Y-91041694D01*
X76417019Y-91202464D01*
X76557536Y-91342981D01*
X76718306Y-91459787D01*
X76805149Y-91504035D01*
X76895367Y-91550005D01*
X76895370Y-91550006D01*
X76989866Y-91580709D01*
X77084364Y-91611413D01*
X77280639Y-91642500D01*
X77280640Y-91642500D01*
X77479360Y-91642500D01*
X77479361Y-91642500D01*
X77675636Y-91611413D01*
X77864632Y-91550005D01*
X78041694Y-91459787D01*
X78044069Y-91458061D01*
X78059614Y-91446768D01*
X78125420Y-91423287D01*
X78193474Y-91439112D01*
X78242169Y-91489217D01*
X78256500Y-91547085D01*
X78256500Y-92770330D01*
X78256499Y-92770348D01*
X78256499Y-92936054D01*
X78256498Y-92936054D01*
X78297423Y-93088785D01*
X78326358Y-93138900D01*
X78326359Y-93138904D01*
X78326360Y-93138904D01*
X78376479Y-93225714D01*
X78376481Y-93225717D01*
X78495349Y-93344585D01*
X78495355Y-93344590D01*
X88665425Y-103514660D01*
X88698910Y-103575983D01*
X88699361Y-103578149D01*
X88730261Y-103733491D01*
X88730264Y-103733501D01*
X88790602Y-103879172D01*
X88790609Y-103879185D01*
X88878210Y-104010288D01*
X88878213Y-104010292D01*
X88989707Y-104121786D01*
X88989711Y-104121789D01*
X89120814Y-104209390D01*
X89120827Y-104209397D01*
X89266498Y-104269735D01*
X89266503Y-104269737D01*
X89321237Y-104280624D01*
X89407551Y-104297794D01*
X89469462Y-104330179D01*
X89504037Y-104390895D01*
X89500297Y-104460664D01*
X89459430Y-104517336D01*
X89439658Y-104529894D01*
X89418566Y-104540641D01*
X89381283Y-104567729D01*
X89381282Y-104567730D01*
X89995906Y-105182352D01*
X89908429Y-105205792D01*
X89807070Y-105264311D01*
X89724311Y-105347070D01*
X89665792Y-105448429D01*
X89642352Y-105535905D01*
X89027730Y-104921282D01*
X89027729Y-104921283D01*
X89000641Y-104958566D01*
X88920764Y-105115332D01*
X88872790Y-105166127D01*
X88804969Y-105182922D01*
X88738834Y-105160384D01*
X88699796Y-105115332D01*
X88619787Y-104958306D01*
X88502981Y-104797536D01*
X88362464Y-104657019D01*
X88201694Y-104540213D01*
X88156796Y-104517336D01*
X88024632Y-104449994D01*
X88024629Y-104449993D01*
X87835637Y-104388587D01*
X87737498Y-104373043D01*
X87639361Y-104357500D01*
X87440639Y-104357500D01*
X87375214Y-104367862D01*
X87244362Y-104388587D01*
X87055370Y-104449993D01*
X87055367Y-104449994D01*
X86878305Y-104540213D01*
X86717533Y-104657021D01*
X86577021Y-104797533D01*
X86460213Y-104958305D01*
X86380485Y-105114780D01*
X86332510Y-105165576D01*
X86264689Y-105182371D01*
X86198554Y-105159833D01*
X86159515Y-105114780D01*
X86140179Y-105076832D01*
X86079787Y-104958306D01*
X85962981Y-104797536D01*
X85822464Y-104657019D01*
X85661694Y-104540213D01*
X85616796Y-104517336D01*
X85484632Y-104449994D01*
X85484629Y-104449993D01*
X85295637Y-104388587D01*
X85197498Y-104373043D01*
X85099361Y-104357500D01*
X84900639Y-104357500D01*
X84835214Y-104367862D01*
X84704362Y-104388587D01*
X84515370Y-104449993D01*
X84515367Y-104449994D01*
X84338305Y-104540213D01*
X84177533Y-104657021D01*
X84037021Y-104797533D01*
X83920213Y-104958305D01*
X83840485Y-105114780D01*
X83792510Y-105165576D01*
X83724689Y-105182371D01*
X83658554Y-105159833D01*
X83619515Y-105114780D01*
X83600179Y-105076832D01*
X83539787Y-104958306D01*
X83422981Y-104797536D01*
X83282464Y-104657019D01*
X83121694Y-104540213D01*
X83076796Y-104517336D01*
X82944632Y-104449994D01*
X82944629Y-104449993D01*
X82755637Y-104388587D01*
X82657498Y-104373043D01*
X82559361Y-104357500D01*
X82360639Y-104357500D01*
X82295214Y-104367862D01*
X82164362Y-104388587D01*
X81975370Y-104449993D01*
X81975367Y-104449994D01*
X81798305Y-104540213D01*
X81637533Y-104657021D01*
X81497021Y-104797533D01*
X81380213Y-104958305D01*
X81300485Y-105114780D01*
X81252510Y-105165576D01*
X81184689Y-105182371D01*
X81118554Y-105159833D01*
X81079515Y-105114780D01*
X81060179Y-105076832D01*
X80999787Y-104958306D01*
X80882981Y-104797536D01*
X80742464Y-104657019D01*
X80581694Y-104540213D01*
X80536796Y-104517336D01*
X80404632Y-104449994D01*
X80404629Y-104449993D01*
X80215637Y-104388587D01*
X80117498Y-104373043D01*
X80019361Y-104357500D01*
X79820639Y-104357500D01*
X79755214Y-104367862D01*
X79624362Y-104388587D01*
X79435370Y-104449993D01*
X79435367Y-104449994D01*
X79258305Y-104540213D01*
X79097533Y-104657021D01*
X78957021Y-104797533D01*
X78840213Y-104958305D01*
X78760485Y-105114780D01*
X78712510Y-105165576D01*
X78644689Y-105182371D01*
X78578554Y-105159833D01*
X78539515Y-105114780D01*
X78520179Y-105076832D01*
X78459787Y-104958306D01*
X78342981Y-104797536D01*
X78202464Y-104657019D01*
X78041694Y-104540213D01*
X77996796Y-104517336D01*
X77864632Y-104449994D01*
X77864629Y-104449993D01*
X77675637Y-104388587D01*
X77577498Y-104373043D01*
X77479361Y-104357500D01*
X77280639Y-104357500D01*
X77215214Y-104367862D01*
X77084362Y-104388587D01*
X76895370Y-104449993D01*
X76895367Y-104449994D01*
X76718305Y-104540213D01*
X76557533Y-104657021D01*
X76417021Y-104797533D01*
X76300213Y-104958305D01*
X76209994Y-105135367D01*
X76209993Y-105135370D01*
X76148587Y-105324362D01*
X76117500Y-105520639D01*
X76117500Y-105719360D01*
X76148587Y-105915637D01*
X76209993Y-106104629D01*
X76209994Y-106104632D01*
X76300074Y-106281422D01*
X76300213Y-106281694D01*
X76417019Y-106442464D01*
X76557536Y-106582981D01*
X76718306Y-106699787D01*
X76805149Y-106744035D01*
X76895367Y-106790005D01*
X76895370Y-106790006D01*
X76989866Y-106820709D01*
X77084364Y-106851413D01*
X77280639Y-106882500D01*
X77280640Y-106882500D01*
X77479360Y-106882500D01*
X77479361Y-106882500D01*
X77675636Y-106851413D01*
X77864632Y-106790005D01*
X78041694Y-106699787D01*
X78202464Y-106582981D01*
X78342981Y-106442464D01*
X78459787Y-106281694D01*
X78539515Y-106125218D01*
X78587490Y-106074423D01*
X78655311Y-106057628D01*
X78721446Y-106080165D01*
X78760484Y-106125218D01*
X78840213Y-106281694D01*
X78957019Y-106442464D01*
X79097536Y-106582981D01*
X79258306Y-106699787D01*
X79345149Y-106744035D01*
X79435367Y-106790005D01*
X79435370Y-106790006D01*
X79529866Y-106820709D01*
X79624364Y-106851413D01*
X79820639Y-106882500D01*
X79820640Y-106882500D01*
X80019360Y-106882500D01*
X80019361Y-106882500D01*
X80215636Y-106851413D01*
X80404632Y-106790005D01*
X80581694Y-106699787D01*
X80742464Y-106582981D01*
X80882981Y-106442464D01*
X80999787Y-106281694D01*
X81079515Y-106125218D01*
X81127490Y-106074423D01*
X81195311Y-106057628D01*
X81261446Y-106080165D01*
X81300484Y-106125218D01*
X81380213Y-106281694D01*
X81497019Y-106442464D01*
X81637536Y-106582981D01*
X81798306Y-106699787D01*
X81885149Y-106744035D01*
X81975367Y-106790005D01*
X81975370Y-106790006D01*
X82069866Y-106820709D01*
X82164364Y-106851413D01*
X82360639Y-106882500D01*
X82360640Y-106882500D01*
X82559360Y-106882500D01*
X82559361Y-106882500D01*
X82755636Y-106851413D01*
X82944632Y-106790005D01*
X83121694Y-106699787D01*
X83282464Y-106582981D01*
X83422981Y-106442464D01*
X83539787Y-106281694D01*
X83619515Y-106125218D01*
X83667490Y-106074423D01*
X83735311Y-106057628D01*
X83801446Y-106080165D01*
X83840484Y-106125218D01*
X83920213Y-106281694D01*
X84037019Y-106442464D01*
X84177536Y-106582981D01*
X84338306Y-106699787D01*
X84425149Y-106744035D01*
X84515367Y-106790005D01*
X84515370Y-106790006D01*
X84609866Y-106820709D01*
X84704364Y-106851413D01*
X84900639Y-106882500D01*
X84900640Y-106882500D01*
X85099360Y-106882500D01*
X85099361Y-106882500D01*
X85295636Y-106851413D01*
X85484632Y-106790005D01*
X85661694Y-106699787D01*
X85822464Y-106582981D01*
X85962981Y-106442464D01*
X86079787Y-106281694D01*
X86159515Y-106125218D01*
X86207490Y-106074423D01*
X86275311Y-106057628D01*
X86341446Y-106080165D01*
X86380484Y-106125218D01*
X86460213Y-106281694D01*
X86577019Y-106442464D01*
X86717536Y-106582981D01*
X86878306Y-106699787D01*
X86965149Y-106744035D01*
X87055367Y-106790005D01*
X87055370Y-106790006D01*
X87149866Y-106820709D01*
X87244364Y-106851413D01*
X87440639Y-106882500D01*
X87440640Y-106882500D01*
X87639360Y-106882500D01*
X87639361Y-106882500D01*
X87835636Y-106851413D01*
X88024632Y-106790005D01*
X88201694Y-106699787D01*
X88362464Y-106582981D01*
X88502981Y-106442464D01*
X88619787Y-106281694D01*
X88699796Y-106124667D01*
X88747769Y-106073872D01*
X88815590Y-106057077D01*
X88881725Y-106079614D01*
X88920765Y-106124668D01*
X89000641Y-106281432D01*
X89027730Y-106318715D01*
X89642352Y-105704093D01*
X89665792Y-105791571D01*
X89724311Y-105892930D01*
X89807070Y-105975689D01*
X89908429Y-106034208D01*
X89995905Y-106057647D01*
X89381283Y-106672268D01*
X89381283Y-106672269D01*
X89418567Y-106699358D01*
X89595562Y-106789542D01*
X89784477Y-106850924D01*
X89980679Y-106882000D01*
X90179321Y-106882000D01*
X90375520Y-106850924D01*
X90375523Y-106850924D01*
X90564437Y-106789542D01*
X90741425Y-106699362D01*
X90778716Y-106672268D01*
X90164095Y-106057647D01*
X90251571Y-106034208D01*
X90352930Y-105975689D01*
X90435689Y-105892930D01*
X90494208Y-105791571D01*
X90517647Y-105704094D01*
X91132268Y-106318715D01*
X91159364Y-106281422D01*
X91239234Y-106124669D01*
X91287208Y-106073872D01*
X91355029Y-106057077D01*
X91421164Y-106079614D01*
X91460203Y-106124667D01*
X91540213Y-106281694D01*
X91657019Y-106442464D01*
X91797536Y-106582981D01*
X91958306Y-106699787D01*
X92045149Y-106744035D01*
X92135367Y-106790005D01*
X92135370Y-106790006D01*
X92229866Y-106820709D01*
X92324364Y-106851413D01*
X92520639Y-106882500D01*
X92520640Y-106882500D01*
X92719360Y-106882500D01*
X92719361Y-106882500D01*
X92915636Y-106851413D01*
X93104632Y-106790005D01*
X93281694Y-106699787D01*
X93442464Y-106582981D01*
X93582981Y-106442464D01*
X93699787Y-106281694D01*
X93790005Y-106104632D01*
X93851413Y-105915636D01*
X93882500Y-105719361D01*
X93882500Y-105520639D01*
X93851413Y-105324364D01*
X93790005Y-105135368D01*
X93790005Y-105135367D01*
X93744035Y-105045149D01*
X93699787Y-104958306D01*
X93582981Y-104797536D01*
X93442464Y-104657019D01*
X93281694Y-104540213D01*
X93236796Y-104517336D01*
X93104632Y-104449994D01*
X93104629Y-104449993D01*
X92915637Y-104388587D01*
X92817498Y-104373043D01*
X92719361Y-104357500D01*
X92520639Y-104357500D01*
X92455214Y-104367862D01*
X92324362Y-104388587D01*
X92135370Y-104449993D01*
X92135367Y-104449994D01*
X91958305Y-104540213D01*
X91797533Y-104657021D01*
X91657021Y-104797533D01*
X91540213Y-104958305D01*
X91460204Y-105115331D01*
X91412229Y-105166127D01*
X91344408Y-105182922D01*
X91278273Y-105160384D01*
X91239234Y-105115331D01*
X91159358Y-104958567D01*
X91132268Y-104921283D01*
X90517647Y-105535904D01*
X90494208Y-105448429D01*
X90435689Y-105347070D01*
X90352930Y-105264311D01*
X90251571Y-105205792D01*
X90164094Y-105182352D01*
X90778716Y-104567731D01*
X90778715Y-104567730D01*
X90741432Y-104540641D01*
X90564437Y-104450457D01*
X90375522Y-104389075D01*
X90179321Y-104358000D01*
X90065548Y-104358000D01*
X89998509Y-104338315D01*
X89952754Y-104285511D01*
X89942810Y-104216353D01*
X89971835Y-104152797D01*
X89996657Y-104130898D01*
X90001586Y-104127603D01*
X90010289Y-104121789D01*
X90121789Y-104010289D01*
X90209394Y-103879179D01*
X90269737Y-103733497D01*
X90300500Y-103578842D01*
X90300500Y-103421158D01*
X90300500Y-103421155D01*
X90300499Y-103421153D01*
X90269738Y-103266510D01*
X90269737Y-103266503D01*
X90269735Y-103266498D01*
X90209397Y-103120827D01*
X90209390Y-103120814D01*
X90121789Y-102989711D01*
X90121786Y-102989707D01*
X90010292Y-102878213D01*
X90010288Y-102878210D01*
X89879185Y-102790609D01*
X89879172Y-102790602D01*
X89733501Y-102730264D01*
X89733491Y-102730261D01*
X89578149Y-102699361D01*
X89516238Y-102666976D01*
X89514660Y-102665425D01*
X79493819Y-92644584D01*
X79460334Y-92583261D01*
X79457500Y-92556903D01*
X79457500Y-91727867D01*
X79477185Y-91660828D01*
X79529989Y-91615073D01*
X79599147Y-91605129D01*
X79619821Y-91609937D01*
X79624363Y-91611413D01*
X79722501Y-91626956D01*
X79820639Y-91642500D01*
X79820640Y-91642500D01*
X80019360Y-91642500D01*
X80019361Y-91642500D01*
X80215636Y-91611413D01*
X80404632Y-91550005D01*
X80581694Y-91459787D01*
X80742464Y-91342981D01*
X80882981Y-91202464D01*
X80999787Y-91041694D01*
X81079515Y-90885218D01*
X81127490Y-90834423D01*
X81195311Y-90817628D01*
X81261446Y-90840165D01*
X81300484Y-90885218D01*
X81380213Y-91041694D01*
X81497019Y-91202464D01*
X81637536Y-91342981D01*
X81798306Y-91459787D01*
X81885149Y-91504035D01*
X81975367Y-91550005D01*
X81975370Y-91550006D01*
X82069866Y-91580709D01*
X82164364Y-91611413D01*
X82360639Y-91642500D01*
X82360640Y-91642500D01*
X82559360Y-91642500D01*
X82559361Y-91642500D01*
X82755636Y-91611413D01*
X82944632Y-91550005D01*
X83121694Y-91459787D01*
X83282464Y-91342981D01*
X83422981Y-91202464D01*
X83539787Y-91041694D01*
X83619515Y-90885218D01*
X83667490Y-90834423D01*
X83735311Y-90817628D01*
X83801446Y-90840165D01*
X83840484Y-90885218D01*
X83920213Y-91041694D01*
X84037019Y-91202464D01*
X84177536Y-91342981D01*
X84338306Y-91459787D01*
X84425149Y-91504035D01*
X84515367Y-91550005D01*
X84515370Y-91550006D01*
X84609866Y-91580709D01*
X84704364Y-91611413D01*
X84900639Y-91642500D01*
X84900640Y-91642500D01*
X85099360Y-91642500D01*
X85099361Y-91642500D01*
X85295636Y-91611413D01*
X85484632Y-91550005D01*
X85661694Y-91459787D01*
X85822464Y-91342981D01*
X85962981Y-91202464D01*
X86079787Y-91041694D01*
X86159515Y-90885218D01*
X86207490Y-90834423D01*
X86275311Y-90817628D01*
X86341446Y-90840165D01*
X86380484Y-90885218D01*
X86460213Y-91041694D01*
X86577019Y-91202464D01*
X86717536Y-91342981D01*
X86878306Y-91459787D01*
X86965149Y-91504035D01*
X87055367Y-91550005D01*
X87055370Y-91550006D01*
X87149866Y-91580709D01*
X87244364Y-91611413D01*
X87440639Y-91642500D01*
X87440640Y-91642500D01*
X87639360Y-91642500D01*
X87639361Y-91642500D01*
X87835636Y-91611413D01*
X88024632Y-91550005D01*
X88201694Y-91459787D01*
X88362464Y-91342981D01*
X88502981Y-91202464D01*
X88619787Y-91041694D01*
X88699515Y-90885218D01*
X88747490Y-90834423D01*
X88815311Y-90817628D01*
X88881446Y-90840165D01*
X88920484Y-90885218D01*
X89000213Y-91041694D01*
X89117019Y-91202464D01*
X89257536Y-91342981D01*
X89418306Y-91459787D01*
X89505149Y-91504035D01*
X89595367Y-91550005D01*
X89595370Y-91550006D01*
X89689866Y-91580709D01*
X89784364Y-91611413D01*
X89980639Y-91642500D01*
X89980640Y-91642500D01*
X90179360Y-91642500D01*
X90179361Y-91642500D01*
X90375636Y-91611413D01*
X90564632Y-91550005D01*
X90741694Y-91459787D01*
X90902464Y-91342981D01*
X91042981Y-91202464D01*
X91159787Y-91041694D01*
X91239515Y-90885218D01*
X91287490Y-90834423D01*
X91355311Y-90817628D01*
X91421446Y-90840165D01*
X91460484Y-90885218D01*
X91540213Y-91041694D01*
X91657019Y-91202464D01*
X91797536Y-91342981D01*
X91958306Y-91459787D01*
X92045149Y-91504035D01*
X92135367Y-91550005D01*
X92135370Y-91550006D01*
X92229866Y-91580709D01*
X92324364Y-91611413D01*
X92520639Y-91642500D01*
X92520640Y-91642500D01*
X92719360Y-91642500D01*
X92719361Y-91642500D01*
X92915636Y-91611413D01*
X93104632Y-91550005D01*
X93281694Y-91459787D01*
X93442464Y-91342981D01*
X93582981Y-91202464D01*
X93699787Y-91041694D01*
X93790005Y-90864632D01*
X93851413Y-90675636D01*
X93882500Y-90479361D01*
X93882500Y-90280639D01*
X93851413Y-90084364D01*
X93790005Y-89895368D01*
X93790005Y-89895367D01*
X93724348Y-89766510D01*
X93699787Y-89718306D01*
X93582981Y-89557536D01*
X93442464Y-89417019D01*
X93281694Y-89300213D01*
X93241932Y-89279953D01*
X93104632Y-89209994D01*
X93104629Y-89209993D01*
X92915637Y-89148587D01*
X92817498Y-89133043D01*
X92719361Y-89117500D01*
X92520639Y-89117500D01*
X92455214Y-89127862D01*
X92324362Y-89148587D01*
X92135370Y-89209993D01*
X92135367Y-89209994D01*
X91958305Y-89300213D01*
X91797533Y-89417021D01*
X91657021Y-89557533D01*
X91540213Y-89718305D01*
X91460485Y-89874780D01*
X91412510Y-89925576D01*
X91344689Y-89942371D01*
X91278554Y-89919833D01*
X91239515Y-89874780D01*
X91184348Y-89766510D01*
X91159787Y-89718306D01*
X91042981Y-89557536D01*
X90902464Y-89417019D01*
X90741694Y-89300213D01*
X90701932Y-89279953D01*
X90564632Y-89209994D01*
X90564629Y-89209993D01*
X90375637Y-89148587D01*
X90277498Y-89133043D01*
X90179361Y-89117500D01*
X89980639Y-89117500D01*
X89915214Y-89127862D01*
X89784362Y-89148587D01*
X89595370Y-89209993D01*
X89595367Y-89209994D01*
X89418305Y-89300213D01*
X89257533Y-89417021D01*
X89117021Y-89557533D01*
X89000213Y-89718305D01*
X88920485Y-89874780D01*
X88872510Y-89925576D01*
X88804689Y-89942371D01*
X88738554Y-89919833D01*
X88699515Y-89874780D01*
X88644348Y-89766510D01*
X88619787Y-89718306D01*
X88502981Y-89557536D01*
X88362464Y-89417019D01*
X88201694Y-89300213D01*
X88161932Y-89279953D01*
X88024632Y-89209994D01*
X88024629Y-89209993D01*
X87835637Y-89148587D01*
X87737498Y-89133043D01*
X87639361Y-89117500D01*
X87440639Y-89117500D01*
X87375214Y-89127862D01*
X87244362Y-89148587D01*
X87055370Y-89209993D01*
X87055367Y-89209994D01*
X86878305Y-89300213D01*
X86717533Y-89417021D01*
X86577021Y-89557533D01*
X86460213Y-89718305D01*
X86380485Y-89874780D01*
X86332510Y-89925576D01*
X86264689Y-89942371D01*
X86198554Y-89919833D01*
X86159515Y-89874780D01*
X86104348Y-89766510D01*
X86079787Y-89718306D01*
X85962981Y-89557536D01*
X85822464Y-89417019D01*
X85661694Y-89300213D01*
X85621932Y-89279953D01*
X85484632Y-89209994D01*
X85484629Y-89209993D01*
X85295637Y-89148587D01*
X85197498Y-89133043D01*
X85099361Y-89117500D01*
X84900639Y-89117500D01*
X84835214Y-89127862D01*
X84704362Y-89148587D01*
X84515370Y-89209993D01*
X84515367Y-89209994D01*
X84338305Y-89300213D01*
X84177533Y-89417021D01*
X84037021Y-89557533D01*
X83920213Y-89718305D01*
X83840485Y-89874780D01*
X83792510Y-89925576D01*
X83724689Y-89942371D01*
X83658554Y-89919833D01*
X83619515Y-89874780D01*
X83564348Y-89766510D01*
X83539787Y-89718306D01*
X83422981Y-89557536D01*
X83282464Y-89417019D01*
X83121694Y-89300213D01*
X83081932Y-89279953D01*
X82944632Y-89209994D01*
X82944629Y-89209993D01*
X82755637Y-89148587D01*
X82657498Y-89133043D01*
X82559361Y-89117500D01*
X82360639Y-89117500D01*
X82295214Y-89127862D01*
X82164362Y-89148587D01*
X81975370Y-89209993D01*
X81975367Y-89209994D01*
X81798305Y-89300213D01*
X81637533Y-89417021D01*
X81497021Y-89557533D01*
X81380213Y-89718305D01*
X81300485Y-89874780D01*
X81252510Y-89925576D01*
X81184689Y-89942371D01*
X81118554Y-89919833D01*
X81079515Y-89874780D01*
X81024348Y-89766510D01*
X80999787Y-89718306D01*
X80882981Y-89557536D01*
X80742464Y-89417019D01*
X80581694Y-89300213D01*
X80541932Y-89279953D01*
X80404632Y-89209994D01*
X80404629Y-89209993D01*
X80215637Y-89148587D01*
X80117498Y-89133043D01*
X80019361Y-89117500D01*
X79820639Y-89117500D01*
X79771570Y-89125271D01*
X79624361Y-89148587D01*
X79619809Y-89150066D01*
X79549968Y-89152056D01*
X79490138Y-89115971D01*
X79459315Y-89053268D01*
X79457500Y-89032132D01*
X79457500Y-81727140D01*
X79477185Y-81660101D01*
X79493815Y-81639462D01*
X79521789Y-81611489D01*
X79609394Y-81480379D01*
X79669737Y-81334697D01*
X79700500Y-81180042D01*
X79700500Y-81022358D01*
X79700260Y-81021153D01*
X90699500Y-81021153D01*
X90699500Y-81178846D01*
X90730261Y-81333489D01*
X90730264Y-81333501D01*
X90790602Y-81479172D01*
X90790609Y-81479185D01*
X90878210Y-81610288D01*
X90878213Y-81610292D01*
X90989707Y-81721786D01*
X90989711Y-81721789D01*
X91120814Y-81809390D01*
X91120827Y-81809397D01*
X91266498Y-81869735D01*
X91266503Y-81869737D01*
X91421153Y-81900499D01*
X91421156Y-81900500D01*
X91421158Y-81900500D01*
X91578844Y-81900500D01*
X91578845Y-81900499D01*
X91733497Y-81869737D01*
X91879179Y-81809394D01*
X92010289Y-81721789D01*
X92095260Y-81636817D01*
X92156581Y-81603334D01*
X92182940Y-81600500D01*
X94420234Y-81600500D01*
X94487273Y-81620185D01*
X94489125Y-81621398D01*
X94620814Y-81709390D01*
X94620827Y-81709397D01*
X94766498Y-81769735D01*
X94766503Y-81769737D01*
X94921153Y-81800499D01*
X94921156Y-81800500D01*
X94921158Y-81800500D01*
X95078844Y-81800500D01*
X95078845Y-81800499D01*
X95233497Y-81769737D01*
X95379179Y-81709394D01*
X95510289Y-81621789D01*
X95621789Y-81510289D01*
X95709394Y-81379179D01*
X95760939Y-81254738D01*
X95804779Y-81200334D01*
X95871074Y-81178269D01*
X95938773Y-81195548D01*
X95986384Y-81246685D01*
X95999500Y-81302190D01*
X95999500Y-86275500D01*
X95979815Y-86342539D01*
X95927011Y-86388294D01*
X95875500Y-86399500D01*
X93079766Y-86399500D01*
X93012727Y-86379815D01*
X93010875Y-86378602D01*
X92879185Y-86290609D01*
X92879172Y-86290602D01*
X92733501Y-86230264D01*
X92733489Y-86230261D01*
X92578845Y-86199500D01*
X92578842Y-86199500D01*
X92421158Y-86199500D01*
X92421155Y-86199500D01*
X92266510Y-86230261D01*
X92266498Y-86230264D01*
X92120827Y-86290602D01*
X92120814Y-86290609D01*
X91989711Y-86378210D01*
X91989707Y-86378213D01*
X91878213Y-86489707D01*
X91878210Y-86489711D01*
X91790609Y-86620814D01*
X91790602Y-86620827D01*
X91730264Y-86766498D01*
X91730261Y-86766510D01*
X91699500Y-86921153D01*
X91699500Y-87078846D01*
X91730261Y-87233489D01*
X91730264Y-87233501D01*
X91790602Y-87379172D01*
X91790609Y-87379185D01*
X91878210Y-87510288D01*
X91878213Y-87510292D01*
X91989707Y-87621786D01*
X91989711Y-87621789D01*
X92120814Y-87709390D01*
X92120827Y-87709397D01*
X92266498Y-87769735D01*
X92266503Y-87769737D01*
X92421153Y-87800499D01*
X92421156Y-87800500D01*
X92421158Y-87800500D01*
X92578844Y-87800500D01*
X92578845Y-87800499D01*
X92733497Y-87769737D01*
X92879179Y-87709394D01*
X92879185Y-87709390D01*
X93010875Y-87621398D01*
X93077553Y-87600520D01*
X93079766Y-87600500D01*
X96679055Y-87600500D01*
X96679057Y-87600500D01*
X96831784Y-87559577D01*
X96968716Y-87480520D01*
X97080520Y-87368716D01*
X97159577Y-87231784D01*
X97200500Y-87079057D01*
X97200500Y-77689060D01*
X97200501Y-77689047D01*
X97200501Y-77520944D01*
X97159576Y-77368214D01*
X97159573Y-77368209D01*
X97080524Y-77231290D01*
X97080518Y-77231282D01*
X95834573Y-75985337D01*
X95801088Y-75924014D01*
X95800637Y-75921847D01*
X95769738Y-75766510D01*
X95769737Y-75766503D01*
X95756559Y-75734689D01*
X95709397Y-75620827D01*
X95709390Y-75620814D01*
X95621789Y-75489711D01*
X95621786Y-75489707D01*
X95510292Y-75378213D01*
X95510288Y-75378210D01*
X95379185Y-75290609D01*
X95379172Y-75290602D01*
X95233501Y-75230264D01*
X95233489Y-75230261D01*
X95078845Y-75199500D01*
X95078842Y-75199500D01*
X94921158Y-75199500D01*
X94921155Y-75199500D01*
X94766510Y-75230261D01*
X94766498Y-75230264D01*
X94620827Y-75290602D01*
X94620814Y-75290609D01*
X94489711Y-75378210D01*
X94489707Y-75378213D01*
X94378213Y-75489707D01*
X94378210Y-75489711D01*
X94290609Y-75620814D01*
X94290602Y-75620827D01*
X94230264Y-75766498D01*
X94230261Y-75766510D01*
X94199500Y-75921153D01*
X94199500Y-76078846D01*
X94230261Y-76233489D01*
X94230264Y-76233501D01*
X94290602Y-76379172D01*
X94290609Y-76379185D01*
X94378210Y-76510288D01*
X94378213Y-76510292D01*
X94489707Y-76621786D01*
X94489711Y-76621789D01*
X94620814Y-76709390D01*
X94620827Y-76709397D01*
X94766498Y-76769735D01*
X94766503Y-76769737D01*
X94831147Y-76782595D01*
X94921849Y-76800638D01*
X94983760Y-76833023D01*
X94985339Y-76834574D01*
X95963181Y-77812416D01*
X95996666Y-77873739D01*
X95999500Y-77900097D01*
X95999500Y-80697809D01*
X95979815Y-80764848D01*
X95927011Y-80810603D01*
X95857853Y-80820547D01*
X95794297Y-80791522D01*
X95760939Y-80745261D01*
X95709397Y-80620827D01*
X95709390Y-80620814D01*
X95621789Y-80489711D01*
X95621786Y-80489707D01*
X95510292Y-80378213D01*
X95510288Y-80378210D01*
X95379185Y-80290609D01*
X95379172Y-80290602D01*
X95233501Y-80230264D01*
X95233489Y-80230261D01*
X95078845Y-80199500D01*
X95078842Y-80199500D01*
X94921158Y-80199500D01*
X94921155Y-80199500D01*
X94766510Y-80230261D01*
X94766498Y-80230264D01*
X94620827Y-80290602D01*
X94620814Y-80290609D01*
X94489125Y-80378602D01*
X94422447Y-80399480D01*
X94420234Y-80399500D01*
X91925316Y-80399500D01*
X91877864Y-80390061D01*
X91733501Y-80330264D01*
X91733489Y-80330261D01*
X91578845Y-80299500D01*
X91578842Y-80299500D01*
X91421158Y-80299500D01*
X91421155Y-80299500D01*
X91266510Y-80330261D01*
X91266498Y-80330264D01*
X91120827Y-80390602D01*
X91120814Y-80390609D01*
X90989711Y-80478210D01*
X90989707Y-80478213D01*
X90878213Y-80589707D01*
X90878210Y-80589711D01*
X90790609Y-80720814D01*
X90790602Y-80720827D01*
X90730264Y-80866498D01*
X90730261Y-80866510D01*
X90699500Y-81021153D01*
X79700260Y-81021153D01*
X79669737Y-80867703D01*
X79669238Y-80866498D01*
X79609397Y-80722027D01*
X79609390Y-80722014D01*
X79521789Y-80590911D01*
X79521786Y-80590907D01*
X79410292Y-80479413D01*
X79410288Y-80479410D01*
X79279185Y-80391809D01*
X79279172Y-80391802D01*
X79133501Y-80331464D01*
X79133489Y-80331461D01*
X78978845Y-80300700D01*
X78978842Y-80300700D01*
X78821158Y-80300700D01*
X78821155Y-80300700D01*
X78666510Y-80331461D01*
X78666498Y-80331464D01*
X78520827Y-80391802D01*
X78520814Y-80391809D01*
X78389711Y-80479410D01*
X78389707Y-80479413D01*
X78278213Y-80590907D01*
X78278210Y-80590911D01*
X78190609Y-80722014D01*
X78190602Y-80722027D01*
X78130264Y-80867698D01*
X78130261Y-80867710D01*
X78099500Y-81022353D01*
X78099500Y-81180046D01*
X78130261Y-81334689D01*
X78130264Y-81334701D01*
X78190602Y-81480372D01*
X78190606Y-81480379D01*
X78235602Y-81547720D01*
X78256480Y-81614397D01*
X78256500Y-81616611D01*
X78256500Y-89212914D01*
X78236815Y-89279953D01*
X78184011Y-89325708D01*
X78114853Y-89335652D01*
X78059617Y-89313234D01*
X78041695Y-89300214D01*
X78041696Y-89300214D01*
X78041694Y-89300213D01*
X77983428Y-89270525D01*
X77864632Y-89209994D01*
X77864629Y-89209993D01*
X77675637Y-89148587D01*
X77577498Y-89133043D01*
X77479361Y-89117500D01*
X77280639Y-89117500D01*
X77215214Y-89127862D01*
X77084362Y-89148587D01*
X76895370Y-89209993D01*
X76895367Y-89209994D01*
X76718305Y-89300213D01*
X76557533Y-89417021D01*
X76417021Y-89557533D01*
X76300213Y-89718305D01*
X76209994Y-89895367D01*
X76209993Y-89895370D01*
X76148587Y-90084362D01*
X76117500Y-90280639D01*
X74250210Y-90280639D01*
X74269737Y-90233497D01*
X74300500Y-90078842D01*
X74300500Y-89921158D01*
X74300500Y-89921155D01*
X74300499Y-89921153D01*
X74269738Y-89766510D01*
X74269737Y-89766503D01*
X74269735Y-89766498D01*
X74209397Y-89620827D01*
X74209390Y-89620814D01*
X74121398Y-89489125D01*
X74100520Y-89422447D01*
X74100500Y-89420234D01*
X74100500Y-78333647D01*
X74120185Y-78266608D01*
X74136819Y-78245966D01*
X75014576Y-77368209D01*
X76098912Y-76283872D01*
X76160233Y-76250389D01*
X76229925Y-76255373D01*
X76234009Y-76256980D01*
X76267703Y-76270937D01*
X76422353Y-76301699D01*
X76422356Y-76301700D01*
X76422358Y-76301700D01*
X76580044Y-76301700D01*
X76580045Y-76301699D01*
X76734697Y-76270937D01*
X76880379Y-76210594D01*
X77011489Y-76122989D01*
X77122989Y-76011489D01*
X77210594Y-75880379D01*
X77270937Y-75734697D01*
X77301700Y-75580042D01*
X77301700Y-75422358D01*
X77301700Y-75422355D01*
X77301699Y-75422353D01*
X77292919Y-75378213D01*
X77270937Y-75267703D01*
X77270935Y-75267698D01*
X77210597Y-75122027D01*
X77210590Y-75122014D01*
X77122989Y-74990911D01*
X77122986Y-74990907D01*
X77064615Y-74932536D01*
X77031130Y-74871213D01*
X77036114Y-74801521D01*
X77077986Y-74745588D01*
X77083378Y-74741771D01*
X77111489Y-74722989D01*
X77222989Y-74611489D01*
X77310594Y-74480379D01*
X77370937Y-74334697D01*
X77401700Y-74180042D01*
X77401700Y-74022358D01*
X77401700Y-74022355D01*
X77401699Y-74022353D01*
X77370938Y-73867710D01*
X77370937Y-73867703D01*
X77370935Y-73867698D01*
X77310597Y-73722027D01*
X77310590Y-73722014D01*
X77246753Y-73626476D01*
X77225875Y-73559799D01*
X77244359Y-73492419D01*
X77262170Y-73469907D01*
X77320789Y-73411289D01*
X77408394Y-73280179D01*
X77468737Y-73134497D01*
X77499500Y-72979842D01*
X77499500Y-72822158D01*
X77499500Y-72822155D01*
X77499499Y-72822153D01*
X77468738Y-72667510D01*
X77468738Y-72667508D01*
X77468737Y-72667503D01*
X77468735Y-72667498D01*
X77408397Y-72521827D01*
X77408390Y-72521814D01*
X77320789Y-72390711D01*
X77316924Y-72386001D01*
X77318121Y-72385018D01*
X77288275Y-72330358D01*
X77293259Y-72260666D01*
X77335131Y-72204733D01*
X77400595Y-72180316D01*
X77409441Y-72180000D01*
X94090000Y-72180000D01*
X94090000Y-72124500D01*
X94109685Y-72057461D01*
X94162489Y-72011706D01*
X94214000Y-72000500D01*
X97375500Y-72000500D01*
X97442539Y-72020185D01*
X97488294Y-72072989D01*
X97499500Y-72124500D01*
X97499500Y-108375500D01*
X97479815Y-108442539D01*
X97427011Y-108488294D01*
X97375500Y-108499500D01*
X65624500Y-108499500D01*
X65557461Y-108479815D01*
X65511706Y-108427011D01*
X65500500Y-108375500D01*
X65500500Y-72124500D01*
X65520185Y-72057461D01*
X65572989Y-72011706D01*
X65624500Y-72000500D01*
X76186000Y-72000500D01*
X76253039Y-72020185D01*
G37*
%TD.AperFunction*%
%TD*%
M02*
